<svg xmlns="http://www.w3.org/2000/svg" version="1.1" xmlns:xlink="http://www.w3.org/1999/xlink" xmlns:svgjs="http://svgjs.dev/svgjs" width="2000" height="572" viewBox="0 0 2000 572"><g transform="matrix(1,0,0,1,-0.09236641221377795,-2.276333236973983)"><svg viewBox="0 0 262 75" data-background-color="#fafafa" preserveAspectRatio="xMidYMid meet" height="572" width="2000" xmlns="http://www.w3.org/2000/svg" xmlns:xlink="http://www.w3.org/1999/xlink"><g id="tight-bounds" transform="matrix(1,0,0,1,0.012100000000003774,0.2984702670857473)"><svg viewBox="0 0 261.9758 74.40305946582852" height="74.40305946582852" width="261.9758"><g><svg viewBox="0 0 261.9758 74.40305946582852" height="74.40305946582852" width="261.9758"><g><svg viewBox="0 0 261.9758 74.40305946582852" height="74.40305946582852" width="261.9758"><g id="textblocktransform"><svg viewBox="0 0 261.9758 74.40305946582852" height="74.40305946582852" width="261.9758" id="textblock"><g><svg viewBox="0 0 261.9758 50.80519999999999" height="50.80519999999999" width="261.9758"><g><svg><g></g><g></g></svg></g><g><svg><g><svg></svg></g><g></g></svg></g><g id="text-0"><svg viewBox="0 0 261.9758 50.80519999999999" height="50.80519999999999" width="261.9758"><g transform="matrix(1,0,0,1,0,0)"><svg width="199.1758" viewBox="0.45 -30.25 123.08 31.4" height="50.80519999999999" data-palette-color="#130912"><path d="M2.25 0.35L2.25 0.35Q1.15 0.35 0.8 0 0.45-0.35 0.45-1.45L0.45-1.45Q0.45-2.4 0.65-3.05L0.65-3.05Q1.05-4.4 1.73-6.03 2.4-7.65 3.35-9.2 4.3-10.75 5.53-11.9 6.75-13.05 8.2-13.5L8.2-13.5Q9.2-13.8 10.15-14.23 11.1-14.65 12.15-14.65L12.15-14.65Q12.9-14.65 13.43-14.2 13.95-13.75 13.95-12.95L13.95-12.95Q13.95-12.35 13.6-11.6 13.25-10.85 12.68-10.33 12.1-9.8 11.4-9.8L11.4-9.8Q11.2-9.8 11.2-9.95L11.2-9.95Q11.2-10.1 11.3-10.2L11.3-10.2Q11.55-10.65 11.63-11.18 11.7-11.7 11.7-12.2L11.7-12.2Q11.7-12.7 11.58-13.18 11.45-13.65 10.85-13.65L10.85-13.65Q10.35-13.65 9.85-13.38 9.35-13.1 8.95-12.85L8.95-12.85Q8.25-12.35 7.28-11.03 6.3-9.7 5.4-8.08 4.5-6.45 3.9-4.95 3.3-3.45 3.3-2.55L3.3-2.55Q3.3-0.8 5.1-0.8L5.1-0.8Q6.4-0.8 7.63-1.5 8.85-2.2 9.88-3.15 10.9-4.1 11.55-4.8 12.2-5.5 12.3-5.5L12.3-5.5Q12.5-5.5 12.5-5.3L12.5-5.3Q12.5-4.7 11.78-3.9 11.05-3.1 10.65-2.7L10.65-2.7Q8.85-1.35 6.68-0.5 4.5 0.35 2.25 0.35ZM14.5 0.4L14.5 0.4Q13.4 0.4 12.77-0.03 12.15-0.45 12.15-1.7L12.15-1.7Q12.15-3.25 12.97-5.15 13.8-7.05 14.95-8.83 16.1-10.6 17.1-11.75L17.1-11.75 17.1-11.85Q17.1-13.05 18.07-13.83 19.05-14.6 20.35-14.98 21.65-15.35 22.6-15.35L22.6-15.35Q23.9-15.35 24.77-14.75 25.65-14.15 25.65-12.7L25.65-12.7Q25.65-11.45 25-9.83 24.35-8.2 23.32-6.53 22.3-4.85 21.15-3.48 20-2.1 19.05-1.3L19.05-1.3Q19.8-0.4 21-0.4L21-0.4Q21.1-0.4 21.25-0.35 21.4-0.3 21.4-0.2L21.4-0.2Q21.4 0 21.22 0.05 21.05 0.1 20.9 0.1L20.9 0.1Q20.25 0.1 19.67-0.23 19.1-0.55 18.65-1.05L18.65-1.05Q16.8 0.4 14.5 0.4ZM18.6-1.95L18.6-1.95Q19.7-3 20.77-4.88 21.85-6.75 22.6-8.78 23.35-10.8 23.35-12.3L23.35-12.3Q23.35-12.9 23.1-13.55 22.85-14.2 22.05-14.2L22.05-14.2Q21.45-14.2 20.9-13.75 20.35-13.3 20.1-12.75L20.1-12.75Q20.2-12.6 20.32-12.35 20.45-12.1 20.45-11.9L20.45-11.9Q20.45-11.7 20.35-11.65L20.35-11.65Q19.7-11.3 19.12-10.88 18.55-10.45 18-9.9L18-9.9Q17.8-9.15 17.7-8.35 17.6-7.55 17.6-6.75L17.6-6.75Q17.6-5.6 17.82-4.3 18.05-3 18.6-1.95ZM16.5-0.85L16.5-0.85Q17-0.85 17.42-1.07 17.85-1.3 18.2-1.6L18.2-1.6Q17.4-2.85 17.05-4.5 16.7-6.15 16.7-7.6L16.7-7.6Q16.05-6.55 15.5-5.43 14.95-4.3 14.95-3L14.95-3Q14.95-2.25 15.27-1.55 15.6-0.85 16.5-0.85ZM36.39 0.4L36.39 0.4Q35.05 0.4 34.62-0.68 34.2-1.75 34.2-2.85L34.2-2.85Q34.2-3.55 34.37-4.65 34.55-5.75 34.82-6.8 35.09-7.85 35.39-8.45L35.39-8.45Q34.45-6.8 33.14-5.25L33.14-5.25Q32.64-4.65 31.72-3.73 30.8-2.8 29.7-1.85 28.59-0.9 27.55-0.28 26.5 0.35 25.64 0.35L25.64 0.35Q25.04 0.35 24.87-0.05 24.7-0.45 24.7-0.95L24.7-0.95Q24.7-2 25.2-3.6 25.7-5.2 26.57-6.98 27.45-8.75 28.57-10.25 29.7-11.75 30.92-12.68 32.14-13.6 33.39-13.5L33.39-13.5Q34.09-13.85 34.59-14.08 35.09-14.3 35.84-14.3L35.84-14.3Q36.39-14.3 36.95-14.23 37.5-14.15 38-14.05L38-14.05Q39.55-17 41.09-19.98 42.64-22.95 44.5-25.7L44.5-25.7Q44.34-26 44.34-26.4L44.34-26.4Q44.34-26.65 44.45-26.8L44.45-26.8Q44.59-27.05 45-27.68 45.39-28.3 45.8-28.9 46.2-29.5 46.3-29.65L46.3-29.65Q46.55-29.95 47.27-30.1 48-30.25 48.39-30.25L48.39-30.25Q48.64-30.25 49.17-30.18 49.7-30.1 49.7-29.75L49.7-29.75Q49.7-29.6 49.64-29.6L49.64-29.6Q48.89-28.5 48.07-27.4 47.25-26.3 46.5-25.15L46.5-25.15Q44.55-22.3 42.75-19.38 40.95-16.45 39.39-13.35L39.39-13.35Q39.39-12.55 39-12 38.59-11.45 38.2-10.8L38.2-10.8Q38.09-10.6 38.02-10.35 37.95-10.1 37.84-9.85L37.84-9.85Q37.34-8.45 36.89-6.78 36.45-5.1 36.45-3.55L36.45-3.55Q36.45-2.9 36.62-2 36.8-1.1 37.64-1.1L37.64-1.1Q38.5-1.1 39.37-1.78 40.25-2.45 40.89-3.13 41.55-3.8 41.64-3.8L41.64-3.8Q41.7-3.8 41.7-3.7L41.7-3.7Q41.7-3.25 41.2-2.65 40.7-2.05 40.12-1.53 39.55-1 39.25-0.75L39.25-0.75Q38.64-0.3 37.89 0.05 37.14 0.4 36.39 0.4ZM27.39-1.35L27.39-1.35Q27.64-1.35 27.97-1.58 28.3-1.8 28.5-1.95L28.5-1.95Q31.2-3.9 33.22-6.83 35.25-9.75 36.59-12.75L36.59-12.75Q36.09-13.05 35.39-13.05L35.39-13.05Q34.5-13.05 33.62-12.58 32.74-12.1 32.14-11.4L32.14-11.4Q31.2-10.4 30.22-8.78 29.25-7.15 28.47-5.45 27.7-3.75 27.25-2.35L27.25-2.35Q27.2-2.2 27.17-2.05 27.14-1.9 27.14-1.7L27.14-1.7Q27.14-1.35 27.39-1.35ZM42.64 0.35L42.64 0.35Q41.54 0.35 41.19 0 40.84-0.35 40.84-1.45L40.84-1.45Q40.84-2.65 41.42-4.2 41.99-5.75 42.49-6.8L42.49-6.8Q42.49-6.85 42.47-6.88 42.44-6.9 42.44-6.95L42.44-6.95Q42.44-7.2 42.62-7.35 42.79-7.5 42.89-7.65L42.89-7.65Q43.14-8.05 43.34-8.45 43.54-8.85 43.74-9.2L43.74-9.2Q44.59-10.55 45.82-11.8 47.04-13.05 48.59-13.5L48.59-13.5Q49.14-13.65 49.64-13.65L49.64-13.65Q49.74-13.65 49.87-13.63 49.99-13.6 49.99-13.5L49.99-13.5Q49.99-13.35 49.72-13.15 49.44-12.95 49.34-12.85L49.34-12.85Q48.54-12.2 47.62-10.85 46.69-9.5 46.14-8.65L46.14-8.65Q47.29-8.85 48.42-8.95 49.54-9.05 50.64-8.95L50.64-8.95Q51.19-9.75 51.67-10.93 52.14-12.1 52.14-13.1L52.14-13.1Q52.14-13.65 52.02-13.75 51.89-13.85 51.44-13.85L51.44-13.85Q51.34-13.85 51.14-13.9 50.94-13.95 50.94-14.1L50.94-14.1Q50.94-14.3 51.39-14.45 51.84-14.6 52.34-14.68 52.84-14.75 52.99-14.75L52.99-14.75Q54.34-14.75 54.34-13.5L54.34-13.5Q54.34-12.8 53.92-11.83 53.49-10.85 52.87-10.03 52.24-9.2 51.64-8.85L51.64-8.85Q51.79-8.85 52.27-8.72 52.74-8.6 53.17-8.45 53.59-8.3 53.59-8.1L53.59-8.1Q53.59-7.95 53.29-7.93 52.99-7.9 52.89-7.9L52.89-7.9Q52.44-7.9 51.99-7.98 51.54-8.05 51.09-8.05L51.09-8.05Q49.69-8.05 48.27-7.85 46.84-7.65 45.44-7.35L45.44-7.35Q44.94-6.45 44.32-5.05 43.69-3.65 43.69-2.55L43.69-2.55Q43.69-0.8 45.49-0.8L45.49-0.8Q46.79-0.8 48.02-1.5 49.24-2.2 50.29-3.15 51.34-4.1 51.99-4.8 52.64-5.5 52.74-5.5L52.74-5.5Q52.89-5.5 52.89-5.3L52.89-5.3Q52.89-4.7 52.19-3.88 51.49-3.05 51.04-2.7L51.04-2.7Q49.29-1.35 47.12-0.5 44.94 0.35 42.64 0.35ZM53.99 1.15L53.99 1.15Q53.79 1.15 53.09 1.07 52.39 1 52.39 0.6L52.39 0.6Q52.39 0.35 52.77 0.08 53.14-0.2 53.34-0.35L53.34-0.35Q54.74-1.15 56.84-1.53 58.94-1.9 60.49-2.05L60.49-2.05Q60.59-2.25 60.59-2.45L60.59-2.45Q60.59-3.25 59.84-3.9 59.09-4.55 58.12-5.2 57.14-5.85 56.39-6.68 55.64-7.5 55.64-8.6L55.64-8.6Q55.64-8.9 55.74-9.18 55.84-9.45 55.94-9.7L55.94-9.7Q57.09-11.85 59.07-12.95 61.04-14.05 63.34-14.55L63.34-14.55Q63.54-14.65 63.74-14.65 63.94-14.65 64.14-14.65L64.14-14.65Q64.84-14.65 65.32-14.28 65.79-13.9 65.79-13.15L65.79-13.15Q65.79-12.2 65.09-11.33 64.39-10.45 63.49-10.2L63.49-10.2 63.34-10.2Q63.29-10.2 63.29-10.3L63.29-10.3Q63.29-10.7 63.47-11.1 63.64-11.5 63.64-11.9L63.64-11.9Q63.64-12.6 63.12-12.88 62.59-13.15 61.94-13.15L61.94-13.15Q60.54-13.15 59.27-12.28 57.99-11.4 57.99-9.9L57.99-9.9Q57.99-8.7 58.67-7.95 59.34-7.2 60.19-6.65 61.04-6.1 61.72-5.48 62.39-4.85 62.39-3.85L62.39-3.85Q62.39-3.35 62.17-2.9 61.94-2.45 61.69-2.05L61.69-2.05Q62.14-2.1 62.57-2.13 62.99-2.15 63.44-2.15L63.44-2.15Q63.74-2.15 63.74-2L63.74-2Q63.74-1.8 63.54-1.7 63.34-1.6 63.19-1.55L63.19-1.55Q62.69-1.5 62.19-1.4 61.69-1.3 61.14-1.2L61.14-1.2Q59.74 0.1 57.82 0.63 55.89 1.15 53.99 1.15ZM63.59 1.1L63.59 1.1Q63.54 1.1 63.54 1.07 63.54 1.05 63.54 1.05L63.54 1.05Q63.54 0.8 63.91-0.05 64.29-0.9 64.39-1.1L64.39-1.1Q66.24-5.25 67.94-9.47 69.64-13.7 71.61-17.82 73.59-21.95 76.14-25.7L76.14-25.7Q76.04-26.1 76.04-26.4L76.04-26.4Q76.04-26.65 76.09-26.8L76.09-26.8 77.94-29.65Q78.24-29.95 78.96-30.1 79.69-30.25 80.09-30.25L80.09-30.25Q80.29-30.25 80.84-30.18 81.39-30.1 81.39-29.75L81.39-29.75Q81.39-29.6 81.34-29.6L81.34-29.6Q80.54-28.5 79.74-27.35 78.94-26.2 78.14-25.05L78.14-25.05Q71.39-14.95 67.34-3.65L67.34-3.65Q69.59-5.8 71.59-8.2 73.59-10.6 75.79-12.75L75.79-12.75Q75.89-12.85 76.01-12.88 76.14-12.9 76.24-12.95L76.24-12.95Q76.49-13.1 76.86-13.35 77.24-13.6 77.49-13.6L77.49-13.6Q77.49-13.6 77.49-13.55L77.49-13.55 77.54-13.55Q77.59-13.6 77.79-13.6L77.79-13.6Q78.04-13.6 78.09-13.3 78.14-13 78.14-12.8L78.14-12.8Q78.14-12.3 77.81-11.25 77.49-10.2 77.04-9.95L77.04-9.95Q76.54-8.2 76.11-6.78 75.69-5.35 75.69-3.4L75.69-3.4Q75.69-2.9 75.84-2.1 75.99-1.3 76.74-1.3L76.74-1.3Q77.44-1.3 78.19-1.75 78.94-2.2 79.64-2.83 80.34-3.45 80.84-3.9 81.34-4.35 81.49-4.35L81.49-4.35Q81.59-4.35 81.59-4.2L81.59-4.2Q81.59-4.05 81.49-3.85 81.39-3.65 81.29-3.55L81.29-3.55Q80.49-2.3 78.99-1.15 77.49 0 75.94 0L75.94 0Q74.44 0 73.94-1.03 73.44-2.05 73.44-3.3L73.44-3.3Q73.44-5.15 74.01-7.2 74.59-9.25 75.24-10.95L75.24-10.95Q74.94-10.65 74.04-9.65 73.14-8.65 71.94-7.35 70.74-6.05 69.59-4.78 68.44-3.5 67.66-2.6 66.89-1.7 66.84-1.5L66.84-1.5Q66.79-1.2 66.79-0.88 66.79-0.55 66.59-0.25L66.59-0.25Q66.49-0.1 65.84 0.23 65.19 0.55 64.51 0.83 63.84 1.1 63.59 1.1ZM91.14 0.4L91.14 0.4Q89.79 0.4 89.34-0.68 88.89-1.75 88.89-2.85L88.89-2.85Q88.89-4.1 89.09-5.35 89.29-6.6 89.54-7.8L89.54-7.8Q89.04-6.95 87.94-5.6 86.84-4.25 85.49-2.88 84.14-1.5 82.76-0.58 81.39 0.35 80.34 0.35L80.34 0.35Q79.74 0.35 79.56-0.05 79.39-0.45 79.39-0.95L79.39-0.95Q79.39-2 79.89-3.6 80.39-5.2 81.29-6.98 82.19-8.75 83.31-10.25 84.44-11.75 85.66-12.68 86.89-13.6 88.14-13.5L88.14-13.5Q88.69-13.8 89.34-14.05 89.99-14.3 90.64-14.3L90.64-14.3Q91.14-14.3 91.66-14.23 92.19-14.15 92.69-14.05L92.69-14.05Q92.94-14.15 93.24-14.25 93.54-14.35 93.84-14.35L93.84-14.35Q94.39-14.35 94.39-13.85L94.39-13.85Q94.39-13.6 94.11-12.88 93.84-12.15 93.51-11.53 93.19-10.9 92.99-10.8L92.99-10.8Q92.54-9.9 92.14-8.47 91.74-7.05 91.49-5.55 91.24-4.05 91.24-3L91.24-3Q91.24-2.45 91.41-1.78 91.59-1.1 92.34-1.1L92.34-1.1Q93.19-1.1 94.06-1.78 94.94-2.45 95.59-3.13 96.24-3.8 96.34-3.8L96.34-3.8Q96.44-3.8 96.44-3.7L96.44-3.7Q96.44-3.25 95.94-2.65 95.44-2.05 94.84-1.53 94.24-1 93.94-0.75L93.94-0.75Q93.34-0.3 92.61 0.05 91.89 0.4 91.14 0.4ZM82.09-1.35L82.09-1.35Q82.34-1.35 82.69-1.58 83.04-1.8 83.24-1.95L83.24-1.95Q86.24-4.1 87.94-6.9 89.64-9.7 91.24-12.9L91.24-12.9Q91.04-13 90.79-13.05 90.54-13.1 90.29-13.1L90.29-13.1Q89.34-13.1 88.41-12.6 87.49-12.1 86.89-11.4L86.89-11.4Q85.94-10.4 84.96-8.78 83.99-7.15 83.19-5.43 82.39-3.7 81.99-2.35L81.99-2.35Q81.94-2.2 81.89-2.05 81.84-1.9 81.84-1.7L81.84-1.7Q81.84-1.35 82.09-1.35ZM96.03 0.75L96.03 0.75Q95.68 0.75 95.73 0.5L95.73 0.5Q97.03-1.8 98.03-4.23 99.03-6.65 99.98-9.1L99.98-9.1 100.53-10.55Q100.53-10.7 100.28-10.65 100.03-10.6 100.03-10.8L100.03-10.8Q100.03-10.9 100.43-11.58 100.83-12.25 101.28-12.98 101.73-13.7 101.83-13.85L101.83-13.85Q102.03-14.15 102.73-14.45 103.43-14.75 103.78-14.75L103.78-14.75Q104.33-14.75 104.33-14.3L104.33-14.3Q104.33-14.15 104.28-14 104.23-13.85 104.18-13.75L104.18-13.75Q103.43-11.95 102.56-10.18 101.68-8.4 101.13-6.5L101.13-6.5Q102.58-8.25 104.31-9.93 106.03-11.6 107.83-13L107.83-13Q108.33-13.4 108.96-13.75 109.58-14.1 110.23-14.1L110.23-14.1Q111.03-14.1 111.23-13.53 111.43-12.95 111.43-12.35L111.43-12.35Q111.43-11.55 110.93-10.65 110.43-9.75 109.48-9.75L109.48-9.75Q109.08-9.75 109.08-10.05L109.08-10.05Q109.08-10.3 109.13-10.48 109.18-10.65 109.18-10.85L109.18-10.85Q109.18-11.1 108.98-11.45 108.78-11.8 108.53-11.8L108.53-11.8Q107.88-11.8 106.78-11 105.68-10.2 104.51-9.05 103.33-7.9 102.41-6.83 101.48-5.75 101.08-5.25L101.08-5.25Q100.53-4.45 100.13-3.63 99.73-2.8 99.48-1.95L99.48-1.95Q99.38-1.65 99.28-1.33 99.18-1 99.08-0.75L99.08-0.75Q98.98-0.5 98.33-0.13 97.68 0.25 97.01 0.5 96.33 0.75 96.03 0.75ZM111.83 0.35L111.83 0.35Q110.73 0.35 110.38 0 110.03-0.35 110.03-1.45L110.03-1.45Q110.03-2.65 110.61-4.2 111.18-5.75 111.68-6.8L111.68-6.8Q111.68-6.85 111.66-6.88 111.63-6.9 111.63-6.95L111.63-6.95Q111.63-7.2 111.81-7.35 111.98-7.5 112.08-7.65L112.08-7.65Q112.33-8.05 112.53-8.45 112.73-8.85 112.93-9.2L112.93-9.2Q113.78-10.55 115.01-11.8 116.23-13.05 117.78-13.5L117.78-13.5Q118.33-13.65 118.83-13.65L118.83-13.65Q118.93-13.65 119.06-13.63 119.18-13.6 119.18-13.5L119.18-13.5Q119.18-13.35 118.91-13.15 118.63-12.95 118.53-12.85L118.53-12.85Q117.73-12.2 116.81-10.85 115.88-9.5 115.33-8.65L115.33-8.65Q116.48-8.85 117.61-8.95 118.73-9.05 119.83-8.95L119.83-8.95Q120.38-9.75 120.86-10.93 121.33-12.1 121.33-13.1L121.33-13.1Q121.33-13.65 121.21-13.75 121.08-13.85 120.63-13.85L120.63-13.85Q120.53-13.85 120.33-13.9 120.13-13.95 120.13-14.1L120.13-14.1Q120.13-14.3 120.58-14.45 121.03-14.6 121.53-14.68 122.03-14.75 122.18-14.75L122.18-14.75Q123.53-14.75 123.53-13.5L123.53-13.5Q123.53-12.8 123.11-11.83 122.68-10.85 122.06-10.03 121.43-9.2 120.83-8.85L120.83-8.85Q120.98-8.85 121.46-8.72 121.93-8.6 122.36-8.45 122.78-8.3 122.78-8.1L122.78-8.1Q122.78-7.95 122.48-7.93 122.18-7.9 122.08-7.9L122.08-7.9Q121.63-7.9 121.18-7.98 120.73-8.05 120.28-8.05L120.28-8.05Q118.88-8.05 117.46-7.85 116.03-7.65 114.63-7.35L114.63-7.35Q114.13-6.45 113.51-5.05 112.88-3.65 112.88-2.55L112.88-2.55Q112.88-0.8 114.68-0.8L114.68-0.8Q115.98-0.8 117.21-1.5 118.43-2.2 119.48-3.15 120.53-4.1 121.18-4.8 121.83-5.5 121.93-5.5L121.93-5.5Q122.08-5.5 122.08-5.3L122.08-5.3Q122.08-4.7 121.38-3.88 120.68-3.05 120.23-2.7L120.23-2.7Q118.48-1.35 116.31-0.5 114.13 0.35 111.83 0.35Z" opacity="1" transform="matrix(1,0,0,1,0,0)" fill="#ffffff" class="wordmark-text-0" data-fill-palette-color="primary"></path></svg></g><g><svg xmlns="http://www.w3.org/2000/svg" xmlns:xlink="http://www.w3.org/1999/xlink" xml:space="preserve" version="1.1" style="shape-rendering:geometricPrecision;text-rendering:geometricPrecision;image-rendering:optimizeQuality;" viewBox="0 0 6532 6532" x="211.1706" y="0" fill-rule="evenodd" clip-rule="evenodd" height="50.80519999999999" width="50.80519999999999" class="icon-dxe-0" data-fill-palette-color="accent" id="dxe-0"><g fill="#e77917" data-fill-palette-color="accent"><path class="" d="M3266 0C4168 0 4984 366 5575 957S6532 2364 6532 3266 6166 4984 5575 5575 4168 6532 3266 6532 1548 6166 957 5575 0 4168 0 3266 366 1548 957 957 2364 0 3266 0M5383 1149C4841 608 4093 272 3266 272S1691 608 1149 1149C608 1691 272 2439 272 3266S608 4841 1149 5383C1691 5924 2439 6260 3266 6260S4841 5924 5383 5383C5924 4841 6260 4093 6260 3266S5924 1691 5383 1149M3266 1429C3446 1429 3610 1502 3728 1621 3847 1739 3921 1903 3921 2083 3921 2264 3847 2427 3729 2546 3721 2554 3712 2562 3704 2570L4325 3647C4389 3626 4457 3615 4528 3615 4709 3615 4873 3688 4991 3807 5110 3925 5183 4089 5183 4270 5183 4450 5110 4614 4991 4733 4872 4851 4709 4924 4528 4924S4184 4851 4065 4733C3977 4645 3914 4532 3888 4406H2644C2617 4532 2554 4644 2467 4732 2348 4851 2184 4924 2004 4924 1823 4924 1660 4851 1541 4733 1422 4614 1349 4450 1349 4270 1349 4089 1422 3925 1541 3807S1824 3615 2004 3615C2075 3615 2143 3626 2207 3647L2828 2570C2820 2563 2811 2555 2803 2547 2684 2428 2611 2264 2611 2083 2611 1903 2684 1739 2803 1621 2922 1502 3086 1429 3266 1429M3469 2706C3405 2727 3337 2738 3266 2738S3127 2727 3063 2706L2441 3783C2450 3791 2458 3799 2466 3807 2554 3895 2617 4008 2644 4134H3888C3914 4007 3977 3895 4065 3807 4073 3799 4082 3791 4090 3783L3779 3244zM2274 3999C2205 3930 2110 3887 2004 3887S1802 3930 1733 3999 1621 4164 1621 4270C1621 4375 1664 4471 1733 4540S1898 4652 2004 4652 2205 4609 2274 4541C2343 4471 2386 4376 2386 4270S2343 4068 2274 3999M4799 3999C4730 3930 4634 3887 4528 3887 4423 3887 4327 3930 4258 3999S4146 4164 4146 4270C4146 4375 4189 4471 4258 4540S4423 4652 4528 4652C4634 4652 4730 4609 4799 4540S4911 4375 4911 4270C4911 4164 4868 4068 4799 3999M3537 1813C3468 1744 3372 1701 3266 1701S3064 1744 2995 1813 2883 1978 2883 2083C2883 2189 2926 2285 2996 2354 3065 2423 3160 2466 3266 2466S3468 2423 3537 2354 3648 2189 3648 2083C3648 1978 3606 1882 3537 1813" fill="#ffffff" fill-rule="nonzero" data-fill-palette-color="accent"></path></g></svg></g></svg></g></svg></g><g transform="matrix(1,0,0,1,50.0373778,62.79908839519999)"><svg viewBox="0 0 161.9010444 11.603971070628532" height="11.603971070628532" width="161.9010444"><g transform="matrix(1,0,0,1,0,0)"><svg width="161.9010444" viewBox="3.0999999999999996 -35 583.84 41.85" height="11.603971070628532" data-palette-color="#130912"><path d="M18.25 0.65L18.25 0.65Q14.7 0.65 11.88-0.45 9.05-1.55 7.1-3.7 5.15-5.85 4.13-8.97 3.1-12.1 3.1-16.1L3.1-16.1Q3.1-20.15 4.15-23.38 5.2-26.6 7.15-28.9 9.1-31.2 11.85-32.43 14.6-33.65 18-33.65L18-33.65Q20.6-33.65 22.8-32.93 25-32.2 26.63-30.83 28.25-29.45 29.15-27.5 30.05-25.55 30.1-23.15L30.1-23.15 25.75-22.05Q25.8-24.6 24.7-26.28 23.6-27.95 21.8-28.8 20-29.65 17.9-29.65L17.9-29.65Q15.95-29.65 14.13-28.88 12.3-28.1 10.9-26.48 9.5-24.85 8.68-22.33 7.85-19.8 7.85-16.25L7.85-16.25Q7.85-11.7 9.18-8.9 10.5-6.1 12.9-4.78 15.3-3.45 18.45-3.45L18.45-3.45Q21.5-3.45 23.35-4.58 25.2-5.7 26.1-7.73 27-9.75 27.15-12.4L27.15-12.4 31.25-11.65Q31.2-9.15 30.45-6.9 29.7-4.65 28.15-2.95 26.6-1.25 24.15-0.3 21.7 0.65 18.25 0.65ZM48.35 0.65L48.35 0.65Q44.65 0.65 41.82-0.98 39-2.6 37.42-5.65 35.85-8.7 35.85-13.05L35.85-13.05Q35.85-17.55 37.52-20.53 39.2-23.5 42-25 44.8-26.5 48.25-26.5L48.25-26.5Q51.85-26.5 54.67-24.93 57.5-23.35 59.15-20.33 60.8-17.3 60.8-12.85L60.8-12.85Q60.8-8.4 59.17-5.4 57.55-2.4 54.72-0.88 51.9 0.65 48.35 0.65ZM48.55-3.1L48.55-3.1Q50.95-3.1 52.67-4.28 54.4-5.45 55.32-7.6 56.25-9.75 56.25-12.7L56.25-12.7Q56.25-15.75 55.27-17.98 54.3-20.2 52.5-21.43 50.7-22.65 48.15-22.65L48.15-22.65Q45.8-22.65 44.07-21.55 42.35-20.45 41.4-18.32 40.45-16.2 40.45-13.15L40.45-13.15Q40.45-8.45 42.62-5.78 44.8-3.1 48.55-3.1ZM71.85 0L67.3 0 67.3-35 71.85-35 71.85 0ZM84.24 0L79.69 0 79.69-35 84.24-35 84.24 0ZM98.04 0.65L98.04 0.65Q95.94 0.65 94.24-0.18 92.54-1 91.54-2.63 90.54-4.25 90.54-6.75L90.54-6.75Q90.54-8.6 91.22-10 91.89-11.4 93.32-12.4 94.74-13.4 96.99-14.05 99.24-14.7 102.49-15.15L102.49-15.15Q104.34-15.4 105.52-15.65 106.69-15.9 107.24-16.48 107.79-17.05 107.79-18.2L107.79-18.2Q107.79-20.1 106.49-21.4 105.19-22.7 102.39-22.7L102.39-22.7Q100.94-22.7 99.44-22.2 97.94-21.7 96.82-20.53 95.69-19.35 95.39-17.25L95.39-17.25 91.19-18.65Q91.59-20.45 92.52-21.9 93.44-23.35 94.89-24.38 96.34-25.4 98.27-25.95 100.19-26.5 102.54-26.5L102.54-26.5Q105.79-26.5 107.97-25.4 110.14-24.3 111.22-22.03 112.29-19.75 112.29-16.2L112.29-16.2 112.29-10.45Q112.29-8.9 112.37-7.08 112.44-5.25 112.59-3.43 112.74-1.6 112.89 0L112.89 0 108.69 0Q108.54-1.6 108.42-3.2 108.29-4.8 108.24-6.4L108.24-6.4 107.59-6.4Q106.84-4.55 105.59-2.95 104.34-1.35 102.47-0.35 100.59 0.65 98.04 0.65ZM99.39-3.05L99.39-3.05Q100.49-3.05 101.62-3.4 102.74-3.75 103.87-4.55 104.99-5.35 106.02-6.6 107.04-7.85 107.84-9.6L107.84-9.6 107.84-14.6 109.14-14.35Q108.34-13.55 107.02-13.15 105.69-12.75 104.09-12.5 102.49-12.25 100.89-11.98 99.29-11.7 97.97-11.18 96.64-10.65 95.84-9.7 95.04-8.75 95.04-7.1L95.04-7.1Q95.04-5.1 96.24-4.08 97.44-3.05 99.39-3.05ZM133.34 0.65L133.34 0.65Q130.84 0.65 129.06-0.35 127.29-1.35 126.21-3.08 125.14-4.8 124.59-7L124.59-7 123.79-7 124.04 0 119.94 0 119.94-12.75 119.94-35 124.54-35 124.54-26.9Q124.54-25.6 124.41-24.18 124.29-22.75 124.06-21.25 123.84-19.75 123.59-18.35L123.59-18.35 124.49-18.35Q125.04-20.45 126.09-22.3 127.14-24.15 128.91-25.3 130.69-26.45 133.34-26.45L133.34-26.45Q136.64-26.45 138.96-24.73 141.29-23 142.54-19.95 143.79-16.9 143.79-12.85L143.79-12.85Q143.79-8.95 142.56-5.9 141.34-2.85 139.01-1.1 136.69 0.65 133.34 0.65ZM132.24-3.35L132.24-3.35Q134.39-3.35 135.89-4.5 137.39-5.65 138.21-7.8 139.04-9.95 139.04-12.8L139.04-12.8Q139.04-15.6 138.24-17.78 137.44-19.95 135.94-21.23 134.44-22.5 132.24-22.5L132.24-22.5Q130.64-22.5 129.39-21.88 128.14-21.25 127.21-20.2 126.29-19.15 125.69-17.9 125.09-16.65 124.79-15.4 124.49-14.15 124.49-13.1L124.49-13.1 124.49-12.5Q124.49-11 125.01-9.4 125.54-7.8 126.54-6.43 127.54-5.05 128.99-4.2 130.44-3.35 132.24-3.35ZM161.44 0.65L161.44 0.65Q157.74 0.65 154.91-0.98 152.09-2.6 150.51-5.65 148.94-8.7 148.94-13.05L148.94-13.05Q148.94-17.55 150.61-20.53 152.29-23.5 155.09-25 157.89-26.5 161.34-26.5L161.34-26.5Q164.94-26.5 167.76-24.93 170.59-23.35 172.24-20.33 173.89-17.3 173.89-12.85L173.89-12.85Q173.89-8.4 172.26-5.4 170.64-2.4 167.81-0.88 164.99 0.65 161.44 0.65ZM161.64-3.1L161.64-3.1Q164.04-3.1 165.76-4.28 167.49-5.45 168.41-7.6 169.34-9.75 169.34-12.7L169.34-12.7Q169.34-15.75 168.36-17.98 167.39-20.2 165.59-21.43 163.79-22.65 161.24-22.65L161.24-22.65Q158.89-22.65 157.16-21.55 155.44-20.45 154.49-18.32 153.54-16.2 153.54-13.15L153.54-13.15Q153.54-8.45 155.71-5.78 157.89-3.1 161.64-3.1ZM184.93 0L180.38 0 180.38-14 180.38-25.85 184.48-25.85 184.08-16.85 184.93-16.85Q185.38-19.8 186.33-21.95 187.28-24.1 188.86-25.3 190.43-26.5 192.78-26.5L192.78-26.5Q193.28-26.5 193.93-26.43 194.58-26.35 195.43-26.05L195.43-26.05 195.18-21.3Q194.43-21.6 193.68-21.73 192.93-21.85 192.23-21.85L192.23-21.85Q190.28-21.85 188.86-20.6 187.43-19.35 186.48-17.23 185.53-15.1 184.93-12.45L184.93-12.45 184.93 0ZM206.28 0.65L206.28 0.65Q204.18 0.65 202.48-0.18 200.78-1 199.78-2.63 198.78-4.25 198.78-6.75L198.78-6.75Q198.78-8.6 199.46-10 200.13-11.4 201.56-12.4 202.98-13.4 205.23-14.05 207.48-14.7 210.73-15.15L210.73-15.15Q212.58-15.4 213.76-15.65 214.93-15.9 215.48-16.48 216.03-17.05 216.03-18.2L216.03-18.2Q216.03-20.1 214.73-21.4 213.43-22.7 210.63-22.7L210.63-22.7Q209.18-22.7 207.68-22.2 206.18-21.7 205.06-20.53 203.93-19.35 203.63-17.25L203.63-17.25 199.43-18.65Q199.83-20.45 200.76-21.9 201.68-23.35 203.13-24.38 204.58-25.4 206.51-25.95 208.43-26.5 210.78-26.5L210.78-26.5Q214.03-26.5 216.21-25.4 218.38-24.3 219.46-22.03 220.53-19.75 220.53-16.2L220.53-16.2 220.53-10.45Q220.53-8.9 220.61-7.08 220.68-5.25 220.83-3.43 220.98-1.6 221.13 0L221.13 0 216.93 0Q216.78-1.6 216.66-3.2 216.53-4.8 216.48-6.4L216.48-6.4 215.83-6.4Q215.08-4.55 213.83-2.95 212.58-1.35 210.71-0.35 208.83 0.65 206.28 0.65ZM207.63-3.05L207.63-3.05Q208.73-3.05 209.86-3.4 210.98-3.75 212.11-4.55 213.23-5.35 214.26-6.6 215.28-7.85 216.08-9.6L216.08-9.6 216.08-14.6 217.38-14.35Q216.58-13.55 215.26-13.15 213.93-12.75 212.33-12.5 210.73-12.25 209.13-11.98 207.53-11.7 206.21-11.18 204.88-10.65 204.08-9.7 203.28-8.75 203.28-7.1L203.28-7.1Q203.28-5.1 204.48-4.08 205.68-3.05 207.63-3.05ZM236.23 0.5L236.23 0.5Q232.63 0.5 230.88-1.45 229.13-3.4 229.13-7.4L229.13-7.4 229.13-22.05 225.23-22.05 225.28-25.85 227.73-25.85Q228.98-25.85 229.55-26.3 230.13-26.75 230.23-27.8L230.23-27.8 230.73-31.7 233.53-31.7 233.53-25.85 240.98-25.85 240.98-22 233.53-22 233.53-7.5Q233.53-5.5 234.45-4.63 235.38-3.75 237.13-3.75L237.13-3.75Q238.08-3.75 239.1-4 240.13-4.25 241.13-5L241.13-5 241.13-0.45Q239.68 0.1 238.45 0.3 237.23 0.5 236.23 0.5ZM257.83 0.65L257.83 0.65Q254.78 0.65 252.45-0.28 250.13-1.2 248.53-2.95 246.93-4.7 246.13-7.1 245.33-9.5 245.33-12.5L245.33-12.5Q245.33-15.55 246.13-18.1 246.93-20.65 248.48-22.55 250.03-24.45 252.28-25.48 254.53-26.5 257.43-26.5L257.43-26.5Q259.98-26.5 262.08-25.65 264.18-24.8 265.65-23.03 267.13-21.25 267.88-18.57 268.63-15.9 268.48-12.3L268.48-12.3 248.18-12.15 248.18-15.25 265.73-15.4 264.18-13.3Q264.43-16.45 263.58-18.5 262.73-20.55 261.15-21.6 259.58-22.65 257.43-22.65L257.43-22.65Q255.13-22.65 253.38-21.45 251.63-20.25 250.7-18 249.78-15.75 249.78-12.55L249.78-12.55Q249.78-7.95 251.83-5.53 253.88-3.1 257.88-3.1L257.88-3.1Q259.48-3.1 260.65-3.48 261.83-3.85 262.65-4.53 263.48-5.2 264-6.1 264.53-7 264.83-8.05L264.83-8.05 268.83-7.1Q268.38-5.3 267.45-3.88 266.53-2.45 265.15-1.45 263.78-0.45 261.98 0.1 260.18 0.65 257.83 0.65ZM274.82 6.85L271.02 6.85Q271.92 4.5 272.3 2.65 272.67 0.8 272.75-0.83 272.82-2.45 272.82-4.05L272.82-4.05 277.17-4.05Q277.17-1.45 276.85 0.58 276.52 2.6 275.97 4.13 275.42 5.65 274.82 6.85L274.82 6.85ZM309.32 0.65L309.32 0.65Q305.77 0.65 302.94-0.45 300.12-1.55 298.17-3.7 296.22-5.85 295.19-8.97 294.17-12.1 294.17-16.1L294.17-16.1Q294.17-20.15 295.22-23.38 296.27-26.6 298.22-28.9 300.17-31.2 302.92-32.43 305.67-33.65 309.07-33.65L309.07-33.65Q311.67-33.65 313.87-32.93 316.07-32.2 317.69-30.83 319.32-29.45 320.22-27.5 321.12-25.55 321.17-23.15L321.17-23.15 316.82-22.05Q316.87-24.6 315.77-26.28 314.67-27.95 312.87-28.8 311.07-29.65 308.97-29.65L308.97-29.65Q307.02-29.65 305.19-28.88 303.37-28.1 301.97-26.48 300.57-24.85 299.74-22.33 298.92-19.8 298.92-16.25L298.92-16.25Q298.92-11.7 300.24-8.9 301.57-6.1 303.97-4.78 306.37-3.45 309.52-3.45L309.52-3.45Q312.57-3.45 314.42-4.58 316.27-5.7 317.17-7.73 318.07-9.75 318.22-12.4L318.22-12.4 322.32-11.65Q322.27-9.15 321.52-6.9 320.77-4.65 319.22-2.95 317.67-1.25 315.22-0.3 312.77 0.65 309.32 0.65ZM339.42 0.65L339.42 0.65Q335.72 0.65 332.89-0.98 330.07-2.6 328.49-5.65 326.92-8.7 326.92-13.05L326.92-13.05Q326.92-17.55 328.59-20.53 330.27-23.5 333.07-25 335.87-26.5 339.32-26.5L339.32-26.5Q342.92-26.5 345.74-24.93 348.57-23.35 350.22-20.33 351.87-17.3 351.87-12.85L351.87-12.85Q351.87-8.4 350.24-5.4 348.62-2.4 345.79-0.88 342.97 0.65 339.42 0.65ZM339.62-3.1L339.62-3.1Q342.02-3.1 343.74-4.28 345.47-5.45 346.39-7.6 347.32-9.75 347.32-12.7L347.32-12.7Q347.32-15.75 346.34-17.98 345.37-20.2 343.57-21.43 341.77-22.65 339.22-22.65L339.22-22.65Q336.87-22.65 335.14-21.55 333.42-20.45 332.47-18.32 331.52-16.2 331.52-13.15L331.52-13.15Q331.52-8.45 333.69-5.78 335.87-3.1 339.62-3.1ZM367.46 0.65L367.46 0.65Q364.16 0.65 361.81-1.1 359.46-2.85 358.24-5.9 357.01-8.95 357.01-12.9L357.01-12.9Q357.01-16.85 358.21-19.9 359.41-22.95 361.71-24.7 364.01-26.45 367.36-26.45L367.36-26.45Q370.11-26.45 371.86-25.3 373.61-24.15 374.69-22.33 375.76-20.5 376.26-18.35L376.26-18.35 377.16-18.35Q376.91-19.8 376.71-21.38 376.51-22.95 376.36-24.48 376.21-26 376.21-27.2L376.21-27.2 376.21-35 380.81-35 380.81-12.75 380.81 0 376.71 0 376.96-7 376.16-7Q375.56-4.75 374.46-3.03 373.36-1.3 371.66-0.33 369.96 0.65 367.46 0.65ZM368.51-3.35L368.51-3.35Q370.31-3.35 371.76-4.2 373.21-5.05 374.21-6.43 375.21-7.8 375.74-9.4 376.26-11 376.26-12.5L376.26-12.5 376.26-13.1Q376.26-14.15 375.96-15.38 375.66-16.6 375.09-17.85 374.51-19.1 373.59-20.18 372.66-21.25 371.41-21.88 370.16-22.5 368.61-22.5L368.61-22.5Q366.36-22.5 364.84-21.23 363.31-19.95 362.54-17.75 361.76-15.55 361.76-12.8L361.76-12.8Q361.76-9.95 362.56-7.83 363.36-5.7 364.89-4.53 366.41-3.35 368.51-3.35ZM399.81 0.65L399.81 0.65Q396.76 0.65 394.44-0.28 392.11-1.2 390.51-2.95 388.91-4.7 388.11-7.1 387.31-9.5 387.31-12.5L387.31-12.5Q387.31-15.55 388.11-18.1 388.91-20.65 390.46-22.55 392.01-24.45 394.26-25.48 396.51-26.5 399.41-26.5L399.41-26.5Q401.96-26.5 404.06-25.65 406.16-24.8 407.64-23.03 409.11-21.25 409.86-18.57 410.61-15.9 410.46-12.3L410.46-12.3 390.16-12.15 390.16-15.25 407.71-15.4 406.16-13.3Q406.41-16.45 405.56-18.5 404.71-20.55 403.14-21.6 401.56-22.65 399.41-22.65L399.41-22.65Q397.11-22.65 395.36-21.45 393.61-20.25 392.69-18 391.76-15.75 391.76-12.55L391.76-12.55Q391.76-7.95 393.81-5.53 395.86-3.1 399.86-3.1L399.86-3.1Q401.46-3.1 402.64-3.48 403.81-3.85 404.64-4.53 405.46-5.2 405.99-6.1 406.51-7 406.81-8.05L406.81-8.05 410.81-7.1Q410.36-5.3 409.44-3.88 408.51-2.45 407.14-1.45 405.76-0.45 403.96 0.1 402.16 0.65 399.81 0.65ZM416.81 6.85L413.01 6.85Q413.91 4.5 414.28 2.65 414.66 0.8 414.73-0.83 414.81-2.45 414.81-4.05L414.81-4.05 419.16-4.05Q419.16-1.45 418.83 0.58 418.51 2.6 417.96 4.13 417.41 5.65 416.81 6.85L416.81 6.85ZM451.3 0.65L451.3 0.65Q447.75 0.65 444.93-0.45 442.1-1.55 440.15-3.7 438.2-5.85 437.18-8.97 436.15-12.1 436.15-16.1L436.15-16.1Q436.15-20.15 437.2-23.38 438.25-26.6 440.2-28.9 442.15-31.2 444.9-32.43 447.65-33.65 451.05-33.65L451.05-33.65Q453.65-33.65 455.85-32.93 458.05-32.2 459.68-30.83 461.3-29.45 462.2-27.5 463.1-25.55 463.15-23.15L463.15-23.15 458.8-22.05Q458.85-24.6 457.75-26.28 456.65-27.95 454.85-28.8 453.05-29.65 450.95-29.65L450.95-29.65Q449-29.65 447.18-28.88 445.35-28.1 443.95-26.48 442.55-24.85 441.73-22.33 440.9-19.8 440.9-16.25L440.9-16.25Q440.9-11.7 442.23-8.9 443.55-6.1 445.95-4.78 448.35-3.45 451.5-3.45L451.5-3.45Q454.55-3.45 456.4-4.58 458.25-5.7 459.15-7.73 460.05-9.75 460.2-12.4L460.2-12.4 464.3-11.65Q464.25-9.15 463.5-6.9 462.75-4.65 461.2-2.95 459.65-1.25 457.2-0.3 454.75 0.65 451.3 0.65ZM474.85 0L470.3 0 470.3-14 470.3-25.85 474.4-25.85 474-16.85 474.85-16.85Q475.3-19.8 476.25-21.95 477.2-24.1 478.78-25.3 480.35-26.5 482.7-26.5L482.7-26.5Q483.2-26.5 483.85-26.43 484.5-26.35 485.35-26.05L485.35-26.05 485.1-21.3Q484.35-21.6 483.6-21.73 482.85-21.85 482.15-21.85L482.15-21.85Q480.2-21.85 478.78-20.6 477.35-19.35 476.4-17.23 475.45-15.1 474.85-12.45L474.85-12.45 474.85 0ZM501.35 0.65L501.35 0.65Q498.3 0.65 495.97-0.28 493.65-1.2 492.05-2.95 490.45-4.7 489.65-7.1 488.85-9.5 488.85-12.5L488.85-12.5Q488.85-15.55 489.65-18.1 490.45-20.65 492-22.55 493.55-24.45 495.8-25.48 498.05-26.5 500.95-26.5L500.95-26.5Q503.5-26.5 505.6-25.65 507.7-24.8 509.17-23.03 510.65-21.25 511.4-18.57 512.15-15.9 512-12.3L512-12.3 491.7-12.15 491.7-15.25 509.25-15.4 507.7-13.3Q507.95-16.45 507.1-18.5 506.25-20.55 504.67-21.6 503.1-22.65 500.95-22.65L500.95-22.65Q498.65-22.65 496.9-21.45 495.15-20.25 494.22-18 493.3-15.75 493.3-12.55L493.3-12.55Q493.3-7.95 495.35-5.53 497.4-3.1 501.4-3.1L501.4-3.1Q503-3.1 504.17-3.48 505.35-3.85 506.17-4.53 507-5.2 507.52-6.1 508.05-7 508.35-8.05L508.35-8.05 512.35-7.1Q511.9-5.3 510.97-3.88 510.05-2.45 508.67-1.45 507.3-0.45 505.5 0.1 503.7 0.65 501.35 0.65ZM524.39 0.65L524.39 0.65Q522.29 0.65 520.6-0.18 518.89-1 517.89-2.63 516.89-4.25 516.89-6.75L516.89-6.75Q516.89-8.6 517.57-10 518.25-11.4 519.67-12.4 521.1-13.4 523.35-14.05 525.6-14.7 528.85-15.15L528.85-15.15Q530.7-15.4 531.87-15.65 533.04-15.9 533.6-16.48 534.14-17.05 534.14-18.2L534.14-18.2Q534.14-20.1 532.85-21.4 531.54-22.7 528.75-22.7L528.75-22.7Q527.29-22.7 525.79-22.2 524.29-21.7 523.17-20.53 522.04-19.35 521.75-17.25L521.75-17.25 517.54-18.65Q517.95-20.45 518.87-21.9 519.79-23.35 521.25-24.38 522.7-25.4 524.62-25.95 526.54-26.5 528.89-26.5L528.89-26.5Q532.14-26.5 534.32-25.4 536.5-24.3 537.57-22.03 538.64-19.75 538.64-16.2L538.64-16.2 538.64-10.45Q538.64-8.9 538.72-7.08 538.79-5.25 538.95-3.43 539.1-1.6 539.25 0L539.25 0 535.04 0Q534.89-1.6 534.77-3.2 534.64-4.8 534.6-6.4L534.6-6.4 533.95-6.4Q533.2-4.55 531.95-2.95 530.7-1.35 528.82-0.35 526.95 0.65 524.39 0.65ZM525.75-3.05L525.75-3.05Q526.85-3.05 527.97-3.4 529.1-3.75 530.22-4.55 531.35-5.35 532.37-6.6 533.39-7.85 534.2-9.6L534.2-9.6 534.2-14.6 535.5-14.35Q534.7-13.55 533.37-13.15 532.04-12.75 530.45-12.5 528.85-12.25 527.25-11.98 525.64-11.7 524.32-11.18 523-10.65 522.2-9.7 521.39-8.75 521.39-7.1L521.39-7.1Q521.39-5.1 522.6-4.08 523.79-3.05 525.75-3.05ZM554.34 0.5L554.34 0.5Q550.74 0.5 548.99-1.45 547.24-3.4 547.24-7.4L547.24-7.4 547.24-22.05 543.34-22.05 543.39-25.85 545.84-25.85Q547.09-25.85 547.67-26.3 548.24-26.75 548.34-27.8L548.34-27.8 548.84-31.7 551.64-31.7 551.64-25.85 559.09-25.85 559.09-22 551.64-22 551.64-7.5Q551.64-5.5 552.57-4.63 553.49-3.75 555.24-3.75L555.24-3.75Q556.19-3.75 557.22-4 558.24-4.25 559.24-5L559.24-5 559.24-0.45Q557.79 0.1 556.57 0.3 555.34 0.5 554.34 0.5ZM575.94 0.65L575.94 0.65Q572.89 0.65 570.56-0.28 568.24-1.2 566.64-2.95 565.04-4.7 564.24-7.1 563.44-9.5 563.44-12.5L563.44-12.5Q563.44-15.55 564.24-18.1 565.04-20.65 566.59-22.55 568.14-24.45 570.39-25.48 572.64-26.5 575.54-26.5L575.54-26.5Q578.09-26.5 580.19-25.65 582.29-24.8 583.76-23.03 585.24-21.25 585.99-18.57 586.74-15.9 586.59-12.3L586.59-12.3 566.29-12.15 566.29-15.25 583.84-15.4 582.29-13.3Q582.54-16.45 581.69-18.5 580.84-20.55 579.26-21.6 577.69-22.65 575.54-22.65L575.54-22.65Q573.24-22.65 571.49-21.45 569.74-20.25 568.81-18 567.89-15.75 567.89-12.55L567.89-12.55Q567.89-7.95 569.94-5.53 571.99-3.1 575.99-3.1L575.99-3.1Q577.59-3.1 578.76-3.48 579.94-3.85 580.76-4.53 581.59-5.2 582.11-6.1 582.64-7 582.94-8.05L582.94-8.05 586.94-7.1Q586.49-5.3 585.56-3.88 584.64-2.45 583.26-1.45 581.89-0.45 580.09 0.1 578.29 0.65 575.94 0.65Z" opacity="1" transform="matrix(1,0,0,1,0,0)" fill="#ffffff" class="slogan-text-1" data-fill-palette-color="secondary" id="text-1"></path></svg></g></svg></g></svg></g></svg></g><g></g></svg></g><defs></defs></svg><rect width="261.9758" height="74.40305946582852" fill="none" stroke="none" visibility="hidden"></rect></g></svg></g></svg>