<svg xmlns="http://www.w3.org/2000/svg" version="1.1" xmlns:xlink="http://www.w3.org/1999/xlink" xmlns:svgjs="http://svgjs.dev/svgjs" width="2000" height="691" viewBox="0 0 2000 691"><g transform="matrix(1,0,0,1,-2.446808510638334,-0.9618188461538466)"><svg viewBox="0 0 376 130" data-background-color="#ffffff" preserveAspectRatio="xMidYMid meet" height="691" width="2000" xmlns="http://www.w3.org/2000/svg" xmlns:xlink="http://www.w3.org/1999/xlink"><g id="tight-bounds" transform="matrix(1,0,0,1,0.46023999999999887,0.18094999999999573)"><svg viewBox="0 0 375.07953 129.63792" height="129.63792" width="375.07953"><g><svg></svg></g><g><svg viewBox="0 0 375.07953 129.63792" height="129.63792" width="375.07953"><g transform="matrix(1,0,0,1,-10.22024,-62.2659)"><path d="M10.22 184.934v-122.668h375.08v122.668l-22.898 0 0-4.106h18.791v-114.456h-366.866v114.456h18.791l0 4.106z" fill="#a3c0c4" fill-rule="nonzero" stroke="none" stroke-width="1" stroke-linecap="butt" stroke-linejoin="miter" stroke-miterlimit="10" stroke-dasharray="" stroke-dashoffset="0" font-family="none" font-weight="none" font-size="none" text-anchor="none" style="mix-blend-mode: normal" data-fill-palette-color="tertiary"></path><g><path d="M54.423 171.039v0c1.636 0 3.263 0.321 4.881 0.962v0l-0.657 1.781c-1.636-0.562-3.064-0.844-4.286-0.844v0c-1.011 0-1.948 0.2-2.81 0.601-0.863 0.397-1.579 0.932-2.149 1.604-0.569 0.669-1.015 1.436-1.335 2.299-0.321 0.863-0.481 1.767-0.481 2.712v0c0 0.977 0.171 1.905 0.512 2.785 0.342 0.88 0.82 1.651 1.434 2.313 0.618 0.659 1.384 1.184 2.298 1.574 0.911 0.386 1.91 0.58 2.997 0.58v0c1.298 0 2.65-0.254 4.058-0.761v0l0.658 1.594c-1.76 0.759-3.513 1.139-5.259 1.139v0c-1.077 0-2.088-0.157-3.034-0.471-0.942-0.311-1.765-0.745-2.469-1.305-0.704-0.562-1.308-1.227-1.811-1.992-0.507-0.766-0.889-1.61-1.144-2.532-0.259-0.925-0.388-1.896-0.389-2.914v0c0-1.725 0.361-3.275 1.082-4.648 0.721-1.373 1.769-2.462 3.142-3.266 1.373-0.807 2.961-1.211 4.762-1.211zM68.021 176.401v0c1.729 0 3.151 0.55 4.265 1.651 1.118 1.104 1.677 2.63 1.677 4.576v0c0 2.064-0.571 3.704-1.713 4.923-1.142 1.218-2.619 1.827-4.431 1.827v0c-1.725 0-3.137-0.571-4.234-1.713-1.094-1.142-1.641-2.69-1.641-4.644v0c0-2.015 0.557-3.623 1.672-4.824 1.118-1.197 2.586-1.796 4.405-1.796zM67.845 178.166v0c-1.035 0-1.941 0.4-2.717 1.201-0.776 0.801-1.165 1.9-1.165 3.297v0c0 1.391 0.38 2.562 1.139 3.515 0.759 0.952 1.741 1.429 2.945 1.429v0c1.111 0 2.038-0.421 2.78-1.263 0.742-0.842 1.113-1.941 1.113-3.298v0c0-0.776-0.121-1.48-0.363-2.112-0.238-0.631-0.554-1.146-0.947-1.542-0.39-0.397-0.825-0.701-1.304-0.911-0.483-0.21-0.977-0.316-1.481-0.316zM78.13 189.124v-19.095h2.076v19.095zM85.258 189.124v-19.095h2.076v19.095zM96.268 176.401v0c0.925 0 1.71 0.107 2.355 0.321 0.645 0.214 1.142 0.528 1.491 0.942 0.349 0.411 0.599 0.87 0.75 1.377 0.152 0.504 0.228 1.085 0.228 1.744v0 8.339h-1.465l-0.481-1.139c-1.018 0.928-2.188 1.392-3.51 1.393v0c-1.18 0-2.179-0.355-2.997-1.066-0.818-0.714-1.227-1.548-1.227-2.501v0c0-0.504 0.093-0.958 0.28-1.361 0.186-0.407 0.454-0.745 0.802-1.014 0.349-0.269 0.747-0.499 1.196-0.689 0.445-0.19 0.965-0.335 1.558-0.435 0.594-0.1 1.191-0.171 1.791-0.212 0.597-0.045 1.254-0.067 1.972-0.067v0-0.984c0-0.286-0.012-0.535-0.036-0.745-0.021-0.21-0.09-0.464-0.207-0.761-0.117-0.293-0.278-0.535-0.482-0.725-0.2-0.19-0.502-0.354-0.905-0.491-0.407-0.138-0.889-0.207-1.445-0.207v0c-0.859 0-1.97 0.188-3.333 0.564v0l-0.393-1.517c1.38-0.511 2.733-0.766 4.058-0.766zM99.011 186.469v-2.868h-0.771c-0.483 0-0.901 0.009-1.253 0.026-0.355 0.017-0.771 0.066-1.247 0.145-0.476 0.079-0.864 0.192-1.165 0.336-0.304 0.141-0.564 0.35-0.782 0.627-0.214 0.273-0.321 0.599-0.32 0.978v0c0 0.531 0.267 1.002 0.802 1.413 0.535 0.414 1.173 0.621 1.915 0.621v0c1.087 0 2.027-0.426 2.821-1.278zM105.771 189.124v-19.095h2.071v7.205c1.087-0.566 2.2-0.849 3.338-0.848v0c0.504 0 1.001 0.06 1.491 0.181 0.487 0.124 0.977 0.34 1.47 0.647 0.493 0.307 0.925 0.692 1.294 1.154 0.373 0.466 0.675 1.073 0.906 1.822 0.231 0.749 0.347 1.596 0.347 2.542v0c0 2.053-0.545 3.675-1.636 4.865-1.09 1.187-2.504 1.781-4.239 1.781v0c-1.139 0-2.255-0.278-3.349-0.834v0l-0.254 0.58zM110.471 178.104v0c-0.901 0-1.777 0.223-2.629 0.668v0 8.396c0.901 0.386 1.789 0.58 2.665 0.579v0c0.386 0 0.761-0.043 1.124-0.129 0.362-0.083 0.732-0.236 1.107-0.461 0.376-0.221 0.702-0.5 0.979-0.838 0.28-0.338 0.507-0.785 0.683-1.341 0.176-0.556 0.264-1.184 0.264-1.884v0c0-0.79-0.091-1.491-0.274-2.102-0.186-0.611-0.423-1.094-0.71-1.449-0.286-0.352-0.623-0.642-1.009-0.87-0.39-0.228-0.761-0.38-1.113-0.455-0.355-0.076-0.718-0.114-1.087-0.114zM126.041 176.401v0c1.725 0 3.147 0.55 4.265 1.651 1.115 1.104 1.672 2.63 1.672 4.576v0c0 2.064-0.571 3.704-1.713 4.923-1.139 1.218-2.614 1.827-4.426 1.827v0c-1.729 0-3.14-0.571-4.234-1.713-1.097-1.142-1.646-2.69-1.646-4.644v0c0-2.015 0.559-3.623 1.677-4.824 1.115-1.197 2.583-1.796 4.405-1.796zM125.86 178.166v0c-1.035 0-1.939 0.4-2.712 1.201-0.776 0.801-1.165 1.9-1.165 3.297v0c0 1.391 0.38 2.562 1.139 3.515 0.756 0.952 1.737 1.429 2.945 1.429v0c1.111 0 2.038-0.421 2.78-1.263 0.742-0.842 1.113-1.941 1.113-3.298v0c0-0.776-0.121-1.48-0.363-2.112-0.242-0.631-0.557-1.146-0.947-1.542-0.393-0.397-0.83-0.701-1.31-0.911-0.48-0.21-0.973-0.316-1.48-0.316zM137.351 176.639l0.388 0.937c1.056-0.783 2.219-1.175 3.489-1.175v0c0.876 0 1.674 0.164 2.392 0.492v0l-0.632 1.656c-0.659-0.255-1.342-0.383-2.05-0.383v0c-1.052 0-2.043 0.292-2.971 0.875v0 10.083h-2.07v-12.485zM150.152 176.401v0c0.925 0 1.71 0.107 2.355 0.321 0.645 0.214 1.142 0.528 1.491 0.942 0.352 0.411 0.604 0.87 0.756 1.377 0.148 0.504 0.223 1.085 0.222 1.744v0 8.339h-1.465l-0.476-1.139c-1.021 0.928-2.193 1.392-3.515 1.393v0c-1.18 0-2.179-0.355-2.997-1.066-0.818-0.714-1.227-1.548-1.226-2.501v0c0-0.504 0.093-0.958 0.279-1.361 0.186-0.407 0.454-0.745 0.802-1.014 0.349-0.269 0.747-0.499 1.196-0.689 0.445-0.19 0.965-0.335 1.558-0.435 0.594-0.1 1.191-0.171 1.791-0.212 0.597-0.045 1.254-0.067 1.972-0.067v0-0.984c0-0.286-0.01-0.535-0.031-0.745-0.024-0.21-0.095-0.464-0.212-0.761-0.117-0.293-0.276-0.535-0.476-0.725-0.204-0.19-0.507-0.354-0.911-0.491-0.404-0.138-0.885-0.207-1.444-0.207v0c-0.859 0-1.97 0.188-3.334 0.564v0l-0.393-1.517c1.384-0.511 2.736-0.766 4.058-0.766zM152.895 186.469v-2.868h-0.771c-0.48 0-0.897 0.009-1.253 0.026-0.352 0.017-0.766 0.066-1.242 0.145-0.476 0.079-0.866 0.192-1.17 0.336-0.304 0.141-0.562 0.35-0.776 0.627-0.217 0.273-0.326 0.599-0.326 0.978v0c0 0.531 0.267 1.002 0.802 1.413 0.535 0.414 1.173 0.621 1.915 0.621v0c1.087 0 2.027-0.426 2.821-1.278zM165.872 187.494l0.29 1.413c-1.222 0.314-2.174 0.471-2.857 0.471-0.68 0-1.256-0.11-1.729-0.331-0.473-0.217-0.832-0.528-1.077-0.932-0.242-0.407-0.416-0.844-0.523-1.31-0.104-0.466-0.155-1.002-0.155-1.61v0-6.925h-1.682v-1.631h1.682v-3.577h2.071v3.577h3.804v1.631h-3.804v6.9c0 1.725 0.682 2.588 2.044 2.588v0c0.245 0 0.89-0.088 1.936-0.264zM174.692 176.401v0c0.607 0 1.153 0.072 1.636 0.218 0.487 0.148 0.889 0.336 1.206 0.564 0.321 0.228 0.597 0.525 0.828 0.89 0.231 0.366 0.409 0.719 0.533 1.061 0.121 0.342 0.216 0.752 0.285 1.232 0.066 0.48 0.107 0.897 0.124 1.253 0.017 0.352 0.026 0.77 0.026 1.252v0 0.984h-8.582c0 0.456 0.104 0.908 0.311 1.356 0.207 0.452 0.499 0.866 0.874 1.242 0.373 0.373 0.864 0.678 1.476 0.916 0.611 0.235 1.287 0.352 2.029 0.352v0c0.876 0 1.824-0.152 2.841-0.455v0l0.368 1.418c-1.356 0.462-2.686 0.694-3.991 0.694v0c-0.918 0-1.734-0.122-2.448-0.368-0.711-0.245-1.284-0.562-1.719-0.952-0.431-0.393-0.787-0.864-1.066-1.413-0.28-0.545-0.471-1.09-0.575-1.636-0.107-0.542-0.16-1.116-0.16-1.724v0c0-0.935 0.114-1.791 0.342-2.567 0.228-0.773 0.537-1.423 0.926-1.951 0.386-0.525 0.839-0.968 1.356-1.331 0.518-0.362 1.061-0.626 1.631-0.792 0.569-0.162 1.153-0.243 1.749-0.243zM174.252 178.192v0c-0.742 0-1.38 0.205-1.915 0.616-0.535 0.407-0.925 0.914-1.17 1.522-0.245 0.607-0.368 1.26-0.367 1.956v0h6.522c0-2.73-1.023-4.094-3.07-4.094zM181.504 191.904l1.998-4.928h2.273l-1.998 4.928zM207.711 171.039v0c1.636 0 3.263 0.321 4.881 0.962v0l-0.657 1.781c-1.636-0.562-3.064-0.844-4.286-0.844v0c-1.011 0-1.948 0.2-2.811 0.601-0.863 0.397-1.579 0.932-2.148 1.604-0.569 0.669-1.015 1.436-1.335 2.299-0.317 0.863-0.476 1.767-0.476 2.712v0c0 0.977 0.171 1.905 0.512 2.785 0.338 0.88 0.816 1.651 1.434 2.313 0.614 0.659 1.379 1.184 2.293 1.574 0.914 0.386 1.915 0.58 3.002 0.58v0c1.298 0 2.648-0.254 4.053-0.761v0l0.657 1.594c-1.76 0.759-3.511 1.139-5.253 1.139v0c-1.08 0-2.091-0.157-3.034-0.471-0.946-0.311-1.77-0.745-2.474-1.305-0.701-0.562-1.304-1.227-1.811-1.992-0.504-0.766-0.885-1.61-1.144-2.532-0.255-0.925-0.383-1.896-0.383-2.914v0c0-1.725 0.359-3.275 1.076-4.648 0.721-1.373 1.769-2.462 3.142-3.266 1.373-0.807 2.961-1.211 4.762-1.211zM221.309 176.401v0c1.729 0 3.151 0.55 4.265 1.651 1.118 1.104 1.677 2.63 1.677 4.576v0c0 2.064-0.571 3.704-1.713 4.923-1.142 1.218-2.619 1.827-4.431 1.827v0c-1.725 0-3.135-0.571-4.229-1.713-1.097-1.142-1.646-2.69-1.646-4.644v0c0-2.015 0.559-3.623 1.677-4.824 1.115-1.197 2.581-1.796 4.4-1.796zM221.133 178.166v0c-1.035 0-1.941 0.4-2.717 1.201-0.773 0.801-1.159 1.9-1.16 3.297v0c0 1.391 0.378 2.562 1.134 3.515 0.759 0.952 1.741 1.429 2.945 1.429v0c1.115 0 2.041-0.421 2.78-1.263 0.742-0.842 1.113-1.941 1.112-3.298v0c0-0.776-0.119-1.48-0.357-2.112-0.242-0.631-0.557-1.146-0.947-1.542-0.393-0.397-0.83-0.701-1.309-0.911-0.48-0.21-0.973-0.316-1.481-0.316zM230.538 183.094v0c0-1.077 0.152-2.045 0.456-2.904 0.3-0.859 0.716-1.563 1.247-2.112 0.531-0.545 1.153-0.965 1.864-1.258 0.714-0.29 1.484-0.435 2.308-0.434v0c0.994 0 2 0.223 3.018 0.667v0-7.024h2.076v19.095h-1.445l-0.336-0.781c-1.173 0.69-2.395 1.035-3.665 1.035v0c-0.525 0-1.035-0.064-1.532-0.192-0.497-0.124-0.989-0.343-1.475-0.657-0.49-0.311-0.918-0.701-1.284-1.17-0.366-0.466-0.663-1.065-0.89-1.796-0.228-0.735-0.342-1.558-0.342-2.469zM236.739 187.67v0c0.921 0 1.819-0.235 2.692-0.704v0-8.344c-0.901-0.404-1.805-0.606-2.712-0.606v0c-0.39 0-0.766 0.041-1.129 0.124-0.362 0.086-0.733 0.238-1.113 0.456-0.376 0.221-0.702 0.504-0.978 0.849-0.273 0.345-0.497 0.802-0.673 1.371-0.179 0.569-0.269 1.22-0.269 1.952v0c0 0.759 0.093 1.436 0.28 2.029 0.186 0.594 0.423 1.066 0.709 1.418 0.286 0.355 0.623 0.647 1.009 0.875 0.386 0.228 0.757 0.381 1.113 0.461 0.352 0.079 0.709 0.119 1.071 0.119zM251.554 176.401v0c0.607 0 1.153 0.072 1.635 0.218 0.483 0.148 0.885 0.336 1.206 0.564 0.321 0.228 0.597 0.525 0.829 0.89 0.231 0.366 0.407 0.719 0.528 1.061 0.124 0.342 0.219 0.752 0.284 1.232 0.069 0.48 0.112 0.897 0.13 1.253 0.017 0.352 0.026 0.77 0.025 1.252v0 0.984h-8.582c0 0.456 0.104 0.908 0.311 1.356 0.207 0.452 0.497 0.866 0.87 1.242 0.376 0.373 0.87 0.678 1.48 0.916 0.611 0.235 1.287 0.352 2.029 0.352v0c0.876 0 1.824-0.152 2.842-0.455v0l0.367 1.418c-1.356 0.462-2.688 0.694-3.996 0.694v0c-0.918 0-1.732-0.122-2.443-0.368-0.711-0.245-1.284-0.562-1.718-0.952-0.435-0.393-0.79-0.864-1.067-1.413-0.28-0.545-0.471-1.09-0.574-1.636-0.107-0.542-0.16-1.116-0.161-1.724v0c0-0.935 0.114-1.791 0.342-2.567 0.228-0.773 0.535-1.423 0.921-1.951 0.39-0.525 0.844-0.968 1.362-1.331 0.518-0.362 1.061-0.626 1.63-0.792 0.566-0.162 1.149-0.243 1.75-0.243zM251.108 178.192v0c-0.742 0-1.38 0.205-1.915 0.616-0.535 0.407-0.923 0.914-1.164 1.522-0.245 0.607-0.368 1.26-0.368 1.956v0h6.522c0-2.73-1.025-4.094-3.075-4.094zM258.366 191.904l1.992-4.928h2.278l-1.998 4.928zM284.573 171.039v0c1.636 0 3.263 0.321 4.881 0.962v0l-0.658 1.781c-1.636-0.562-3.064-0.844-4.286-0.844v0c-1.011 0-1.948 0.2-2.81 0.601-0.866 0.397-1.582 0.932-2.148 1.604-0.569 0.669-1.015 1.436-1.336 2.299-0.321 0.863-0.481 1.767-0.481 2.712v0c0 0.977 0.171 1.905 0.512 2.785 0.342 0.88 0.82 1.651 1.434 2.313 0.618 0.659 1.382 1.184 2.293 1.574 0.914 0.386 1.915 0.58 3.002 0.58v0c1.298 0 2.65-0.254 4.058-0.761v0l0.658 1.594c-1.76 0.759-3.513 1.139-5.259 1.139v0c-1.077 0-2.088-0.157-3.033-0.471-0.942-0.311-1.765-0.745-2.469-1.305-0.704-0.562-1.308-1.227-1.812-1.992-0.507-0.766-0.889-1.61-1.144-2.532-0.259-0.925-0.388-1.896-0.388-2.914v0c0-1.725 0.361-3.275 1.082-4.648 0.721-1.373 1.769-2.462 3.141-3.266 1.373-0.807 2.961-1.211 4.763-1.211zM294.18 176.639l0.388 0.937c1.052-0.783 2.215-1.175 3.489-1.175v0c0.876 0 1.674 0.164 2.391 0.492v0l-0.637 1.656c-0.656-0.255-1.337-0.383-2.044-0.383v0c-1.052 0-2.043 0.292-2.971 0.875v0 10.083h-2.071v-12.485zM308.217 176.401v0c0.607 0 1.153 0.072 1.636 0.218 0.487 0.148 0.889 0.336 1.206 0.564 0.321 0.228 0.597 0.525 0.828 0.89 0.231 0.366 0.409 0.719 0.534 1.061 0.121 0.342 0.216 0.752 0.284 1.232 0.066 0.48 0.107 0.897 0.124 1.253 0.017 0.352 0.026 0.77 0.026 1.252v0 0.984h-8.582c0 0.456 0.104 0.908 0.311 1.356 0.207 0.452 0.499 0.866 0.875 1.242 0.373 0.373 0.864 0.678 1.475 0.916 0.611 0.235 1.287 0.352 2.029 0.352v0c0.876 0 1.824-0.152 2.842-0.455v0l0.367 1.418c-1.356 0.462-2.686 0.694-3.991 0.694v0c-0.918 0-1.734-0.122-2.448-0.368-0.711-0.245-1.284-0.562-1.719-0.952-0.435-0.393-0.79-0.864-1.066-1.413-0.28-0.545-0.471-1.09-0.574-1.636-0.107-0.542-0.16-1.116-0.161-1.724v0c0-0.935 0.114-1.791 0.342-2.567 0.228-0.773 0.535-1.423 0.921-1.951 0.39-0.525 0.844-0.968 1.361-1.331 0.518-0.362 1.061-0.626 1.631-0.792 0.569-0.162 1.153-0.243 1.749-0.243zM307.777 178.192v0c-0.742 0-1.38 0.205-1.915 0.616-0.535 0.407-0.925 0.914-1.17 1.522-0.245 0.607-0.368 1.26-0.367 1.956v0h6.522c0-2.73-1.023-4.094-3.07-4.094zM320.904 176.401v0c0.928 0 1.713 0.107 2.356 0.321 0.645 0.214 1.144 0.528 1.495 0.942 0.349 0.411 0.599 0.87 0.751 1.377 0.152 0.504 0.228 1.085 0.228 1.744v0 8.339h-1.465l-0.482-1.139c-1.021 0.928-2.193 1.392-3.514 1.393v0c-1.18 0-2.179-0.355-2.997-1.066-0.814-0.714-1.222-1.548-1.222-2.501v0c0-0.504 0.091-0.958 0.275-1.361 0.186-0.407 0.454-0.745 0.802-1.014 0.352-0.269 0.751-0.499 1.196-0.689 0.449-0.19 0.97-0.335 1.563-0.435 0.594-0.1 1.189-0.171 1.786-0.212 0.597-0.045 1.254-0.067 1.972-0.067v0-0.984c0-0.286-0.01-0.535-0.031-0.745-0.021-0.21-0.09-0.464-0.207-0.761-0.121-0.293-0.281-0.535-0.482-0.725-0.204-0.19-0.507-0.354-0.911-0.491-0.404-0.138-0.883-0.207-1.439-0.207v0c-0.859 0-1.972 0.188-3.338 0.564v0l-0.394-1.517c1.384-0.511 2.736-0.766 4.058-0.766zM323.648 186.469v-2.868h-0.772c-0.48 0-0.897 0.009-1.252 0.026-0.352 0.017-0.766 0.066-1.242 0.145-0.476 0.079-0.866 0.192-1.17 0.336-0.304 0.141-0.562 0.35-0.777 0.627-0.214 0.273-0.321 0.599-0.321 0.978v0c0 0.531 0.267 1.002 0.803 1.413 0.535 0.414 1.173 0.621 1.915 0.621v0c1.084 0 2.022-0.426 2.816-1.278zM336.624 187.494l0.29 1.413c-1.222 0.314-2.172 0.471-2.852 0.471-0.683 0-1.261-0.11-1.734-0.331-0.473-0.217-0.83-0.528-1.071-0.932-0.245-0.407-0.421-0.844-0.528-1.31-0.104-0.466-0.155-1.002-0.156-1.61v0-6.925h-1.682v-1.631h1.682v-3.577h2.071v3.577h3.804v1.631h-3.804v6.9c0 1.725 0.683 2.588 2.05 2.588v0c0.245 0 0.889-0.088 1.93-0.264zM345.445 176.401v0c0.607 0 1.154 0.072 1.641 0.218 0.483 0.148 0.885 0.336 1.206 0.564 0.317 0.228 0.594 0.525 0.828 0.89 0.231 0.366 0.407 0.719 0.528 1.061 0.124 0.342 0.219 0.752 0.284 1.232 0.069 0.48 0.11 0.897 0.125 1.253 0.017 0.352 0.026 0.77 0.026 1.252v0 0.984h-8.577c0 0.456 0.102 0.908 0.305 1.356 0.207 0.452 0.499 0.866 0.875 1.242 0.376 0.373 0.87 0.678 1.48 0.916 0.611 0.235 1.285 0.352 2.024 0.352v0c0.876 0 1.825-0.152 2.847-0.455v0l0.367 1.418c-1.36 0.462-2.692 0.694-3.996 0.694v0c-0.918 0-1.732-0.122-2.443-0.368-0.714-0.245-1.287-0.562-1.718-0.952-0.435-0.393-0.792-0.864-1.072-1.413-0.276-0.545-0.468-1.09-0.574-1.636-0.104-0.542-0.155-1.116-0.156-1.724v0c0-0.935 0.114-1.791 0.342-2.567 0.228-0.773 0.535-1.423 0.921-1.951 0.386-0.525 0.839-0.968 1.357-1.331 0.518-0.362 1.061-0.626 1.63-0.792 0.569-0.162 1.153-0.243 1.75-0.243zM345.005 178.192v0c-0.742 0-1.38 0.205-1.915 0.616-0.535 0.407-0.925 0.914-1.17 1.522-0.245 0.607-0.368 1.26-0.368 1.956v0h6.522c0-2.73-1.023-4.094-3.069-4.094z" fill="#6b7280" fill-rule="nonzero" stroke="none" stroke-width="1" stroke-linecap="butt" stroke-linejoin="miter" stroke-miterlimit="10" stroke-dasharray="" stroke-dashoffset="0" font-family="none" font-weight="none" font-size="none" text-anchor="none" style="mix-blend-mode: normal" data-fill-palette-color="secondary" id="text-1"></path></g></g><g transform="matrix(1,0,0,1,29.33176499999999,42.05101904059041)"><svg viewBox="0 0 316.416 45.535881918819186" height="45.535881918819186" width="316.416"><g><svg viewBox="0 0 316.416 45.535881918819186" height="45.535881918819186" width="316.416"><g><svg viewBox="0 0 316.416 45.535881918819186" height="45.535881918819186" width="316.416"><g id="textblocktransform"><svg viewBox="0 0 316.416 45.535881918819186" height="45.535881918819186" width="316.416" id="textblock"><g><svg viewBox="0 0 316.416 45.535881918819186" height="45.535881918819186" width="316.416"><g transform="matrix(1,0,0,1,0,0)"><svg width="316.416" viewBox="3.25 -38.25 270.98 39" height="45.535881918819186" data-palette-color="#6b7280"><path d="M16.55 0.75L16.55 0.75Q10.6 0.75 6.93-3.08 3.25-6.9 3.25-12.5 3.25-18.1 6.93-21.93 10.6-25.75 16.5-25.75L16.5-25.75Q19.8-25.75 22.95-23.85 26.1-21.95 26.1-18.7L26.1-18.7Q26.1-17.05 24.93-15.88 23.75-14.7 22.1-14.7 20.45-14.7 19.28-15.88 18.1-17.05 18.1-18.55 18.1-20.05 18.9-21.1 19.7-22.15 21-22.55L21-22.55Q19.6-23.15 17.8-23.15L17.8-23.15Q14.45-23.15 12.73-20.18 11-17.2 11-12.63 11-8.05 12.73-5.2 14.45-2.35 17.8-2.35L17.8-2.35Q22.3-2.35 25.45-6.1L25.45-6.1 26.85-5.2Q25.2-2.5 22.53-0.88 19.85 0.75 16.55 0.75ZM35.02-3.08Q31.35-6.9 31.35-12.5 31.35-18.1 35.02-21.93 38.7-25.75 44.6-25.75 50.5-25.75 54.17-21.93 57.85-18.1 57.85-12.5 57.85-6.9 54.17-3.08 50.5 0.75 44.6 0.75 38.7 0.75 35.02-3.08ZM40.5-20.53Q39.1-17.4 39.1-12.5 39.1-7.6 40.5-4.48 41.9-1.35 44.65-1.35 47.4-1.35 48.8-4.48 50.2-7.6 50.2-12.5 50.2-17.4 48.8-20.53 47.4-23.65 44.65-23.65 41.9-23.65 40.5-20.53ZM90.94-35.2L90.94-35.2 90.94-5.55Q90.94-4.2 91.59-3.43 92.25-2.65 93.47-2.65 94.69-2.65 96.44-4.1L96.44-4.1 97.59-2.9Q93.59 0.75 89.59 0.75L89.59 0.75Q84.84 0.75 83.75-3.7L83.75-3.7Q81.14 0.75 76.09 0.75L76.09 0.75Q70.34 0.75 67.34-2.98 64.34-6.7 64.34-12.48 64.34-18.25 67.57-22 70.8-25.75 76.59-25.75L76.59-25.75Q81.05-25.75 83.44-22.2L83.44-22.2 83.44-35.85Q80.69-35.15 79.25-33.4L79.25-33.4 77.89-34.95Q79.34-36.45 81.57-37.35 83.8-38.25 85.97-38.25 88.14-38.25 89.55-37.38 90.94-36.5 90.94-35.2ZM73.5-20.1Q72.09-17.3 72.09-12.5 72.09-7.7 73.5-4.9 74.89-2.1 77.77-2.1 80.64-2.1 82.17-4.93 83.69-7.75 83.69-12.5 83.69-17.25 82.17-20.08 80.64-22.9 77.77-22.9 74.89-22.9 73.5-20.1ZM110.29-11.55Q113.54-11.85 115.32-14.03 117.09-16.2 117.09-18.43 117.09-20.65 116.12-21.85 115.14-23.05 113.17-23.05 111.19-23.05 109.39-20.25 107.59-17.45 107.59-12.75 107.59-8.05 109.29-5.2 110.99-2.35 114.14-2.35L114.14-2.35Q118.94-2.35 122.29-6.1L122.29-6.1 123.69-5.2Q121.99-2.5 119.19-0.88 116.39 0.75 112.89 0.75L112.89 0.75Q106.94 0.75 103.39-3.18 99.84-7.1 99.84-12.65 99.84-18.2 103.62-21.98 107.39-25.75 114.09-25.75L114.09-25.75Q118.49-25.75 120.99-23.7 123.49-21.65 123.49-18.5 123.49-15.35 120.72-12.68 117.94-10 113.39-10L113.39-10Q111.84-10 110.39-10.35L110.39-10.35 110.29-11.55ZM135.19-20.9L135.19-20.9Q133.99-22.75 133.99-24.2 133.99-25.65 135.12-26.78 136.24-27.9 137.84-27.9 139.44-27.9 140.56-26.78 141.69-25.65 141.69-24.1 141.69-22.55 140.14-20.8L140.14-20.8Q144.24-17.8 146.44-14.93 148.64-12.05 148.64-8.28 148.64-4.5 145.79-1.88 142.94 0.75 137.69 0.75L137.69 0.75Q135.29 0.75 132.87-0.3 130.44-1.35 129.19-2.9L129.19-2.9 130.34-4.1Q132.54-2.35 135.09-2.35 137.64-2.35 139.26-3.73 140.89-5.1 140.89-8L140.89-8Q140.89-12.6 137.49-17.6L137.49-17.6 129.94-8.15 128.69-9.25Q132.49-15.4 135.19-20.9ZM163.19-35.2L163.19-35.2 163.19-22.35Q164.94-24.25 166.96-25 168.99-25.75 172.11-25.75 175.24-25.75 177.21-23.78 179.19-21.8 179.19-18.4L179.19-18.4 179.19-5.55Q179.19-4.2 179.84-3.43 180.49-2.65 181.84-2.65 183.19-2.65 184.94-4.1L184.94-4.1 185.84-2.9Q181.84 0.75 177.84 0.75L177.84 0.75Q171.69 0.75 171.69-6.6L171.69-6.6 171.69-19.45Q171.69-21 170.74-21.85 169.79-22.7 168.09-22.7 166.39-22.7 164.79-21.3 163.19-19.9 163.19-17.65L163.19-17.65 163.19 0 155.69 0 155.69-35.85Q152.94-35.15 151.49-33.4L151.49-33.4 150.14-34.95Q151.59-36.45 153.81-37.35 156.04-38.25 158.21-38.25 160.39-38.25 161.79-37.38 163.19-36.5 163.19-35.2ZM207.18-25L214.68-25 214.68-5.55Q214.68-4.2 215.33-3.43 215.98-2.65 217.33-2.65 218.68-2.65 220.43-4.1L220.43-4.1 221.33-2.9Q217.33 0.75 213.33 0.75L213.33 0.75Q208.58 0.75 207.48-3.7L207.48-3.7Q204.88 0.75 199.83 0.75L199.83 0.75Q194.08 0.75 191.08-2.98 188.08-6.7 188.08-12.48 188.08-18.25 191.31-22 194.53-25.75 200.33-25.75L200.33-25.75Q204.78-25.75 207.18-22.2L207.18-22.2 207.18-25ZM197.23-20.1Q195.83-17.3 195.83-12.5 195.83-7.7 197.23-4.9 198.63-2.1 201.51-2.1 204.38-2.1 205.91-4.93 207.43-7.75 207.43-12.5 207.43-17.25 205.91-20.08 204.38-22.9 201.51-22.9 198.63-22.9 197.23-20.1ZM239.98-25.75L239.98-25.75Q241.48-25.75 241.48-22.9L241.48-22.9 241.48-5.55Q241.48-4.2 242.13-3.43 242.78-2.65 244.13-2.65 245.48-2.65 247.23-4.1L247.23-4.1 248.13-2.9Q244.13 0.75 240.13 0.75L240.13 0.75Q233.98 0.75 233.98-6.6L233.98-6.6 233.98-20.65Q231.63-19.7 228.28-19.35L228.28-19.35Q227.88-14.75 225.63-10.15L225.63-10.15 223.58-10.75Q224.98-14.3 225.08-19.2L225.08-19.2Q223.18-19.2 222.01-20.3 220.83-21.4 220.83-23.03 220.83-24.65 221.96-25.78 223.08-26.9 224.71-26.9 226.33-26.9 227.43-25.75 228.53-24.6 228.53-22.8L228.53-22.8 229.48-22.8Q233.43-22.8 237.88-25L237.88-25Q239.33-25.75 239.98-25.75ZM260.83-11.55Q264.08-11.85 265.86-14.03 267.63-16.2 267.63-18.43 267.63-20.65 266.65-21.85 265.68-23.05 263.7-23.05 261.73-23.05 259.93-20.25 258.13-17.45 258.13-12.75 258.13-8.05 259.83-5.2 261.53-2.35 264.68-2.35L264.68-2.35Q269.48-2.35 272.83-6.1L272.83-6.1 274.23-5.2Q272.53-2.5 269.73-0.88 266.93 0.75 263.43 0.75L263.43 0.75Q257.48 0.75 253.93-3.18 250.38-7.1 250.38-12.65 250.38-18.2 254.16-21.98 257.93-25.75 264.63-25.75L264.63-25.75Q269.03-25.75 271.53-23.7 274.03-21.65 274.03-18.5 274.03-15.35 271.25-12.68 268.48-10 263.93-10L263.93-10Q262.38-10 260.93-10.35L260.93-10.35 260.83-11.55Z" opacity="1" transform="matrix(1,0,0,1,0,0)" fill="#6b7280" class="wordmark-text-0" data-fill-palette-color="primary" id="text-0"></path></svg></g></svg></g></svg></g></svg></g><g></g></svg></g></svg></g></svg></g><defs></defs></svg><rect width="375.07953" height="129.63792" fill="none" stroke="none" visibility="hidden"></rect></g></svg></g></svg>