<svg xmlns="http://www.w3.org/2000/svg" version="1.1" xmlns:xlink="http://www.w3.org/1999/xlink" xmlns:svgjs="http://svgjs.dev/svgjs" width="2000" height="464" viewBox="0 0 2000 464"><g transform="matrix(1,0,0,1,-1.2121212121212466,-0.7007348865490712)"><svg viewBox="0 0 396 92" data-background-color="#ffffff" preserveAspectRatio="xMidYMid meet" height="464" width="2000" xmlns="http://www.w3.org/2000/svg" xmlns:xlink="http://www.w3.org/1999/xlink"><g id="tight-bounds" transform="matrix(1,0,0,1,0.2400000000000091,0.13893881371231487)"><svg viewBox="0 0 395.52 91.5311559017009" height="91.5311559017009" width="395.52"><g><svg viewBox="0 0 589.4849216060795 136.4184776022148" height="91.5311559017009" width="395.52"><g transform="matrix(1,0,0,1,193.9649216060795,34.40413264113109)"><svg viewBox="0 0 395.52 67.61021231995262" height="67.61021231995262" width="395.52"><g id="textblocktransform"><svg viewBox="0 0 395.52 67.61021231995262" height="67.61021231995262" width="395.52" id="textblock"><g><svg viewBox="0 0 395.52 42.77176329227997" height="42.77176329227997" width="395.52"><g transform="matrix(1,0,0,1,0,0)"><svg width="395.52" viewBox="1.75 -35.75 332.88 36" height="42.77176329227997" data-palette-color="url(#2cbf0580-8618-44d9-acc1-32dd33214093)"></svg></g></svg></g><g transform="matrix(1,0,0,1,94.92479999999999,52.86915008326826)"><svg viewBox="0 0 205.6704 14.741062236684366" height="14.741062236684366" width="205.6704"><g transform="matrix(1,0,0,1,0,0)"><svg width="205.6704" viewBox="3.0999999999999996 -35 583.84 41.85" height="14.741062236684366" data-palette-color="#ef5b2a"><path d="M18.25 0.65L18.25 0.65Q14.7 0.65 11.88-0.45 9.05-1.55 7.1-3.7 5.15-5.85 4.13-8.97 3.1-12.1 3.1-16.1L3.1-16.1Q3.1-20.15 4.15-23.38 5.2-26.6 7.15-28.9 9.1-31.2 11.85-32.43 14.6-33.65 18-33.65L18-33.65Q20.6-33.65 22.8-32.93 25-32.2 26.63-30.83 28.25-29.45 29.15-27.5 30.05-25.55 30.1-23.15L30.1-23.15 25.75-22.05Q25.8-24.6 24.7-26.28 23.6-27.95 21.8-28.8 20-29.65 17.9-29.65L17.9-29.65Q15.95-29.65 14.13-28.88 12.3-28.1 10.9-26.48 9.5-24.85 8.68-22.33 7.85-19.8 7.85-16.25L7.85-16.25Q7.85-11.7 9.18-8.9 10.5-6.1 12.9-4.78 15.3-3.45 18.45-3.45L18.45-3.45Q21.5-3.45 23.35-4.58 25.2-5.7 26.1-7.73 27-9.75 27.15-12.4L27.15-12.4 31.25-11.65Q31.2-9.15 30.45-6.9 29.7-4.65 28.15-2.95 26.6-1.25 24.15-0.3 21.7 0.65 18.25 0.65ZM48.35 0.65L48.35 0.65Q44.65 0.65 41.82-0.98 39-2.6 37.42-5.65 35.85-8.7 35.85-13.05L35.85-13.05Q35.85-17.55 37.52-20.53 39.2-23.5 42-25 44.8-26.5 48.25-26.5L48.25-26.5Q51.85-26.5 54.67-24.93 57.5-23.35 59.15-20.33 60.8-17.3 60.8-12.85L60.8-12.85Q60.8-8.4 59.17-5.4 57.55-2.4 54.72-0.88 51.9 0.65 48.35 0.65ZM48.55-3.1L48.55-3.1Q50.95-3.1 52.67-4.28 54.4-5.45 55.32-7.6 56.25-9.75 56.25-12.7L56.25-12.7Q56.25-15.75 55.27-17.98 54.3-20.2 52.5-21.43 50.7-22.65 48.15-22.65L48.15-22.65Q45.8-22.65 44.07-21.55 42.35-20.45 41.4-18.32 40.45-16.2 40.45-13.15L40.45-13.15Q40.45-8.45 42.62-5.78 44.8-3.1 48.55-3.1ZM71.85 0L67.3 0 67.3-35 71.85-35 71.85 0ZM84.24 0L79.69 0 79.69-35 84.24-35 84.24 0ZM98.04 0.65L98.04 0.65Q95.94 0.65 94.24-0.18 92.54-1 91.54-2.63 90.54-4.25 90.54-6.75L90.54-6.75Q90.54-8.6 91.22-10 91.89-11.4 93.32-12.4 94.74-13.4 96.99-14.05 99.24-14.7 102.49-15.15L102.49-15.15Q104.34-15.4 105.52-15.65 106.69-15.9 107.24-16.48 107.79-17.05 107.79-18.2L107.79-18.2Q107.79-20.1 106.49-21.4 105.19-22.7 102.39-22.7L102.39-22.7Q100.94-22.7 99.44-22.2 97.94-21.7 96.82-20.53 95.69-19.35 95.39-17.25L95.39-17.25 91.19-18.65Q91.59-20.45 92.52-21.9 93.44-23.35 94.89-24.38 96.34-25.4 98.27-25.95 100.19-26.5 102.54-26.5L102.54-26.5Q105.79-26.5 107.97-25.4 110.14-24.3 111.22-22.03 112.29-19.75 112.29-16.2L112.29-16.2 112.29-10.45Q112.29-8.9 112.37-7.08 112.44-5.25 112.59-3.43 112.74-1.6 112.89 0L112.89 0 108.69 0Q108.54-1.6 108.42-3.2 108.29-4.8 108.24-6.4L108.24-6.4 107.59-6.4Q106.84-4.55 105.59-2.95 104.34-1.35 102.47-0.35 100.59 0.65 98.04 0.65ZM99.39-3.05L99.39-3.05Q100.49-3.05 101.62-3.4 102.74-3.75 103.87-4.55 104.99-5.35 106.02-6.6 107.04-7.85 107.84-9.6L107.84-9.6 107.84-14.6 109.14-14.35Q108.34-13.55 107.02-13.15 105.69-12.75 104.09-12.5 102.49-12.25 100.89-11.98 99.29-11.7 97.97-11.18 96.64-10.65 95.84-9.7 95.04-8.75 95.04-7.1L95.04-7.1Q95.04-5.1 96.24-4.08 97.44-3.05 99.39-3.05ZM133.34 0.65L133.34 0.65Q130.84 0.65 129.06-0.35 127.29-1.35 126.21-3.08 125.14-4.8 124.59-7L124.59-7 123.79-7 124.04 0 119.94 0 119.94-12.75 119.94-35 124.54-35 124.54-26.9Q124.54-25.6 124.41-24.18 124.29-22.75 124.06-21.25 123.84-19.75 123.59-18.35L123.59-18.35 124.49-18.35Q125.04-20.45 126.09-22.3 127.14-24.15 128.91-25.3 130.69-26.45 133.34-26.45L133.34-26.45Q136.64-26.45 138.96-24.73 141.29-23 142.54-19.95 143.79-16.9 143.79-12.85L143.79-12.85Q143.79-8.95 142.56-5.9 141.34-2.85 139.01-1.1 136.69 0.65 133.34 0.65ZM132.24-3.35L132.24-3.35Q134.39-3.35 135.89-4.5 137.39-5.65 138.21-7.8 139.04-9.95 139.04-12.8L139.04-12.8Q139.04-15.6 138.24-17.78 137.44-19.95 135.94-21.23 134.44-22.5 132.24-22.5L132.24-22.5Q130.64-22.5 129.39-21.88 128.14-21.25 127.21-20.2 126.29-19.15 125.69-17.9 125.09-16.65 124.79-15.4 124.49-14.15 124.49-13.1L124.49-13.1 124.49-12.5Q124.49-11 125.01-9.4 125.54-7.8 126.54-6.43 127.54-5.05 128.99-4.2 130.44-3.35 132.24-3.35ZM161.44 0.65L161.44 0.65Q157.74 0.65 154.91-0.98 152.09-2.6 150.51-5.65 148.94-8.7 148.94-13.05L148.94-13.05Q148.94-17.55 150.61-20.53 152.29-23.5 155.09-25 157.89-26.5 161.34-26.5L161.34-26.5Q164.94-26.5 167.76-24.93 170.59-23.35 172.24-20.33 173.89-17.3 173.89-12.85L173.89-12.85Q173.89-8.4 172.26-5.4 170.64-2.4 167.81-0.88 164.99 0.65 161.44 0.65ZM161.64-3.1L161.64-3.1Q164.04-3.1 165.76-4.28 167.49-5.45 168.41-7.6 169.34-9.75 169.34-12.7L169.34-12.7Q169.34-15.75 168.36-17.98 167.39-20.2 165.59-21.43 163.79-22.65 161.24-22.65L161.24-22.65Q158.89-22.65 157.16-21.55 155.44-20.45 154.49-18.32 153.54-16.2 153.54-13.15L153.54-13.15Q153.54-8.45 155.71-5.78 157.89-3.1 161.64-3.1ZM184.93 0L180.38 0 180.38-14 180.38-25.85 184.48-25.85 184.08-16.85 184.93-16.85Q185.38-19.8 186.33-21.95 187.28-24.1 188.86-25.3 190.43-26.5 192.78-26.5L192.78-26.5Q193.28-26.5 193.93-26.43 194.58-26.35 195.43-26.05L195.43-26.05 195.18-21.3Q194.43-21.6 193.68-21.73 192.93-21.85 192.23-21.85L192.23-21.85Q190.28-21.85 188.86-20.6 187.43-19.35 186.48-17.23 185.53-15.1 184.93-12.45L184.93-12.45 184.93 0ZM206.28 0.65L206.28 0.65Q204.18 0.65 202.48-0.18 200.78-1 199.78-2.63 198.78-4.25 198.78-6.75L198.78-6.75Q198.78-8.6 199.46-10 200.13-11.4 201.56-12.4 202.98-13.4 205.23-14.05 207.48-14.7 210.73-15.15L210.73-15.15Q212.58-15.4 213.76-15.65 214.93-15.9 215.48-16.48 216.03-17.05 216.03-18.2L216.03-18.2Q216.03-20.1 214.73-21.4 213.43-22.7 210.63-22.7L210.63-22.7Q209.18-22.7 207.68-22.2 206.18-21.7 205.06-20.53 203.93-19.35 203.63-17.25L203.63-17.25 199.43-18.65Q199.83-20.45 200.76-21.9 201.68-23.35 203.13-24.38 204.58-25.4 206.51-25.95 208.43-26.5 210.78-26.5L210.78-26.5Q214.03-26.5 216.21-25.4 218.38-24.3 219.46-22.03 220.53-19.75 220.53-16.2L220.53-16.2 220.53-10.45Q220.53-8.9 220.61-7.08 220.68-5.25 220.83-3.43 220.98-1.6 221.13 0L221.13 0 216.93 0Q216.78-1.6 216.66-3.2 216.53-4.8 216.48-6.4L216.48-6.4 215.83-6.4Q215.08-4.55 213.83-2.95 212.58-1.35 210.71-0.35 208.83 0.65 206.28 0.65ZM207.63-3.05L207.63-3.05Q208.73-3.05 209.86-3.4 210.98-3.75 212.11-4.55 213.23-5.35 214.26-6.6 215.28-7.85 216.08-9.6L216.08-9.6 216.08-14.6 217.38-14.35Q216.58-13.55 215.26-13.15 213.93-12.75 212.33-12.5 210.73-12.25 209.13-11.98 207.53-11.7 206.21-11.18 204.88-10.65 204.08-9.7 203.28-8.75 203.28-7.1L203.28-7.1Q203.28-5.1 204.48-4.08 205.68-3.05 207.63-3.05ZM236.23 0.5L236.23 0.5Q232.63 0.5 230.88-1.45 229.13-3.4 229.13-7.4L229.13-7.4 229.13-22.05 225.23-22.05 225.28-25.85 227.73-25.85Q228.98-25.85 229.55-26.3 230.13-26.75 230.23-27.8L230.23-27.8 230.73-31.7 233.53-31.7 233.53-25.85 240.98-25.85 240.98-22 233.53-22 233.53-7.5Q233.53-5.5 234.45-4.63 235.38-3.75 237.13-3.75L237.13-3.75Q238.08-3.75 239.1-4 240.13-4.25 241.13-5L241.13-5 241.13-0.45Q239.68 0.1 238.45 0.3 237.23 0.5 236.23 0.5ZM257.83 0.65L257.83 0.65Q254.78 0.65 252.45-0.28 250.13-1.2 248.53-2.95 246.93-4.7 246.13-7.1 245.33-9.5 245.33-12.5L245.33-12.5Q245.33-15.55 246.13-18.1 246.93-20.65 248.48-22.55 250.03-24.45 252.28-25.48 254.53-26.5 257.43-26.5L257.43-26.5Q259.98-26.5 262.08-25.65 264.18-24.8 265.65-23.03 267.13-21.25 267.88-18.57 268.63-15.9 268.48-12.3L268.48-12.3 248.18-12.15 248.18-15.25 265.73-15.4 264.18-13.3Q264.43-16.45 263.58-18.5 262.73-20.55 261.15-21.6 259.58-22.65 257.43-22.65L257.43-22.65Q255.13-22.65 253.38-21.45 251.63-20.25 250.7-18 249.78-15.75 249.78-12.55L249.78-12.55Q249.78-7.95 251.83-5.53 253.88-3.1 257.88-3.1L257.88-3.1Q259.48-3.1 260.65-3.48 261.83-3.85 262.65-4.53 263.48-5.2 264-6.1 264.53-7 264.83-8.05L264.83-8.05 268.83-7.1Q268.38-5.3 267.45-3.88 266.53-2.45 265.15-1.45 263.78-0.45 261.98 0.1 260.18 0.65 257.83 0.65ZM274.82 6.85L271.02 6.85Q271.92 4.5 272.3 2.65 272.67 0.8 272.75-0.83 272.82-2.45 272.82-4.05L272.82-4.05 277.17-4.05Q277.17-1.45 276.85 0.58 276.52 2.6 275.97 4.13 275.42 5.65 274.82 6.85L274.82 6.85ZM309.32 0.65L309.32 0.65Q305.77 0.65 302.94-0.45 300.12-1.55 298.17-3.7 296.22-5.85 295.19-8.97 294.17-12.1 294.17-16.1L294.17-16.1Q294.17-20.15 295.22-23.38 296.27-26.6 298.22-28.9 300.17-31.2 302.92-32.43 305.67-33.65 309.07-33.65L309.07-33.65Q311.67-33.65 313.87-32.93 316.07-32.2 317.69-30.83 319.32-29.45 320.22-27.5 321.12-25.55 321.17-23.15L321.17-23.15 316.82-22.05Q316.87-24.6 315.77-26.28 314.67-27.95 312.87-28.8 311.07-29.65 308.97-29.65L308.97-29.65Q307.02-29.65 305.19-28.88 303.37-28.1 301.97-26.48 300.57-24.85 299.74-22.33 298.92-19.8 298.92-16.25L298.92-16.25Q298.92-11.7 300.24-8.9 301.57-6.1 303.97-4.78 306.37-3.45 309.52-3.45L309.52-3.45Q312.57-3.45 314.42-4.58 316.27-5.7 317.17-7.73 318.07-9.75 318.22-12.4L318.22-12.4 322.32-11.65Q322.27-9.15 321.52-6.9 320.77-4.65 319.22-2.95 317.67-1.25 315.22-0.3 312.77 0.65 309.32 0.65ZM339.42 0.65L339.42 0.65Q335.72 0.65 332.89-0.98 330.07-2.6 328.49-5.65 326.92-8.7 326.92-13.05L326.92-13.05Q326.92-17.55 328.59-20.53 330.27-23.5 333.07-25 335.87-26.5 339.32-26.5L339.32-26.5Q342.92-26.5 345.74-24.93 348.57-23.35 350.22-20.33 351.87-17.3 351.87-12.85L351.87-12.85Q351.87-8.4 350.24-5.4 348.62-2.4 345.79-0.88 342.97 0.65 339.42 0.65ZM339.62-3.1L339.62-3.1Q342.02-3.1 343.74-4.28 345.47-5.45 346.39-7.6 347.32-9.75 347.32-12.7L347.32-12.7Q347.32-15.75 346.34-17.98 345.37-20.2 343.57-21.43 341.77-22.65 339.22-22.65L339.22-22.65Q336.87-22.65 335.14-21.55 333.42-20.45 332.47-18.32 331.52-16.2 331.52-13.15L331.52-13.15Q331.52-8.45 333.69-5.78 335.87-3.1 339.62-3.1ZM367.46 0.65L367.46 0.65Q364.16 0.65 361.81-1.1 359.46-2.85 358.24-5.9 357.01-8.95 357.01-12.9L357.01-12.9Q357.01-16.85 358.21-19.9 359.41-22.95 361.71-24.7 364.01-26.45 367.36-26.45L367.36-26.45Q370.11-26.45 371.86-25.3 373.61-24.15 374.69-22.33 375.76-20.5 376.26-18.35L376.26-18.35 377.16-18.35Q376.91-19.8 376.71-21.38 376.51-22.95 376.36-24.48 376.21-26 376.21-27.2L376.21-27.2 376.21-35 380.81-35 380.81-12.75 380.81 0 376.71 0 376.96-7 376.16-7Q375.56-4.75 374.46-3.03 373.36-1.3 371.66-0.33 369.96 0.65 367.46 0.65ZM368.51-3.35L368.51-3.35Q370.31-3.35 371.76-4.2 373.21-5.05 374.21-6.43 375.21-7.8 375.74-9.4 376.26-11 376.26-12.5L376.26-12.5 376.26-13.1Q376.26-14.15 375.96-15.38 375.66-16.6 375.09-17.85 374.51-19.1 373.59-20.18 372.66-21.25 371.41-21.88 370.16-22.5 368.61-22.5L368.61-22.5Q366.36-22.5 364.84-21.23 363.31-19.95 362.54-17.75 361.76-15.55 361.76-12.8L361.76-12.8Q361.76-9.95 362.56-7.83 363.36-5.7 364.89-4.53 366.41-3.35 368.51-3.35ZM399.81 0.65L399.81 0.65Q396.76 0.65 394.44-0.28 392.11-1.2 390.51-2.95 388.91-4.7 388.11-7.1 387.31-9.5 387.31-12.5L387.31-12.5Q387.31-15.55 388.11-18.1 388.91-20.65 390.46-22.55 392.01-24.45 394.26-25.48 396.51-26.5 399.41-26.5L399.41-26.5Q401.96-26.5 404.06-25.65 406.16-24.8 407.64-23.03 409.11-21.25 409.86-18.57 410.61-15.9 410.46-12.3L410.46-12.3 390.16-12.15 390.16-15.25 407.71-15.4 406.16-13.3Q406.41-16.45 405.56-18.5 404.71-20.55 403.14-21.6 401.56-22.65 399.41-22.65L399.41-22.65Q397.11-22.65 395.36-21.45 393.61-20.25 392.69-18 391.76-15.75 391.76-12.55L391.76-12.55Q391.76-7.95 393.81-5.53 395.86-3.1 399.86-3.1L399.86-3.1Q401.46-3.1 402.64-3.48 403.81-3.85 404.64-4.53 405.46-5.2 405.99-6.1 406.51-7 406.81-8.05L406.81-8.05 410.81-7.1Q410.36-5.3 409.44-3.88 408.51-2.45 407.14-1.45 405.76-0.45 403.96 0.1 402.16 0.65 399.81 0.65ZM416.81 6.85L413.01 6.85Q413.91 4.5 414.28 2.65 414.66 0.8 414.73-0.83 414.81-2.45 414.81-4.05L414.81-4.05 419.16-4.05Q419.16-1.45 418.83 0.58 418.51 2.6 417.96 4.13 417.41 5.65 416.81 6.85L416.81 6.85ZM451.3 0.65L451.3 0.65Q447.75 0.65 444.93-0.45 442.1-1.55 440.15-3.7 438.2-5.85 437.18-8.97 436.15-12.1 436.15-16.1L436.15-16.1Q436.15-20.15 437.2-23.38 438.25-26.6 440.2-28.9 442.15-31.2 444.9-32.43 447.65-33.65 451.05-33.65L451.05-33.65Q453.65-33.65 455.85-32.93 458.05-32.2 459.68-30.83 461.3-29.45 462.2-27.5 463.1-25.55 463.15-23.15L463.15-23.15 458.8-22.05Q458.85-24.6 457.75-26.28 456.65-27.95 454.85-28.8 453.05-29.65 450.95-29.65L450.95-29.65Q449-29.65 447.18-28.88 445.35-28.1 443.95-26.48 442.55-24.85 441.73-22.33 440.9-19.8 440.9-16.25L440.9-16.25Q440.9-11.7 442.23-8.9 443.55-6.1 445.95-4.78 448.35-3.45 451.5-3.45L451.5-3.45Q454.55-3.45 456.4-4.58 458.25-5.7 459.15-7.73 460.05-9.75 460.2-12.4L460.2-12.4 464.3-11.65Q464.25-9.15 463.5-6.9 462.75-4.65 461.2-2.95 459.65-1.25 457.2-0.3 454.75 0.65 451.3 0.65ZM474.85 0L470.3 0 470.3-14 470.3-25.85 474.4-25.85 474-16.85 474.85-16.85Q475.3-19.8 476.25-21.95 477.2-24.1 478.78-25.3 480.35-26.5 482.7-26.5L482.7-26.5Q483.2-26.5 483.85-26.43 484.5-26.35 485.35-26.05L485.35-26.05 485.1-21.3Q484.35-21.6 483.6-21.73 482.85-21.85 482.15-21.85L482.15-21.85Q480.2-21.85 478.78-20.6 477.35-19.35 476.4-17.23 475.45-15.1 474.85-12.45L474.85-12.45 474.85 0ZM501.35 0.65L501.35 0.65Q498.3 0.65 495.97-0.28 493.65-1.2 492.05-2.95 490.45-4.7 489.65-7.1 488.85-9.5 488.85-12.5L488.85-12.5Q488.85-15.55 489.65-18.1 490.45-20.65 492-22.55 493.55-24.45 495.8-25.48 498.05-26.5 500.95-26.5L500.95-26.5Q503.5-26.5 505.6-25.65 507.7-24.8 509.17-23.03 510.65-21.25 511.4-18.57 512.15-15.9 512-12.3L512-12.3 491.7-12.15 491.7-15.25 509.25-15.4 507.7-13.3Q507.95-16.45 507.1-18.5 506.25-20.55 504.67-21.6 503.1-22.65 500.95-22.65L500.95-22.65Q498.65-22.65 496.9-21.45 495.15-20.25 494.22-18 493.3-15.75 493.3-12.55L493.3-12.55Q493.3-7.95 495.35-5.53 497.4-3.1 501.4-3.1L501.4-3.1Q503-3.1 504.17-3.48 505.35-3.85 506.17-4.53 507-5.2 507.52-6.1 508.05-7 508.35-8.05L508.35-8.05 512.35-7.1Q511.9-5.3 510.97-3.88 510.05-2.45 508.67-1.45 507.3-0.45 505.5 0.1 503.7 0.65 501.35 0.65ZM524.39 0.65L524.39 0.65Q522.29 0.65 520.6-0.18 518.89-1 517.89-2.63 516.89-4.25 516.89-6.75L516.89-6.75Q516.89-8.6 517.57-10 518.25-11.4 519.67-12.4 521.1-13.4 523.35-14.05 525.6-14.7 528.85-15.15L528.85-15.15Q530.7-15.4 531.87-15.65 533.04-15.9 533.6-16.48 534.14-17.05 534.14-18.2L534.14-18.2Q534.14-20.1 532.85-21.4 531.54-22.7 528.75-22.7L528.75-22.7Q527.29-22.7 525.79-22.2 524.29-21.7 523.17-20.53 522.04-19.35 521.75-17.25L521.75-17.25 517.54-18.65Q517.95-20.45 518.87-21.9 519.79-23.35 521.25-24.38 522.7-25.4 524.62-25.95 526.54-26.5 528.89-26.5L528.89-26.5Q532.14-26.5 534.32-25.4 536.5-24.3 537.57-22.03 538.64-19.75 538.64-16.2L538.64-16.2 538.64-10.45Q538.64-8.9 538.72-7.08 538.79-5.25 538.95-3.43 539.1-1.6 539.25 0L539.25 0 535.04 0Q534.89-1.6 534.77-3.2 534.64-4.8 534.6-6.4L534.6-6.4 533.95-6.4Q533.2-4.55 531.95-2.95 530.7-1.35 528.82-0.35 526.95 0.65 524.39 0.65ZM525.75-3.05L525.75-3.05Q526.85-3.05 527.97-3.4 529.1-3.75 530.22-4.55 531.35-5.35 532.37-6.6 533.39-7.85 534.2-9.6L534.2-9.6 534.2-14.6 535.5-14.35Q534.7-13.55 533.37-13.15 532.04-12.75 530.45-12.5 528.85-12.25 527.25-11.98 525.64-11.7 524.32-11.18 523-10.65 522.2-9.7 521.39-8.75 521.39-7.1L521.39-7.1Q521.39-5.1 522.6-4.08 523.79-3.05 525.75-3.05ZM554.34 0.5L554.34 0.5Q550.74 0.5 548.99-1.45 547.24-3.4 547.24-7.4L547.24-7.4 547.24-22.05 543.34-22.05 543.39-25.85 545.84-25.85Q547.09-25.85 547.67-26.3 548.24-26.75 548.34-27.8L548.34-27.8 548.84-31.7 551.64-31.7 551.64-25.85 559.09-25.85 559.09-22 551.64-22 551.64-7.5Q551.64-5.5 552.57-4.63 553.49-3.75 555.24-3.75L555.24-3.75Q556.19-3.75 557.22-4 558.24-4.25 559.24-5L559.24-5 559.24-0.45Q557.79 0.1 556.57 0.3 555.34 0.5 554.34 0.5ZM575.94 0.65L575.94 0.65Q572.89 0.65 570.56-0.28 568.24-1.2 566.64-2.95 565.04-4.7 564.24-7.1 563.44-9.5 563.44-12.5L563.44-12.5Q563.44-15.55 564.24-18.1 565.04-20.65 566.59-22.55 568.14-24.45 570.39-25.48 572.64-26.5 575.54-26.5L575.54-26.5Q578.09-26.5 580.19-25.65 582.29-24.8 583.76-23.03 585.24-21.25 585.99-18.57 586.74-15.9 586.59-12.3L586.59-12.3 566.29-12.15 566.29-15.25 583.84-15.4 582.29-13.3Q582.54-16.45 581.69-18.5 580.84-20.55 579.26-21.6 577.69-22.65 575.54-22.65L575.54-22.65Q573.24-22.65 571.49-21.45 569.74-20.25 568.81-18 567.89-15.75 567.89-12.55L567.89-12.55Q567.89-7.95 569.94-5.53 571.99-3.1 575.99-3.1L575.99-3.1Q577.59-3.1 578.76-3.48 579.94-3.85 580.76-4.53 581.59-5.2 582.11-6.1 582.64-7 582.94-8.05L582.94-8.05 586.94-7.1Q586.49-5.3 585.56-3.88 584.64-2.45 583.26-1.45 581.89-0.45 580.09 0.1 578.29 0.65 575.94 0.65Z" opacity="1" transform="matrix(1,0,0,1,0,0)" fill="#ef5b2a" class="slogan-text-1" data-fill-palette-color="secondary" id="text-1"></path></svg></g></svg></g></svg></g></svg></g><g><svg viewBox="0 0 183.86753481509123 136.4184776022148" height="136.4184776022148" width="183.86753481509123"><g><svg xmlns="http://www.w3.org/2000/svg" xmlns:xlink="http://www.w3.org/1999/xlink" version="1.1" x="0" y="0" viewBox="5.13240895558934 16.710673764624296 89.73559104441065 66.5783262353757" enable-background="new 0 0 100 100" xml:space="preserve" height="136.4184776022148" width="183.86753481509123" class="icon-icon-0" data-fill-palette-color="accent" id="icon-0"><g fill="#301c3b" data-fill-palette-color="accent"><g fill="#301c3b" data-fill-palette-color="accent"><path fill-rule="evenodd" clip-rule="evenodd" d="M74.326 68.963C73.528 68.818 72.426 68.64 71.334 68.408 70.993 68.337 70.667 68.153 70.36 67.976 69.035 67.209 68.614 66.022 69.43 64.729 70.123 63.626 71.003 62.612 71.931 61.692 73.525 60.11 75.228 58.635 76.871 57.104 81.423 52.863 84.683 47.791 86.695 41.904 87.023 40.946 87.401 39.996 87.853 39.092 88.751 37.304 89.853 37.165 91.197 38.635 92.517 40.08 93.28 41.837 93.719 43.704 95.587 51.668 93.383 58.396 87.348 63.847 84.443 66.473 80.975 68.055 77.098 68.683 76.294 68.814 75.471 68.851 74.326 68.963" fill="#301c3b" data-fill-palette-color="accent"></path><path fill-rule="evenodd" clip-rule="evenodd" d="M92.634 38.514C91.981 37.465 91.342 36.361 90.622 35.313 89.883 34.237 89.012 33.264 87.907 32.535 86.401 31.54 85.435 31.873 85.07 33.62 84.768 35.063 84.586 36.537 84.434 38.007 83.631 45.858 80.055 52.127 73.782 56.891 70.671 59.252 67.247 61.079 63.797 62.868 61.899 63.85 59.968 64.783 58.311 66.165A6.5 6.5 0 0 0 57.252 67.29C56.489 68.335 56.544 69.488 57.38 70.481 58.454 71.761 59.917 72.415 61.451 72.926 64.373 73.9 67.39 74.107 70.434 73.872 75.32 73.492 79.863 72.013 83.947 69.282 89.682 65.447 93.363 60.208 94.635 53.362 94.657 53.243 94.697 53.129 94.729 53.013L94.868 53.042C94.687 53.914 94.544 54.795 94.321 55.655 92.086 64.235 86.751 70.248 78.868 74.067 73.602 76.618 68.002 77.648 62.156 77.331 58.2 77.115 54.39 76.301 50.833 74.503 49.328 73.743 47.924 72.826 46.865 71.479 46.21 70.645 45.731 69.739 45.99 68.621 46.192 67.751 46.777 67.153 47.472 66.661 48.918 65.64 50.582 65.094 52.251 64.582 55.654 63.537 59.089 62.585 62.466 61.465 66.444 60.148 70.182 58.319 73.493 55.702 78.146 52.023 81.022 47.306 81.84 41.393 82.156 39.102 82.107 36.805 81.93 34.503A139 139 0 0 1 81.659 29.541C81.647 29.252 81.75 28.94 81.864 28.666 82.116 28.067 82.672 27.756 83.314 28.029 84.205 28.406 85.12 28.831 85.863 29.433 88.87 31.869 90.98 35.005 92.64 38.464 92.651 38.49 92.632 38.53 92.634 38.514" fill="#301c3b" data-fill-palette-color="accent"></path><path fill-rule="evenodd" clip-rule="evenodd" d="M43.539 16.952C42.475 17.227 41.416 17.466 40.38 17.784A6.5 6.5 0 0 0 38.79 18.522C38.509 18.701 38.196 19.072 38.193 19.359 38.192 19.58 38.619 19.912 38.916 20.006 39.88 20.313 40.863 20.581 41.855 20.781 46.541 21.727 51.155 22.908 55.567 24.793 60.805 27.031 65.547 30.063 69.937 33.67 70.348 34.008 70.758 34.348 71.127 34.745L67.852 32.616C63.339 29.687 58.639 27.137 53.503 25.452 48.42 23.785 43.226 22.94 37.873 23.246 35.21 23.398 32.599 23.859 30.119 24.894 25.312 26.899 22.53 30.6 21.362 35.569 20.216 40.447 21.008 45.163 22.776 49.765 22.838 49.924 22.896 50.085 22.956 50.245L22.813 50.307C22.214 48.986 21.576 47.679 21.024 46.337 19.659 43.011 18.981 39.526 18.671 35.956A23.5 23.5 0 0 0 18.241 32.943C17.974 31.722 17.255 31.341 16.052 31.698 14.757 32.083 13.689 32.867 12.71 33.757 8.939 37.189 6.745 41.488 5.938 46.486 4.912 52.837 6.388 58.687 9.674 64.138 9.782 64.32 9.89 64.498 9.937 64.727 9.884 64.663 9.825 64.602 9.779 64.533 7.215 60.638 5.58 56.401 5.215 51.735 4.705 45.214 6.568 39.374 10.497 34.177 13.339 30.419 16.963 27.557 20.975 25.158 25.031 22.732 29.164 20.458 33.658 18.917 36.744 17.858 39.939 17.341 43.163 16.952 43.285 16.939 43.411 16.952 43.539 16.952" fill="#301c3b" data-fill-palette-color="accent"></path><path fill-rule="evenodd" clip-rule="evenodd" d="M61.55 61.343C59.39 61.775 57.242 62.303 55.066 62.616 51.52 63.128 47.954 63.486 44.399 63.932 42.685 64.149 40.973 64.41 39.361 65.083 36.729 66.186 36.122 68.107 37.654 70.527 38.775 72.299 40.369 73.589 42.107 74.704 45.589 76.943 49.43 78.263 53.472 79.027 57.301 79.75 61.16 79.894 65.032 79.45 71.435 78.716 77.33 76.613 82.554 72.775 82.691 72.673 82.834 72.587 82.975 72.492 83.002 72.533 83.032 72.571 83.06 72.611 82.066 73.336 81.089 74.088 80.073 74.78 75.207 78.1 69.831 80.128 64.011 80.968 55.586 82.184 47.486 81.089 39.788 77.393 36.628 75.875 33.759 73.928 31.437 71.26 30.339 69.999 29.414 68.632 29.033 66.966 28.634 65.221 29.283 63.855 30.898 63.093 31.998 62.574 33.182 62.348 34.377 62.351 37.141 62.353 39.906 62.393 42.667 62.503 46.913 62.673 51.16 62.829 55.39 62.309 57.45 62.054 59.489 61.622 61.536 61.27z" fill="#301c3b" data-fill-palette-color="accent"></path><path fill-rule="evenodd" clip-rule="evenodd" d="M65.631 81.426C63.879 81.803 62.135 82.223 60.373 82.549A42.4 42.4 0 0 1 47.745 82.966C39.341 81.999 31.708 79.104 25.171 73.624 22.13 71.077 19.604 68.096 18.079 64.378 17.404 62.731 16.974 61.027 17.289 59.219 17.612 57.367 18.956 56.202 20.835 56.118 22.428 56.047 23.963 56.358 25.458 56.843 28.605 57.867 31.726 58.979 34.877 59.991 37.074 60.696 39.305 61.298 41.366 61.899 40.358 61.72 39.18 61.508 38.002 61.301 35.18 60.8 32.361 60.271 29.532 59.813 28.175 59.593 26.799 59.559 25.434 59.854 23.32 60.312 22.246 61.877 22.566 64.03 22.882 66.156 23.892 67.964 25.17 69.634 28.063 73.414 31.84 76.08 36.061 78.161 40.363 80.283 44.916 81.58 49.677 82.16 54.914 82.796 60.101 82.556 65.236 81.319 65.355 81.292 65.479 81.283 65.6 81.265z" fill="#301c3b" data-fill-palette-color="accent"></path><path fill-rule="evenodd" clip-rule="evenodd" d="M44.913 83.289C43.169 83.039 41.414 82.853 39.685 82.529 33.083 81.299 27.044 78.747 21.703 74.645 17.257 71.232 13.703 67.086 11.558 61.847 10.431 59.092 9.807 56.236 10.122 53.236 10.275 51.783 10.639 50.393 11.527 49.196 12.548 47.819 13.925 47.361 15.588 47.838 17.213 48.306 18.565 49.274 19.906 50.248 22.99 52.491 26.055 54.76 29.141 56.999 29.738 57.433 30.393 57.785 30.982 58.248 30.324 57.916 29.663 57.587 29.006 57.252 26.34 55.895 23.694 54.494 20.996 53.204 20.046 52.748 18.99 52.455 17.95 52.264 15.121 51.747 13.704 53.531 13.325 55.743 12.906 58.195 13.43 60.531 14.335 62.796 15.866 66.629 18.307 69.83 21.331 72.591 27.486 78.21 34.787 81.429 42.955 82.8 43.615 82.913 44.279 83.003 44.941 83.105z" fill="#301c3b" data-fill-palette-color="accent"></path><path fill-rule="evenodd" clip-rule="evenodd" d="M26.441 78.456C24.935 77.625 23.396 76.85 21.929 75.953 16.472 72.621 12.11 68.233 9.212 62.482 7.166 58.423 6.156 54.124 6.495 49.567 6.753 46.091 7.745 42.85 9.92 40.056 10.614 39.164 11.417 38.377 12.469 37.9 13.629 37.375 14.65 37.5 15.482 38.459 16.163 39.246 16.738 40.141 17.259 41.046 18.778 43.684 20.167 46.4 21.762 48.989 22.777 50.635 24.067 52.111 25.232 53.663 25.291 53.739 25.346 53.816 25.334 53.957 25.145 53.78 24.947 53.613 24.771 53.426 22.437 50.92 20.123 48.396 17.767 45.911 17.022 45.125 16.224 44.365 15.348 43.735 13.556 42.445 11.755 42.758 10.361 44.486 9.114 46.028 8.484 47.835 8.187 49.759 7.418 54.738 8.595 59.358 10.935 63.716 14.088 69.591 18.79 73.93 24.523 77.22 25.185 77.6 25.866 77.95 26.538 78.313 26.504 78.36 26.473 78.408 26.441 78.456" fill="#301c3b" data-fill-palette-color="accent"></path><path fill-rule="evenodd" clip-rule="evenodd" d="M21.966 46.788C21.889 46.054 21.789 45.32 21.74 44.583 21.457 40.259 22.268 36.203 24.783 32.594 27.09 29.286 30.303 27.231 34.102 26.047 37.87 24.874 41.729 24.66 45.64 25.023 52.036 25.615 57.948 27.77 63.661 30.572 64.202 30.838 64.744 31.105 65.255 31.438L61.132 29.924C57.532 28.606 53.889 27.439 50.093 26.819 44.648 25.929 39.246 25.931 34.016 27.943 27.43 30.476 23.505 35.242 22.341 42.229 22.215 42.983 22.151 43.753 22.112 44.517 22.074 45.265 22.104 46.015 22.104 46.764z" fill="#301c3b" data-fill-palette-color="accent"></path><path fill-rule="evenodd" clip-rule="evenodd" d="M75.267 38.73C74.745 38.138 74.221 37.547 73.701 36.955 67.639 30.046 60.232 25.045 51.784 21.521A104 104 0 0 1 47.541 19.633 6.6 6.6 0 0 1 46.116 18.703C45.572 18.242 45.631 17.684 46.302 17.397 47.029 17.086 47.819 16.783 48.593 16.752 50.637 16.669 52.687 16.735 54.736 16.745 54.796 16.745 54.857 16.78 55.043 16.836 54.318 16.906 53.72 16.929 53.138 17.03 52.641 17.116 52.038 17.167 51.877 17.76 51.716 18.354 52.181 18.746 52.596 19.029 54.138 20.083 55.686 21.132 57.278 22.107 61.978 24.984 66.412 28.195 70.213 32.219A49 49 0 0 1 75.156 38.387C75.221 38.484 75.274 38.588 75.333 38.689z" fill="#301c3b" data-fill-palette-color="accent"></path><path fill-rule="evenodd" clip-rule="evenodd" d="M81.998 26.127C81.645 25.942 81.303 25.733 80.936 25.578 80.513 25.399 80.078 25.227 79.631 25.122 78.656 24.893 78.046 25.336 78.129 26.338 78.221 27.412 78.471 28.476 78.694 29.535 79.216 32.005 79.946 34.446 80.27 36.94 81.194 44.036 79.181 50.145 73.705 54.941 73.951 54.69 74.201 54.445 74.441 54.187 74.698 53.916 74.957 53.643 75.196 53.357 78.224 49.69 79.448 45.443 79.231 40.738 79.044 36.74 77.788 33.027 76.233 29.39A152 152 0 0 1 74.459 25.043C74.317 24.684 74.248 24.286 74.208 23.9 74.126 23.1 74.564 22.614 75.367 22.673A5.6 5.6 0 0 1 76.87 23.007C78.772 23.713 80.395 24.906 81.998 26.127" fill="#301c3b" data-fill-palette-color="accent"></path><path fill-rule="evenodd" clip-rule="evenodd" d="M77.751 43.611C76.375 39.438 74.234 35.824 71.581 32.5 69.055 29.334 66.114 26.587 62.975 24.042 61.465 22.818 59.949 21.604 58.458 20.357A8 8 0 0 1 57.247 19.082C56.629 18.268 56.858 17.651 57.862 17.473 58.487 17.363 59.151 17.302 59.773 17.39 61.235 17.596 62.681 17.903 64.133 18.172 64.212 18.187 64.286 18.229 64.472 18.301 63.782 18.301 63.21 18.256 62.648 18.311 61.744 18.4 61.443 18.937 61.919 19.718A12 12 0 0 0 63.409 21.661C65.489 23.89 67.676 26.023 69.689 28.311 73.283 32.392 76.109 36.932 77.516 42.253 77.611 42.614 77.688 42.979 77.767 43.343 77.779 43.394 77.763 43.448 77.751 43.611" fill="#301c3b" data-fill-palette-color="accent"></path><path fill-rule="evenodd" clip-rule="evenodd" d="M77.906 48.028C77.941 47.73 77.982 47.432 78.01 47.132 78.43 42.601 77.231 38.416 75.269 34.397 73.619 31.012 71.399 28.002 69.082 25.056A67 67 0 0 1 66.811 22.017 6 6 0 0 1 66.081 20.541C65.872 19.955 66.154 19.463 66.769 19.409 67.397 19.354 68.072 19.343 68.665 19.517A48 48 0 0 1 73.441 21.221C72.763 21.106 72.088 20.929 71.406 20.891 70.464 20.838 70.041 21.357 70.383 22.247A21.4 21.4 0 0 0 71.896 25.355C73.573 28.211 75.316 31.029 76.559 34.116 77.89 37.424 78.715 40.834 78.52 44.425 78.455 45.638 78.236 46.843 78.085 48.051A4 4 0 0 1 77.906 48.028" fill="#301c3b" data-fill-palette-color="accent"></path><path fill-rule="evenodd" clip-rule="evenodd" d="M22.331 43.36C22.637 42.347 22.886 41.313 23.256 40.324 25.539 34.222 29.991 30.447 36.097 28.502 39.497 27.419 43 27.109 46.554 27.268 50.275 27.435 53.905 28.149 57.508 29.038 57.603 29.062 57.694 29.112 57.902 29.197 56.173 28.963 54.573 28.733 52.968 28.53 47.749 27.873 42.548 27.734 37.425 29.199 30.075 31.302 24.986 35.826 22.562 43.176L22.483 43.405C22.432 43.392 22.381 43.375 22.331 43.36" fill="#301c3b" data-fill-palette-color="accent"></path><path fill-rule="evenodd" clip-rule="evenodd" d="M48.016 28.454C45.354 28.696 42.729 29.062 40.138 29.659 34.663 30.919 29.831 33.346 25.969 37.515 25.661 37.848 25.369 38.193 25.069 38.532L24.965 38.445C25.492 37.811 25.996 37.157 26.549 36.547 29.682 33.093 33.592 30.928 38.046 29.686 41.227 28.798 44.486 28.498 47.773 28.425 47.854 28.424 47.935 28.444 48.016 28.454" fill="#301c3b" data-fill-palette-color="accent"></path><path fill-rule="evenodd" clip-rule="evenodd" d="M14.697 28.899L12.692 30.95 14.766 28.944C14.743 28.929 14.719 28.915 14.697 28.899" fill="#301c3b" data-fill-palette-color="accent"></path></g></g></svg></g></svg></g></svg></g><defs></defs><mask id="5eaa61f5-04b4-41ce-b09a-432e5213f3e6"><g id="SvgjsG6226"><svg viewBox="0 0 395.52 91.5311559017009" height="91.5311559017009" width="395.52"><g><svg viewBox="0 0 589.4849216060795 136.4184776022148" height="91.5311559017009" width="395.52"><g transform="matrix(1,0,0,1,193.9649216060795,34.40413264113109)"><svg viewBox="0 0 395.52 67.61021231995262" height="67.61021231995262" width="395.52"><g id="SvgjsG6225"><svg viewBox="0 0 395.52 67.61021231995262" height="67.61021231995262" width="395.52" id="SvgjsSvg6224"><g><svg viewBox="0 0 395.52 42.77176329227997" height="42.77176329227997" width="395.52"><g transform="matrix(1,0,0,1,0,0)"><svg width="395.52" viewBox="1.75 -35.75 332.88 36" height="42.77176329227997" data-palette-color="url(#2cbf0580-8618-44d9-acc1-32dd33214093)"><path d="M33.2 0.25L15.95 0.25Q9.25 0.25 5.5-3.08 1.75-6.4 1.75-12.85L1.75-12.85Q1.75-19.35 5.5-22.68 9.25-26 15.95-26L15.95-26 32.7-26 32.7-20.25 15.95-20.25Q12.7-20.25 10.98-18.45 9.25-16.65 9.25-12.85L9.25-12.85Q9.25-9.1 10.98-7.3 12.7-5.5 15.95-5.5L15.95-5.5 33.2-5.5 33.2 0.25ZM59.4 0.25L50.15 0.25Q43.45 0.25 39.7-3.08 35.95-6.4 35.95-12.85L35.95-12.85Q35.95-19.35 39.7-22.68 43.45-26 50.15-26L50.15-26 59.4-26Q66.1-26 69.85-22.68 73.6-19.35 73.6-12.85L73.6-12.85Q73.6-6.4 69.85-3.08 66.1 0.25 59.4 0.25L59.4 0.25ZM50.15-5.5L50.15-5.5 59.4-5.5Q62.65-5.5 64.37-7.3 66.1-9.1 66.1-12.85L66.1-12.85Q66.1-16.65 64.37-18.45 62.65-20.25 59.4-20.25L59.4-20.25 50.15-20.25Q46.9-20.25 45.17-18.45 43.45-16.65 43.45-12.85L43.45-12.85Q43.45-9.1 45.17-7.3 46.9-5.5 50.15-5.5ZM102.55 0L109.8 0 109.8-35.75 102.55-35.75 102.55 0ZM91.3 0L108.55 0 108.55-5.75 91.3-5.75Q88.05-5.75 86.32-7.53 84.6-9.3 84.6-12.85L84.6-12.85Q84.6-16.45 86.32-18.23 88.05-20 91.3-20L91.3-20 108.05-20 108.05-25.75 91.3-25.75Q84.6-25.75 80.85-22.45 77.1-19.15 77.1-12.85L77.1-12.85Q77.1-6.6 80.85-3.3 84.6 0 91.3 0L91.3 0ZM148.74 0.25L128.49 0.25Q121.79 0.25 118.04-3.08 114.29-6.4 114.29-12.85L114.29-12.85Q114.29-19.35 118.04-22.68 121.79-26 128.49-26L128.49-26 140.99-26Q145.39-26 147.72-23.93 150.04-21.85 150.04-18L150.04-18Q150.04-10.15 140.99-10.15L140.99-10.15 122.09-10.15Q123.14-5.5 128.49-5.5L128.49-5.5 148.74-5.5 148.74 0.25ZM140.64-20.25L128.49-20.25Q123.34-20.25 122.14-15.9L122.14-15.9 140.64-15.9Q141.64-15.9 142.22-16.5 142.79-17.1 142.79-18.15L142.79-18.15Q142.79-20.25 140.64-20.25L140.64-20.25ZM179.49 0.25L153.69 0.25 153.69-5.5 178.19-5.5Q180.29-5.5 180.29-7.85L180.29-7.85Q180.29-10.15 178.19-10.15L178.19-10.15 162.34-10.15Q157.89-10.15 155.59-12.18 153.29-14.2 153.29-18L153.29-18Q153.29-21.85 155.62-23.93 157.94-26 162.34-26L162.34-26 185.14-26 185.14-20.25 162.69-20.25Q160.54-20.25 160.54-18.15L160.54-18.15Q160.54-17.1 161.14-16.5 161.74-15.9 162.69-15.9L162.69-15.9 179.49-15.9Q183.39-15.9 185.47-13.88 187.54-11.85 187.54-8L187.54-8Q187.54-4.1 185.44-1.93 183.34 0.25 179.49 0.25L179.49 0.25ZM199.04 0L191.79 0 191.79-35.75 199.04-35.75 199.04-25.75 214.24-25.75Q218.64-25.75 220.66-23.58 222.69-21.4 222.69-17.85L222.69-17.85 222.69 0 215.44 0 215.44-17Q215.44-20 212.44-20L212.44-20 199.04-20 199.04 0ZM261.24 0L234.79 0Q230.74 0 228.59-2.05 226.44-4.1 226.44-7.9L226.44-7.9Q226.44-11.65 228.59-13.7 230.74-15.75 234.79-15.75L234.79-15.75 253.99-15.75 253.99-16.95Q253.99-20 250.99-20L250.99-20 229.79-20 229.79-25.75 252.89-25.75Q257.44-25.75 259.34-23.68 261.24-21.6 261.24-17.85L261.24-17.85 261.24 0ZM236.09-5.75L236.09-5.75 253.99-5.75 253.99-10 236.09-10Q235.14-10 234.61-9.43 234.09-8.85 234.09-7.9L234.09-7.9Q234.09-6.95 234.61-6.35 235.14-5.75 236.09-5.75ZM274.08 0L266.73 0 266.73-25.75 286.43-25.75Q290.78-25.75 292.83-23.58 294.88-21.4 294.88-17.85L294.88-17.85 294.88-12.5 287.53-12.5 287.53-16.95Q287.53-19.95 284.53-19.95L284.53-19.95 274.08-19.95 274.08 0ZM333.33 0.25L313.08 0.25Q306.38 0.25 302.63-3.08 298.88-6.4 298.88-12.85L298.88-12.85Q298.88-19.35 302.63-22.68 306.38-26 313.08-26L313.08-26 325.58-26Q329.98-26 332.31-23.93 334.63-21.85 334.63-18L334.63-18Q334.63-10.15 325.58-10.15L325.58-10.15 306.68-10.15Q307.73-5.5 313.08-5.5L313.08-5.5 333.33-5.5 333.33 0.25ZM325.23-20.25L313.08-20.25Q307.93-20.25 306.73-15.9L306.73-15.9 325.23-15.9Q326.23-15.9 326.81-16.5 327.38-17.1 327.38-18.15L327.38-18.15Q327.38-20.25 325.23-20.25L325.23-20.25Z" opacity="1" transform="matrix(1,0,0,1,0,0)" fill="white" class="wordmark-text-0" id="SvgjsPath6223"></path></svg></g></svg></g><g transform="matrix(1,0,0,1,94.92479999999999,52.86915008326826)"><svg viewBox="0 0 205.6704 14.741062236684366" height="14.741062236684366" width="205.6704"><g transform="matrix(1,0,0,1,0,0)"><svg width="205.6704" viewBox="3.0999999999999996 -35 583.84 41.85" height="14.741062236684366" data-palette-color="#ef5b2a"><path d="M18.25 0.65L18.25 0.65Q14.7 0.65 11.88-0.45 9.05-1.55 7.1-3.7 5.15-5.85 4.13-8.97 3.1-12.1 3.1-16.1L3.1-16.1Q3.1-20.15 4.15-23.38 5.2-26.6 7.15-28.9 9.1-31.2 11.85-32.43 14.6-33.65 18-33.65L18-33.65Q20.6-33.65 22.8-32.93 25-32.2 26.63-30.83 28.25-29.45 29.15-27.5 30.05-25.55 30.1-23.15L30.1-23.15 25.75-22.05Q25.8-24.6 24.7-26.28 23.6-27.95 21.8-28.8 20-29.65 17.9-29.65L17.9-29.65Q15.95-29.65 14.13-28.88 12.3-28.1 10.9-26.48 9.5-24.85 8.68-22.33 7.85-19.8 7.85-16.25L7.85-16.25Q7.85-11.7 9.18-8.9 10.5-6.1 12.9-4.78 15.3-3.45 18.45-3.45L18.45-3.45Q21.5-3.45 23.35-4.58 25.2-5.7 26.1-7.73 27-9.75 27.15-12.4L27.15-12.4 31.25-11.65Q31.2-9.15 30.45-6.9 29.7-4.65 28.15-2.95 26.6-1.25 24.15-0.3 21.7 0.65 18.25 0.65ZM48.35 0.65L48.35 0.65Q44.65 0.65 41.82-0.98 39-2.6 37.42-5.65 35.85-8.7 35.85-13.05L35.85-13.05Q35.85-17.55 37.52-20.53 39.2-23.5 42-25 44.8-26.5 48.25-26.5L48.25-26.5Q51.85-26.5 54.67-24.93 57.5-23.35 59.15-20.33 60.8-17.3 60.8-12.85L60.8-12.85Q60.8-8.4 59.17-5.4 57.55-2.4 54.72-0.88 51.9 0.65 48.35 0.65ZM48.55-3.1L48.55-3.1Q50.95-3.1 52.67-4.28 54.4-5.45 55.32-7.6 56.25-9.75 56.25-12.7L56.25-12.7Q56.25-15.75 55.27-17.98 54.3-20.2 52.5-21.43 50.7-22.65 48.15-22.65L48.15-22.65Q45.8-22.65 44.07-21.55 42.35-20.45 41.4-18.32 40.45-16.2 40.45-13.15L40.45-13.15Q40.45-8.45 42.62-5.78 44.8-3.1 48.55-3.1ZM71.85 0L67.3 0 67.3-35 71.85-35 71.85 0ZM84.24 0L79.69 0 79.69-35 84.24-35 84.24 0ZM98.04 0.65L98.04 0.65Q95.94 0.65 94.24-0.18 92.54-1 91.54-2.63 90.54-4.25 90.54-6.75L90.54-6.75Q90.54-8.6 91.22-10 91.89-11.4 93.32-12.4 94.74-13.4 96.99-14.05 99.24-14.7 102.49-15.15L102.49-15.15Q104.34-15.4 105.52-15.65 106.69-15.9 107.24-16.48 107.79-17.05 107.79-18.2L107.79-18.2Q107.79-20.1 106.49-21.4 105.19-22.7 102.39-22.7L102.39-22.7Q100.94-22.7 99.44-22.2 97.94-21.7 96.82-20.53 95.69-19.35 95.39-17.25L95.39-17.25 91.19-18.65Q91.59-20.45 92.52-21.9 93.44-23.35 94.89-24.38 96.34-25.4 98.27-25.95 100.19-26.5 102.54-26.5L102.54-26.5Q105.79-26.5 107.97-25.4 110.14-24.3 111.22-22.03 112.29-19.75 112.29-16.2L112.29-16.2 112.29-10.45Q112.29-8.9 112.37-7.08 112.44-5.25 112.59-3.43 112.74-1.6 112.89 0L112.89 0 108.69 0Q108.54-1.6 108.42-3.2 108.29-4.8 108.24-6.4L108.24-6.4 107.59-6.4Q106.84-4.55 105.59-2.95 104.34-1.35 102.47-0.35 100.59 0.65 98.04 0.65ZM99.39-3.05L99.39-3.05Q100.49-3.05 101.62-3.4 102.74-3.75 103.87-4.55 104.99-5.35 106.02-6.6 107.04-7.85 107.84-9.6L107.84-9.6 107.84-14.6 109.14-14.35Q108.34-13.55 107.02-13.15 105.69-12.75 104.09-12.5 102.49-12.25 100.89-11.98 99.29-11.7 97.97-11.18 96.64-10.65 95.84-9.7 95.04-8.75 95.04-7.1L95.04-7.1Q95.04-5.1 96.24-4.08 97.44-3.05 99.39-3.05ZM133.34 0.65L133.34 0.65Q130.84 0.65 129.06-0.35 127.29-1.35 126.21-3.08 125.14-4.8 124.59-7L124.59-7 123.79-7 124.04 0 119.94 0 119.94-12.75 119.94-35 124.54-35 124.54-26.9Q124.54-25.6 124.41-24.18 124.29-22.75 124.06-21.25 123.84-19.75 123.59-18.35L123.59-18.35 124.49-18.35Q125.04-20.45 126.09-22.3 127.14-24.15 128.91-25.3 130.69-26.45 133.34-26.45L133.34-26.45Q136.64-26.45 138.96-24.73 141.29-23 142.54-19.95 143.79-16.9 143.79-12.85L143.79-12.85Q143.79-8.95 142.56-5.9 141.34-2.85 139.01-1.1 136.69 0.65 133.34 0.65ZM132.24-3.35L132.24-3.35Q134.39-3.35 135.89-4.5 137.39-5.65 138.21-7.8 139.04-9.95 139.04-12.8L139.04-12.8Q139.04-15.6 138.24-17.78 137.44-19.95 135.94-21.23 134.44-22.5 132.24-22.5L132.24-22.5Q130.64-22.5 129.39-21.88 128.14-21.25 127.21-20.2 126.29-19.15 125.69-17.9 125.09-16.65 124.79-15.4 124.49-14.15 124.49-13.1L124.49-13.1 124.49-12.5Q124.49-11 125.01-9.4 125.54-7.8 126.54-6.43 127.54-5.05 128.99-4.2 130.44-3.35 132.24-3.35ZM161.44 0.65L161.44 0.65Q157.74 0.65 154.91-0.98 152.09-2.6 150.51-5.65 148.94-8.7 148.94-13.05L148.94-13.05Q148.94-17.55 150.61-20.53 152.29-23.5 155.09-25 157.89-26.5 161.34-26.5L161.34-26.5Q164.94-26.5 167.76-24.93 170.59-23.35 172.24-20.33 173.89-17.3 173.89-12.85L173.89-12.85Q173.89-8.4 172.26-5.4 170.64-2.4 167.81-0.88 164.99 0.65 161.44 0.65ZM161.64-3.1L161.64-3.1Q164.04-3.1 165.76-4.28 167.49-5.45 168.41-7.6 169.34-9.75 169.34-12.7L169.34-12.7Q169.34-15.75 168.36-17.98 167.39-20.2 165.59-21.43 163.79-22.65 161.24-22.65L161.24-22.65Q158.89-22.65 157.16-21.55 155.44-20.45 154.49-18.32 153.54-16.2 153.54-13.15L153.54-13.15Q153.54-8.45 155.71-5.78 157.89-3.1 161.64-3.1ZM184.93 0L180.38 0 180.38-14 180.38-25.85 184.48-25.85 184.08-16.85 184.93-16.85Q185.38-19.8 186.33-21.95 187.28-24.1 188.86-25.3 190.43-26.5 192.78-26.5L192.78-26.5Q193.28-26.5 193.93-26.43 194.58-26.35 195.43-26.05L195.43-26.05 195.18-21.3Q194.43-21.6 193.68-21.73 192.93-21.85 192.23-21.85L192.23-21.85Q190.28-21.85 188.86-20.6 187.43-19.35 186.48-17.23 185.53-15.1 184.93-12.45L184.93-12.45 184.93 0ZM206.28 0.65L206.28 0.65Q204.18 0.65 202.48-0.18 200.78-1 199.78-2.63 198.78-4.25 198.78-6.75L198.78-6.75Q198.78-8.6 199.46-10 200.13-11.4 201.56-12.4 202.98-13.4 205.23-14.05 207.48-14.7 210.73-15.15L210.73-15.15Q212.58-15.4 213.76-15.65 214.93-15.9 215.48-16.48 216.03-17.05 216.03-18.2L216.03-18.2Q216.03-20.1 214.73-21.4 213.43-22.7 210.63-22.7L210.63-22.7Q209.18-22.7 207.68-22.2 206.18-21.7 205.06-20.53 203.93-19.35 203.63-17.25L203.63-17.25 199.43-18.65Q199.83-20.45 200.76-21.9 201.68-23.35 203.13-24.38 204.58-25.4 206.51-25.95 208.43-26.5 210.78-26.5L210.78-26.5Q214.03-26.5 216.21-25.4 218.38-24.3 219.46-22.03 220.53-19.75 220.53-16.2L220.53-16.2 220.53-10.45Q220.53-8.9 220.61-7.08 220.68-5.25 220.83-3.43 220.98-1.6 221.13 0L221.13 0 216.93 0Q216.78-1.6 216.66-3.2 216.53-4.8 216.48-6.4L216.48-6.4 215.83-6.4Q215.08-4.55 213.83-2.95 212.58-1.35 210.71-0.35 208.83 0.65 206.28 0.65ZM207.63-3.05L207.63-3.05Q208.73-3.05 209.86-3.4 210.98-3.75 212.11-4.55 213.23-5.35 214.26-6.6 215.28-7.85 216.08-9.6L216.08-9.6 216.08-14.6 217.38-14.35Q216.58-13.55 215.26-13.15 213.93-12.75 212.33-12.5 210.73-12.25 209.13-11.98 207.53-11.7 206.21-11.18 204.88-10.65 204.08-9.7 203.28-8.75 203.28-7.1L203.28-7.1Q203.28-5.1 204.48-4.08 205.68-3.05 207.63-3.05ZM236.23 0.5L236.23 0.5Q232.63 0.5 230.88-1.45 229.13-3.4 229.13-7.4L229.13-7.4 229.13-22.05 225.23-22.05 225.28-25.85 227.73-25.85Q228.98-25.85 229.55-26.3 230.13-26.75 230.23-27.8L230.23-27.8 230.73-31.7 233.53-31.7 233.53-25.85 240.98-25.85 240.98-22 233.53-22 233.53-7.5Q233.53-5.5 234.45-4.63 235.38-3.75 237.13-3.75L237.13-3.75Q238.08-3.75 239.1-4 240.13-4.25 241.13-5L241.13-5 241.13-0.45Q239.68 0.1 238.45 0.3 237.23 0.5 236.23 0.5ZM257.83 0.65L257.83 0.65Q254.78 0.65 252.45-0.28 250.13-1.2 248.53-2.95 246.93-4.7 246.13-7.1 245.33-9.5 245.33-12.5L245.33-12.5Q245.33-15.55 246.13-18.1 246.93-20.65 248.48-22.55 250.03-24.45 252.28-25.48 254.53-26.5 257.43-26.5L257.43-26.5Q259.98-26.5 262.08-25.65 264.18-24.8 265.65-23.03 267.13-21.25 267.88-18.57 268.63-15.9 268.48-12.3L268.48-12.3 248.18-12.15 248.18-15.25 265.73-15.4 264.18-13.3Q264.43-16.45 263.58-18.5 262.73-20.55 261.15-21.6 259.58-22.65 257.43-22.65L257.43-22.65Q255.13-22.65 253.38-21.45 251.63-20.25 250.7-18 249.78-15.75 249.78-12.55L249.78-12.55Q249.78-7.95 251.83-5.53 253.88-3.1 257.88-3.1L257.88-3.1Q259.48-3.1 260.65-3.48 261.83-3.85 262.65-4.53 263.48-5.2 264-6.1 264.53-7 264.83-8.05L264.83-8.05 268.83-7.1Q268.38-5.3 267.45-3.88 266.53-2.45 265.15-1.45 263.78-0.45 261.98 0.1 260.18 0.65 257.83 0.65ZM274.82 6.85L271.02 6.85Q271.92 4.5 272.3 2.65 272.67 0.8 272.75-0.83 272.82-2.45 272.82-4.05L272.82-4.05 277.17-4.05Q277.17-1.45 276.85 0.58 276.52 2.6 275.97 4.13 275.42 5.65 274.82 6.85L274.82 6.85ZM309.32 0.65L309.32 0.65Q305.77 0.65 302.94-0.45 300.12-1.55 298.17-3.7 296.22-5.85 295.19-8.97 294.17-12.1 294.17-16.1L294.17-16.1Q294.17-20.15 295.22-23.38 296.27-26.6 298.22-28.9 300.17-31.2 302.92-32.43 305.67-33.65 309.07-33.65L309.07-33.65Q311.67-33.65 313.87-32.93 316.07-32.2 317.69-30.83 319.32-29.45 320.22-27.5 321.12-25.55 321.17-23.15L321.17-23.15 316.82-22.05Q316.87-24.6 315.77-26.28 314.67-27.95 312.87-28.8 311.07-29.65 308.97-29.65L308.97-29.65Q307.02-29.65 305.19-28.88 303.37-28.1 301.97-26.48 300.57-24.85 299.74-22.33 298.92-19.8 298.92-16.25L298.92-16.25Q298.92-11.7 300.24-8.9 301.57-6.1 303.97-4.78 306.37-3.45 309.52-3.45L309.52-3.45Q312.57-3.45 314.42-4.58 316.27-5.7 317.17-7.73 318.07-9.75 318.22-12.4L318.22-12.4 322.32-11.65Q322.27-9.15 321.52-6.9 320.77-4.65 319.22-2.95 317.67-1.25 315.22-0.3 312.77 0.65 309.32 0.65ZM339.42 0.65L339.42 0.65Q335.72 0.65 332.89-0.98 330.07-2.6 328.49-5.65 326.92-8.7 326.92-13.05L326.92-13.05Q326.92-17.55 328.59-20.53 330.27-23.5 333.07-25 335.87-26.5 339.32-26.5L339.32-26.5Q342.92-26.5 345.74-24.93 348.57-23.35 350.22-20.33 351.87-17.3 351.87-12.85L351.87-12.85Q351.87-8.4 350.24-5.4 348.62-2.4 345.79-0.88 342.97 0.65 339.42 0.65ZM339.62-3.1L339.62-3.1Q342.02-3.1 343.74-4.28 345.47-5.45 346.39-7.6 347.32-9.75 347.32-12.7L347.32-12.7Q347.32-15.75 346.34-17.98 345.37-20.2 343.57-21.43 341.77-22.65 339.22-22.65L339.22-22.65Q336.87-22.65 335.14-21.55 333.42-20.45 332.47-18.32 331.52-16.2 331.52-13.15L331.52-13.15Q331.52-8.45 333.69-5.78 335.87-3.1 339.62-3.1ZM367.46 0.65L367.46 0.65Q364.16 0.65 361.81-1.1 359.46-2.85 358.24-5.9 357.01-8.95 357.01-12.9L357.01-12.9Q357.01-16.85 358.21-19.9 359.41-22.95 361.71-24.7 364.01-26.45 367.36-26.45L367.36-26.45Q370.11-26.45 371.86-25.3 373.61-24.15 374.69-22.33 375.76-20.5 376.26-18.35L376.26-18.35 377.16-18.35Q376.91-19.8 376.71-21.38 376.51-22.95 376.36-24.48 376.21-26 376.21-27.2L376.21-27.2 376.21-35 380.81-35 380.81-12.75 380.81 0 376.71 0 376.96-7 376.16-7Q375.56-4.75 374.46-3.03 373.36-1.3 371.66-0.33 369.96 0.65 367.46 0.65ZM368.51-3.35L368.51-3.35Q370.31-3.35 371.76-4.2 373.21-5.05 374.21-6.43 375.21-7.8 375.74-9.4 376.26-11 376.26-12.5L376.26-12.5 376.26-13.1Q376.26-14.15 375.96-15.38 375.66-16.6 375.09-17.85 374.51-19.1 373.59-20.18 372.66-21.25 371.41-21.88 370.16-22.5 368.61-22.5L368.61-22.5Q366.36-22.5 364.84-21.23 363.31-19.95 362.54-17.75 361.76-15.55 361.76-12.8L361.76-12.8Q361.76-9.95 362.56-7.83 363.36-5.7 364.89-4.53 366.41-3.35 368.51-3.35ZM399.81 0.65L399.81 0.65Q396.76 0.65 394.44-0.28 392.11-1.2 390.51-2.95 388.91-4.7 388.11-7.1 387.31-9.5 387.31-12.5L387.31-12.5Q387.31-15.55 388.11-18.1 388.91-20.65 390.46-22.55 392.01-24.45 394.26-25.48 396.51-26.5 399.41-26.5L399.41-26.5Q401.96-26.5 404.06-25.65 406.16-24.8 407.64-23.03 409.11-21.25 409.86-18.57 410.61-15.9 410.46-12.3L410.46-12.3 390.16-12.15 390.16-15.25 407.71-15.4 406.16-13.3Q406.41-16.45 405.56-18.5 404.71-20.55 403.14-21.6 401.56-22.65 399.41-22.65L399.41-22.65Q397.11-22.65 395.36-21.45 393.61-20.25 392.69-18 391.76-15.75 391.76-12.55L391.76-12.55Q391.76-7.95 393.81-5.53 395.86-3.1 399.86-3.1L399.86-3.1Q401.46-3.1 402.64-3.48 403.81-3.85 404.64-4.53 405.46-5.2 405.99-6.1 406.51-7 406.81-8.05L406.81-8.05 410.81-7.1Q410.36-5.3 409.44-3.88 408.51-2.45 407.14-1.45 405.76-0.45 403.96 0.1 402.16 0.65 399.81 0.65ZM416.81 6.85L413.01 6.85Q413.91 4.5 414.28 2.65 414.66 0.8 414.73-0.83 414.81-2.45 414.81-4.05L414.81-4.05 419.16-4.05Q419.16-1.45 418.83 0.58 418.51 2.6 417.96 4.13 417.41 5.65 416.81 6.85L416.81 6.85ZM451.3 0.65L451.3 0.65Q447.75 0.65 444.93-0.45 442.1-1.55 440.15-3.7 438.2-5.85 437.18-8.97 436.15-12.1 436.15-16.1L436.15-16.1Q436.15-20.15 437.2-23.38 438.25-26.6 440.2-28.9 442.15-31.2 444.9-32.43 447.65-33.65 451.05-33.65L451.05-33.65Q453.65-33.65 455.85-32.93 458.05-32.2 459.68-30.83 461.3-29.45 462.2-27.5 463.1-25.55 463.15-23.15L463.15-23.15 458.8-22.05Q458.85-24.6 457.75-26.28 456.65-27.95 454.85-28.8 453.05-29.65 450.95-29.65L450.95-29.65Q449-29.65 447.18-28.88 445.35-28.1 443.95-26.48 442.55-24.85 441.73-22.33 440.9-19.8 440.9-16.25L440.9-16.25Q440.9-11.7 442.23-8.9 443.55-6.1 445.95-4.78 448.35-3.45 451.5-3.45L451.5-3.45Q454.55-3.45 456.4-4.58 458.25-5.7 459.15-7.73 460.05-9.75 460.2-12.4L460.2-12.4 464.3-11.65Q464.25-9.15 463.5-6.9 462.75-4.65 461.2-2.95 459.65-1.25 457.2-0.3 454.75 0.65 451.3 0.65ZM474.85 0L470.3 0 470.3-14 470.3-25.85 474.4-25.85 474-16.85 474.85-16.85Q475.3-19.8 476.25-21.95 477.2-24.1 478.78-25.3 480.35-26.5 482.7-26.5L482.7-26.5Q483.2-26.5 483.85-26.43 484.5-26.35 485.35-26.05L485.35-26.05 485.1-21.3Q484.35-21.6 483.6-21.73 482.85-21.85 482.15-21.85L482.15-21.85Q480.2-21.85 478.78-20.6 477.35-19.35 476.4-17.23 475.45-15.1 474.85-12.45L474.85-12.45 474.85 0ZM501.35 0.65L501.35 0.65Q498.3 0.65 495.97-0.28 493.65-1.2 492.05-2.95 490.45-4.7 489.65-7.1 488.85-9.5 488.85-12.5L488.85-12.5Q488.85-15.55 489.65-18.1 490.45-20.65 492-22.55 493.55-24.45 495.8-25.48 498.05-26.5 500.95-26.5L500.95-26.5Q503.5-26.5 505.6-25.65 507.7-24.8 509.17-23.03 510.65-21.25 511.4-18.57 512.15-15.9 512-12.3L512-12.3 491.7-12.15 491.7-15.25 509.25-15.4 507.7-13.3Q507.95-16.45 507.1-18.5 506.25-20.55 504.67-21.6 503.1-22.65 500.95-22.65L500.95-22.65Q498.65-22.65 496.9-21.45 495.15-20.25 494.22-18 493.3-15.75 493.3-12.55L493.3-12.55Q493.3-7.95 495.35-5.53 497.4-3.1 501.4-3.1L501.4-3.1Q503-3.1 504.17-3.48 505.35-3.85 506.17-4.53 507-5.2 507.52-6.1 508.05-7 508.35-8.05L508.35-8.05 512.35-7.1Q511.9-5.3 510.97-3.88 510.05-2.45 508.67-1.45 507.3-0.45 505.5 0.1 503.7 0.65 501.35 0.65ZM524.39 0.65L524.39 0.65Q522.29 0.65 520.6-0.18 518.89-1 517.89-2.63 516.89-4.25 516.89-6.75L516.89-6.75Q516.89-8.6 517.57-10 518.25-11.4 519.67-12.4 521.1-13.4 523.35-14.05 525.6-14.7 528.85-15.15L528.85-15.15Q530.7-15.4 531.87-15.65 533.04-15.9 533.6-16.48 534.14-17.05 534.14-18.2L534.14-18.2Q534.14-20.1 532.85-21.4 531.54-22.7 528.75-22.7L528.75-22.7Q527.29-22.7 525.79-22.2 524.29-21.7 523.17-20.53 522.04-19.35 521.75-17.25L521.75-17.25 517.54-18.65Q517.95-20.45 518.87-21.9 519.79-23.35 521.25-24.38 522.7-25.4 524.62-25.95 526.54-26.5 528.89-26.5L528.89-26.5Q532.14-26.5 534.32-25.4 536.5-24.3 537.57-22.03 538.64-19.75 538.64-16.2L538.64-16.2 538.64-10.45Q538.64-8.9 538.72-7.08 538.79-5.25 538.95-3.43 539.1-1.6 539.25 0L539.25 0 535.04 0Q534.89-1.6 534.77-3.2 534.64-4.8 534.6-6.4L534.6-6.4 533.95-6.4Q533.2-4.55 531.95-2.95 530.7-1.35 528.82-0.35 526.95 0.65 524.39 0.65ZM525.75-3.05L525.75-3.05Q526.85-3.05 527.97-3.4 529.1-3.75 530.22-4.55 531.35-5.35 532.37-6.6 533.39-7.85 534.2-9.6L534.2-9.6 534.2-14.6 535.5-14.35Q534.7-13.55 533.37-13.15 532.04-12.75 530.45-12.5 528.85-12.25 527.25-11.98 525.64-11.7 524.32-11.18 523-10.65 522.2-9.7 521.39-8.75 521.39-7.1L521.39-7.1Q521.39-5.1 522.6-4.08 523.79-3.05 525.75-3.05ZM554.34 0.5L554.34 0.5Q550.74 0.5 548.99-1.45 547.24-3.4 547.24-7.4L547.24-7.4 547.24-22.05 543.34-22.05 543.39-25.85 545.84-25.85Q547.09-25.85 547.67-26.3 548.24-26.75 548.34-27.8L548.34-27.8 548.84-31.7 551.64-31.7 551.64-25.85 559.09-25.85 559.09-22 551.64-22 551.64-7.5Q551.64-5.5 552.57-4.63 553.49-3.75 555.24-3.75L555.24-3.75Q556.19-3.75 557.22-4 558.24-4.25 559.24-5L559.24-5 559.24-0.45Q557.79 0.1 556.57 0.3 555.34 0.5 554.34 0.5ZM575.94 0.65L575.94 0.65Q572.89 0.65 570.56-0.28 568.24-1.2 566.64-2.95 565.04-4.7 564.24-7.1 563.44-9.5 563.44-12.5L563.44-12.5Q563.44-15.55 564.24-18.1 565.04-20.65 566.59-22.55 568.14-24.45 570.39-25.48 572.64-26.5 575.54-26.5L575.54-26.5Q578.09-26.5 580.19-25.65 582.29-24.8 583.76-23.03 585.24-21.25 585.99-18.57 586.74-15.9 586.59-12.3L586.59-12.3 566.29-12.15 566.29-15.25 583.84-15.4 582.29-13.3Q582.54-16.45 581.69-18.5 580.84-20.55 579.26-21.6 577.69-22.65 575.54-22.65L575.54-22.65Q573.24-22.65 571.49-21.45 569.74-20.25 568.81-18 567.89-15.75 567.89-12.55L567.89-12.55Q567.89-7.95 569.94-5.53 571.99-3.1 575.99-3.1L575.99-3.1Q577.59-3.1 578.76-3.48 579.94-3.85 580.76-4.53 581.59-5.2 582.11-6.1 582.64-7 582.94-8.05L582.94-8.05 586.94-7.1Q586.49-5.3 585.56-3.88 584.64-2.45 583.26-1.45 581.89-0.45 580.09 0.1 578.29 0.65 575.94 0.65Z" opacity="1" transform="matrix(1,0,0,1,0,0)" fill="black" class="slogan-text-1" id="SvgjsPath6222"></path></svg></g></svg></g></svg></g></svg></g><g><svg viewBox="0 0 183.86753481509123 136.4184776022148" height="136.4184776022148" width="183.86753481509123"><g><svg xmlns="http://www.w3.org/2000/svg" xmlns:xlink="http://www.w3.org/1999/xlink" version="1.1" x="0" y="0" viewBox="5.13240895558934 16.710673764624296 89.73559104441065 66.5783262353757" enable-background="new 0 0 100 100" xml:space="preserve" height="136.4184776022148" width="183.86753481509123" class="icon-icon-0" data-fill-palette-color="accent" id="SvgjsSvg6221"><g fill="black"><g fill="black"><path fill-rule="evenodd" clip-rule="evenodd" d="M74.326 68.963C73.528 68.818 72.426 68.64 71.334 68.408 70.993 68.337 70.667 68.153 70.36 67.976 69.035 67.209 68.614 66.022 69.43 64.729 70.123 63.626 71.003 62.612 71.931 61.692 73.525 60.11 75.228 58.635 76.871 57.104 81.423 52.863 84.683 47.791 86.695 41.904 87.023 40.946 87.401 39.996 87.853 39.092 88.751 37.304 89.853 37.165 91.197 38.635 92.517 40.08 93.28 41.837 93.719 43.704 95.587 51.668 93.383 58.396 87.348 63.847 84.443 66.473 80.975 68.055 77.098 68.683 76.294 68.814 75.471 68.851 74.326 68.963" fill="black"></path><path fill-rule="evenodd" clip-rule="evenodd" d="M92.634 38.514C91.981 37.465 91.342 36.361 90.622 35.313 89.883 34.237 89.012 33.264 87.907 32.535 86.401 31.54 85.435 31.873 85.07 33.62 84.768 35.063 84.586 36.537 84.434 38.007 83.631 45.858 80.055 52.127 73.782 56.891 70.671 59.252 67.247 61.079 63.797 62.868 61.899 63.85 59.968 64.783 58.311 66.165A6.5 6.5 0 0 0 57.252 67.29C56.489 68.335 56.544 69.488 57.38 70.481 58.454 71.761 59.917 72.415 61.451 72.926 64.373 73.9 67.39 74.107 70.434 73.872 75.32 73.492 79.863 72.013 83.947 69.282 89.682 65.447 93.363 60.208 94.635 53.362 94.657 53.243 94.697 53.129 94.729 53.013L94.868 53.042C94.687 53.914 94.544 54.795 94.321 55.655 92.086 64.235 86.751 70.248 78.868 74.067 73.602 76.618 68.002 77.648 62.156 77.331 58.2 77.115 54.39 76.301 50.833 74.503 49.328 73.743 47.924 72.826 46.865 71.479 46.21 70.645 45.731 69.739 45.99 68.621 46.192 67.751 46.777 67.153 47.472 66.661 48.918 65.64 50.582 65.094 52.251 64.582 55.654 63.537 59.089 62.585 62.466 61.465 66.444 60.148 70.182 58.319 73.493 55.702 78.146 52.023 81.022 47.306 81.84 41.393 82.156 39.102 82.107 36.805 81.93 34.503A139 139 0 0 1 81.659 29.541C81.647 29.252 81.75 28.94 81.864 28.666 82.116 28.067 82.672 27.756 83.314 28.029 84.205 28.406 85.12 28.831 85.863 29.433 88.87 31.869 90.98 35.005 92.64 38.464 92.651 38.49 92.632 38.53 92.634 38.514" fill="black"></path><path fill-rule="evenodd" clip-rule="evenodd" d="M43.539 16.952C42.475 17.227 41.416 17.466 40.38 17.784A6.5 6.5 0 0 0 38.79 18.522C38.509 18.701 38.196 19.072 38.193 19.359 38.192 19.58 38.619 19.912 38.916 20.006 39.88 20.313 40.863 20.581 41.855 20.781 46.541 21.727 51.155 22.908 55.567 24.793 60.805 27.031 65.547 30.063 69.937 33.67 70.348 34.008 70.758 34.348 71.127 34.745L67.852 32.616C63.339 29.687 58.639 27.137 53.503 25.452 48.42 23.785 43.226 22.94 37.873 23.246 35.21 23.398 32.599 23.859 30.119 24.894 25.312 26.899 22.53 30.6 21.362 35.569 20.216 40.447 21.008 45.163 22.776 49.765 22.838 49.924 22.896 50.085 22.956 50.245L22.813 50.307C22.214 48.986 21.576 47.679 21.024 46.337 19.659 43.011 18.981 39.526 18.671 35.956A23.5 23.5 0 0 0 18.241 32.943C17.974 31.722 17.255 31.341 16.052 31.698 14.757 32.083 13.689 32.867 12.71 33.757 8.939 37.189 6.745 41.488 5.938 46.486 4.912 52.837 6.388 58.687 9.674 64.138 9.782 64.32 9.89 64.498 9.937 64.727 9.884 64.663 9.825 64.602 9.779 64.533 7.215 60.638 5.58 56.401 5.215 51.735 4.705 45.214 6.568 39.374 10.497 34.177 13.339 30.419 16.963 27.557 20.975 25.158 25.031 22.732 29.164 20.458 33.658 18.917 36.744 17.858 39.939 17.341 43.163 16.952 43.285 16.939 43.411 16.952 43.539 16.952" fill="black"></path><path fill-rule="evenodd" clip-rule="evenodd" d="M61.55 61.343C59.39 61.775 57.242 62.303 55.066 62.616 51.52 63.128 47.954 63.486 44.399 63.932 42.685 64.149 40.973 64.41 39.361 65.083 36.729 66.186 36.122 68.107 37.654 70.527 38.775 72.299 40.369 73.589 42.107 74.704 45.589 76.943 49.43 78.263 53.472 79.027 57.301 79.75 61.16 79.894 65.032 79.45 71.435 78.716 77.33 76.613 82.554 72.775 82.691 72.673 82.834 72.587 82.975 72.492 83.002 72.533 83.032 72.571 83.06 72.611 82.066 73.336 81.089 74.088 80.073 74.78 75.207 78.1 69.831 80.128 64.011 80.968 55.586 82.184 47.486 81.089 39.788 77.393 36.628 75.875 33.759 73.928 31.437 71.26 30.339 69.999 29.414 68.632 29.033 66.966 28.634 65.221 29.283 63.855 30.898 63.093 31.998 62.574 33.182 62.348 34.377 62.351 37.141 62.353 39.906 62.393 42.667 62.503 46.913 62.673 51.16 62.829 55.39 62.309 57.45 62.054 59.489 61.622 61.536 61.27z" fill="black"></path><path fill-rule="evenodd" clip-rule="evenodd" d="M65.631 81.426C63.879 81.803 62.135 82.223 60.373 82.549A42.4 42.4 0 0 1 47.745 82.966C39.341 81.999 31.708 79.104 25.171 73.624 22.13 71.077 19.604 68.096 18.079 64.378 17.404 62.731 16.974 61.027 17.289 59.219 17.612 57.367 18.956 56.202 20.835 56.118 22.428 56.047 23.963 56.358 25.458 56.843 28.605 57.867 31.726 58.979 34.877 59.991 37.074 60.696 39.305 61.298 41.366 61.899 40.358 61.72 39.18 61.508 38.002 61.301 35.18 60.8 32.361 60.271 29.532 59.813 28.175 59.593 26.799 59.559 25.434 59.854 23.32 60.312 22.246 61.877 22.566 64.03 22.882 66.156 23.892 67.964 25.17 69.634 28.063 73.414 31.84 76.08 36.061 78.161 40.363 80.283 44.916 81.58 49.677 82.16 54.914 82.796 60.101 82.556 65.236 81.319 65.355 81.292 65.479 81.283 65.6 81.265z" fill="black"></path><path fill-rule="evenodd" clip-rule="evenodd" d="M44.913 83.289C43.169 83.039 41.414 82.853 39.685 82.529 33.083 81.299 27.044 78.747 21.703 74.645 17.257 71.232 13.703 67.086 11.558 61.847 10.431 59.092 9.807 56.236 10.122 53.236 10.275 51.783 10.639 50.393 11.527 49.196 12.548 47.819 13.925 47.361 15.588 47.838 17.213 48.306 18.565 49.274 19.906 50.248 22.99 52.491 26.055 54.76 29.141 56.999 29.738 57.433 30.393 57.785 30.982 58.248 30.324 57.916 29.663 57.587 29.006 57.252 26.34 55.895 23.694 54.494 20.996 53.204 20.046 52.748 18.99 52.455 17.95 52.264 15.121 51.747 13.704 53.531 13.325 55.743 12.906 58.195 13.43 60.531 14.335 62.796 15.866 66.629 18.307 69.83 21.331 72.591 27.486 78.21 34.787 81.429 42.955 82.8 43.615 82.913 44.279 83.003 44.941 83.105z" fill="black"></path><path fill-rule="evenodd" clip-rule="evenodd" d="M26.441 78.456C24.935 77.625 23.396 76.85 21.929 75.953 16.472 72.621 12.11 68.233 9.212 62.482 7.166 58.423 6.156 54.124 6.495 49.567 6.753 46.091 7.745 42.85 9.92 40.056 10.614 39.164 11.417 38.377 12.469 37.9 13.629 37.375 14.65 37.5 15.482 38.459 16.163 39.246 16.738 40.141 17.259 41.046 18.778 43.684 20.167 46.4 21.762 48.989 22.777 50.635 24.067 52.111 25.232 53.663 25.291 53.739 25.346 53.816 25.334 53.957 25.145 53.78 24.947 53.613 24.771 53.426 22.437 50.92 20.123 48.396 17.767 45.911 17.022 45.125 16.224 44.365 15.348 43.735 13.556 42.445 11.755 42.758 10.361 44.486 9.114 46.028 8.484 47.835 8.187 49.759 7.418 54.738 8.595 59.358 10.935 63.716 14.088 69.591 18.79 73.93 24.523 77.22 25.185 77.6 25.866 77.95 26.538 78.313 26.504 78.36 26.473 78.408 26.441 78.456" fill="black"></path><path fill-rule="evenodd" clip-rule="evenodd" d="M21.966 46.788C21.889 46.054 21.789 45.32 21.74 44.583 21.457 40.259 22.268 36.203 24.783 32.594 27.09 29.286 30.303 27.231 34.102 26.047 37.87 24.874 41.729 24.66 45.64 25.023 52.036 25.615 57.948 27.77 63.661 30.572 64.202 30.838 64.744 31.105 65.255 31.438L61.132 29.924C57.532 28.606 53.889 27.439 50.093 26.819 44.648 25.929 39.246 25.931 34.016 27.943 27.43 30.476 23.505 35.242 22.341 42.229 22.215 42.983 22.151 43.753 22.112 44.517 22.074 45.265 22.104 46.015 22.104 46.764z" fill="black"></path><path fill-rule="evenodd" clip-rule="evenodd" d="M75.267 38.73C74.745 38.138 74.221 37.547 73.701 36.955 67.639 30.046 60.232 25.045 51.784 21.521A104 104 0 0 1 47.541 19.633 6.6 6.6 0 0 1 46.116 18.703C45.572 18.242 45.631 17.684 46.302 17.397 47.029 17.086 47.819 16.783 48.593 16.752 50.637 16.669 52.687 16.735 54.736 16.745 54.796 16.745 54.857 16.78 55.043 16.836 54.318 16.906 53.72 16.929 53.138 17.03 52.641 17.116 52.038 17.167 51.877 17.76 51.716 18.354 52.181 18.746 52.596 19.029 54.138 20.083 55.686 21.132 57.278 22.107 61.978 24.984 66.412 28.195 70.213 32.219A49 49 0 0 1 75.156 38.387C75.221 38.484 75.274 38.588 75.333 38.689z" fill="black"></path><path fill-rule="evenodd" clip-rule="evenodd" d="M81.998 26.127C81.645 25.942 81.303 25.733 80.936 25.578 80.513 25.399 80.078 25.227 79.631 25.122 78.656 24.893 78.046 25.336 78.129 26.338 78.221 27.412 78.471 28.476 78.694 29.535 79.216 32.005 79.946 34.446 80.27 36.94 81.194 44.036 79.181 50.145 73.705 54.941 73.951 54.69 74.201 54.445 74.441 54.187 74.698 53.916 74.957 53.643 75.196 53.357 78.224 49.69 79.448 45.443 79.231 40.738 79.044 36.74 77.788 33.027 76.233 29.39A152 152 0 0 1 74.459 25.043C74.317 24.684 74.248 24.286 74.208 23.9 74.126 23.1 74.564 22.614 75.367 22.673A5.6 5.6 0 0 1 76.87 23.007C78.772 23.713 80.395 24.906 81.998 26.127" fill="black"></path><path fill-rule="evenodd" clip-rule="evenodd" d="M77.751 43.611C76.375 39.438 74.234 35.824 71.581 32.5 69.055 29.334 66.114 26.587 62.975 24.042 61.465 22.818 59.949 21.604 58.458 20.357A8 8 0 0 1 57.247 19.082C56.629 18.268 56.858 17.651 57.862 17.473 58.487 17.363 59.151 17.302 59.773 17.39 61.235 17.596 62.681 17.903 64.133 18.172 64.212 18.187 64.286 18.229 64.472 18.301 63.782 18.301 63.21 18.256 62.648 18.311 61.744 18.4 61.443 18.937 61.919 19.718A12 12 0 0 0 63.409 21.661C65.489 23.89 67.676 26.023 69.689 28.311 73.283 32.392 76.109 36.932 77.516 42.253 77.611 42.614 77.688 42.979 77.767 43.343 77.779 43.394 77.763 43.448 77.751 43.611" fill="black"></path><path fill-rule="evenodd" clip-rule="evenodd" d="M77.906 48.028C77.941 47.73 77.982 47.432 78.01 47.132 78.43 42.601 77.231 38.416 75.269 34.397 73.619 31.012 71.399 28.002 69.082 25.056A67 67 0 0 1 66.811 22.017 6 6 0 0 1 66.081 20.541C65.872 19.955 66.154 19.463 66.769 19.409 67.397 19.354 68.072 19.343 68.665 19.517A48 48 0 0 1 73.441 21.221C72.763 21.106 72.088 20.929 71.406 20.891 70.464 20.838 70.041 21.357 70.383 22.247A21.4 21.4 0 0 0 71.896 25.355C73.573 28.211 75.316 31.029 76.559 34.116 77.89 37.424 78.715 40.834 78.52 44.425 78.455 45.638 78.236 46.843 78.085 48.051A4 4 0 0 1 77.906 48.028" fill="black"></path><path fill-rule="evenodd" clip-rule="evenodd" d="M22.331 43.36C22.637 42.347 22.886 41.313 23.256 40.324 25.539 34.222 29.991 30.447 36.097 28.502 39.497 27.419 43 27.109 46.554 27.268 50.275 27.435 53.905 28.149 57.508 29.038 57.603 29.062 57.694 29.112 57.902 29.197 56.173 28.963 54.573 28.733 52.968 28.53 47.749 27.873 42.548 27.734 37.425 29.199 30.075 31.302 24.986 35.826 22.562 43.176L22.483 43.405C22.432 43.392 22.381 43.375 22.331 43.36" fill="black"></path><path fill-rule="evenodd" clip-rule="evenodd" d="M48.016 28.454C45.354 28.696 42.729 29.062 40.138 29.659 34.663 30.919 29.831 33.346 25.969 37.515 25.661 37.848 25.369 38.193 25.069 38.532L24.965 38.445C25.492 37.811 25.996 37.157 26.549 36.547 29.682 33.093 33.592 30.928 38.046 29.686 41.227 28.798 44.486 28.498 47.773 28.425 47.854 28.424 47.935 28.444 48.016 28.454" fill="black"></path><path fill-rule="evenodd" clip-rule="evenodd" d="M14.697 28.899L12.692 30.95 14.766 28.944C14.743 28.929 14.719 28.915 14.697 28.899" fill="black"></path></g></g></svg></g></svg></g></svg></g><defs><mask></mask></defs></svg><rect width="395.52" height="91.5311559017009" fill="black" stroke="none" visibility="hidden"></rect></g></mask><linearGradient x1="0" x2="1" y1="0.548" y2="0.55" id="2cbf0580-8618-44d9-acc1-32dd33214093"><stop stop-color="#ff6cab" offset="0"></stop><stop stop-color="#7366ff" offset="1"></stop></linearGradient><rect width="395.52" height="91.72212237257536" fill="url(#2cbf0580-8618-44d9-acc1-32dd33214093)" mask="url(#5eaa61f5-04b4-41ce-b09a-432e5213f3e6)" data-fill-palette-color="primary"></rect></svg><rect width="395.52" height="91.5311559017009" fill="none" stroke="none" visibility="hidden"></rect></g></svg></g></svg>