<svg xmlns="http://www.w3.org/2000/svg" version="1.1" xmlns:xlink="http://www.w3.org/1999/xlink" xmlns:svgjs="http://svgjs.dev/svgjs" width="2000" height="1500" viewBox="0 0 2000 1500"><rect width="2000" height="1500" fill="#111111"></rect><g transform="matrix(0.75,0,0,0.75,249.090909090909,628.7726854899903)"><svg viewBox="0 0 396 64" data-background-color="#111111" preserveAspectRatio="xMidYMid meet" height="323" width="2000" xmlns="http://www.w3.org/2000/svg" xmlns:xlink="http://www.w3.org/1999/xlink"><g id="tight-bounds" transform="matrix(1,0,0,1,0.2400000000000091,0.027030458784821576)"><svg viewBox="0 0 395.52 63.94593908243036" height="63.94593908243036" width="395.52"><g><svg viewBox="0 0 499.78202303151517 80.80256573439289" height="63.94593908243036" width="395.52"><g><rect width="4.4106088218425805" height="80.80256573439289" x="88.30531781741453" y="0" fill="#ffffff" opacity="1" stroke-width="0" stroke="transparent" fill-opacity="1" class="rect-yte-0" data-fill-palette-color="primary" rx="1%" id="yte-0" data-palette-color="#ffffff"></rect></g><g transform="matrix(1,0,0,1,104.26202303151518,0.20100140729947924)"><svg viewBox="0 0 395.52 80.40056291979393" height="80.40056291979393" width="395.52"><g id="textblocktransform"><svg viewBox="0 0 395.52 80.40056291979393" height="80.40056291979393" width="395.52" id="textblock"><g><svg viewBox="0 0 395.52 48.90838709677419" height="48.90838709677419" width="395.52"><g transform="matrix(1,0,0,1,0,0)"><svg width="395.52" viewBox="3.1 -32.03 263.35999999999996 32.57" height="48.90838709677419" data-palette-color="#ffffff"><path d="M23.78-23.1Q24.78-23.1 25.2-22.73 25.61-22.36 25.61-21.51L25.61-21.51 25.61-14.43Q25.61-13.57 25.2-13.21 24.78-12.84 23.78-12.84L23.78-12.84Q22.78-12.84 22.36-13.21 21.95-13.57 21.95-14.43L21.95-14.43Q21.95-15.92 21.17-17.07 20.39-18.21 18.84-18.85 17.29-19.48 15.11-19.48L15.11-19.48Q12.77-19.48 10.91-18.43 9.06-17.38 8.01-15.5 6.96-13.62 6.96-11.28L6.96-11.28Q6.96-8.91 7.95-7.04 8.94-5.18 10.73-4.13 12.52-3.08 14.87-3.08L14.87-3.08Q17.11-3.08 19.23-3.77 21.34-4.47 23.07-5.79L23.07-5.79Q23.58-6.18 24.02-6.18L24.02-6.18Q24.73-6.18 25.34-5.18L25.34-5.18Q25.71-4.57 25.71-4L25.71-4Q25.71-3.15 24.93-2.59L24.93-2.59Q22.97-1.12 20.31-0.29 17.65 0.54 14.87 0.54L14.87 0.54Q11.38 0.54 8.7-1 6.03-2.54 4.57-5.22 3.1-7.91 3.1-11.28L3.1-11.28Q3.1-14.65 4.59-17.33 6.08-20.02 8.75-21.56 11.43-23.1 14.87-23.1L14.87-23.1Q17.04-23.1 18.86-22.3 20.68-21.51 21.95-20.04L21.95-20.04 21.95-21.51Q21.95-22.36 22.36-22.73 22.78-23.1 23.78-23.1L23.78-23.1ZM44.97-23.1Q48.31-23.1 51-21.58 53.68-20.07 55.21-17.37 56.74-14.67 56.74-11.28L56.74-11.28Q56.74-7.89 55.21-5.19 53.68-2.49 51-0.98 48.31 0.54 44.97 0.54L44.97 0.54Q41.62 0.54 38.94-0.98 36.25-2.49 34.73-5.19 33.2-7.89 33.2-11.28L33.2-11.28Q33.2-14.67 34.73-17.37 36.25-20.07 38.94-21.58 41.62-23.1 44.97-23.1L44.97-23.1ZM44.97-19.48Q42.6-19.48 40.81-18.44 39.01-17.41 38.03-15.54 37.06-13.67 37.06-11.28L37.06-11.28Q37.06-8.89 38.03-7.02 39.01-5.15 40.81-4.11 42.6-3.08 44.97-3.08L44.97-3.08Q47.34-3.08 49.13-4.11 50.93-5.15 51.9-7.02 52.88-8.89 52.88-11.28L52.88-11.28Q52.88-13.67 51.9-15.54 50.93-17.41 49.13-18.44 47.34-19.48 44.97-19.48L44.97-19.48ZM83.47-32.03Q84.3-32.03 84.65-31.65 85-31.27 85-30.37L85-30.37 85-3.32 87.01-3.32Q87.84-3.32 88.19-2.94 88.54-2.56 88.54-1.66L88.54-1.66Q88.54-0.76 88.19-0.38 87.84 0 87.01 0L87.01 0 83.12 0Q82.29 0 81.94-0.38 81.59-0.76 81.59-1.66L81.59-1.66 81.59-3.61Q80.05-1.61 78.02-0.54 76 0.54 73.6 0.54L73.6 0.54Q70.58 0.54 68.18-0.89 65.79-2.32 64.42-4.99 63.06-7.67 63.06-11.28L63.06-11.28Q63.06-14.89 64.42-17.57 65.79-20.24 68.18-21.67 70.58-23.1 73.6-23.1L73.6-23.1Q78.19-23.1 81.34-19.07L81.34-19.07 81.34-28.71 77.39-28.71Q76.56-28.71 76.2-29.09 75.85-29.47 75.85-30.37L75.85-30.37Q75.85-31.27 76.2-31.65 76.56-32.03 77.39-32.03L77.39-32.03 83.47-32.03ZM73.85-19.48Q71.67-19.48 70.11-18.44 68.55-17.41 67.73-15.55 66.91-13.7 66.91-11.28L66.91-11.28Q66.91-8.86 67.73-7.01 68.55-5.15 70.11-4.11 71.67-3.08 73.85-3.08L73.85-3.08Q76.02-3.08 77.72-4.05 79.41-5.03 80.38-6.88 81.34-8.74 81.34-11.28L81.34-11.28Q81.34-13.82 80.38-15.67 79.41-17.53 77.72-18.51 76.02-19.48 73.85-19.48L73.85-19.48ZM105.14-23.1Q108.68-23.1 111.19-21.67 113.69-20.24 115.03-17.71 116.37-15.19 116.57-11.89L116.57-11.89Q116.57-11.06 116.22-10.72 115.86-10.38 115.03-10.38L115.03-10.38 97.36-10.38Q97.53-6.74 99.52-4.87 101.51-3 105.14-3L105.14-3Q107.39-3 109.59-3.58 111.78-4.15 113.44-5.1L113.44-5.1Q113.86-5.32 114.2-5.32L114.2-5.32Q115.06-5.32 115.59-4.03L115.59-4.03Q115.81-3.52 115.81-3.1L115.81-3.1Q115.81-2.12 114.74-1.59L114.74-1.59Q112.86-0.63 110.3-0.05 107.73 0.54 105.14 0.54L105.14 0.54Q101.46 0.54 98.85-0.88 96.23-2.29 94.87-4.96 93.5-7.62 93.5-11.28L93.5-11.28Q93.5-14.77 94.99-17.46 96.48-20.14 99.11-21.62 101.75-23.1 105.14-23.1L105.14-23.1ZM105.14-19.56Q102.14-19.56 100.18-18.03 98.21-16.5 97.6-13.79L97.6-13.79 112.52-13.79Q112-16.6 110.16-18.08 108.32-19.56 105.14-19.56L105.14-19.56ZM142.59-23.1Q143.59-23.1 144.01-22.73 144.42-22.36 144.42-21.51L144.42-21.51 144.42-16.87Q144.42-16.02 144.01-15.65 143.59-15.28 142.59-15.28L142.59-15.28Q141.76-15.28 141.42-15.92L141.42-15.92Q140.37-17.92 138.37-18.74 136.37-19.56 133.29-19.56L133.29-19.56Q130.92-19.56 129.59-18.71 128.26-17.87 128.26-16.36L128.26-16.36Q128.26-15.58 128.76-15.09 129.26-14.6 130.24-14.28L130.24-14.28Q131.04-14.01 132.11-13.87 133.17-13.72 134.85-13.55L134.85-13.55Q137.22-13.28 138.67-13.05 140.13-12.82 141.42-12.35L141.42-12.35Q143.37-11.65 144.46-10.3 145.55-8.96 145.55-6.76L145.55-6.76Q145.55-4.57 144.44-2.92 143.32-1.27 141.19-0.37 139.05 0.54 136.07 0.54L136.07 0.54Q133.44 0.54 131.44-0.2 129.43-0.93 127.94-2.42L127.94-2.42 127.94-1.05Q127.94-0.2 127.53 0.17 127.11 0.54 126.11 0.54L126.11 0.54Q125.11 0.54 124.7 0.17 124.28-0.2 124.28-1.05L124.28-1.05 124.28-6.91Q124.28-7.76 124.7-8.13 125.11-8.5 126.11-8.5L126.11-8.5Q126.63-8.5 126.92-8.26 127.21-8.03 127.43-7.5L127.43-7.5Q128.31-5.15 130.36-4.08 132.41-3 135.83-3L135.83-3Q138.66-3 140.18-4.03 141.69-5.05 141.69-6.76L141.69-6.76Q141.69-7.59 141.15-8.13 140.62-8.67 139.61-9.01L139.61-9.01Q138.76-9.28 137.65-9.46 136.54-9.64 134.83-9.81L134.83-9.81Q132.53-10.06 131-10.33 129.46-10.6 128.16-11.11L128.16-11.11Q126.38-11.82 125.39-13.07 124.4-14.33 124.4-16.36L124.4-16.36Q124.4-18.48 125.51-20.01 126.63-21.53 128.59-22.31 130.56-23.1 133.05-23.1L133.05-23.1Q135.41-23.1 137.38-22.39 139.35-21.68 140.76-20.41L140.76-20.41 140.76-21.51Q140.76-22.36 141.18-22.73 141.59-23.1 142.59-23.1L142.59-23.1ZM157.68-32.03Q158.51-32.03 158.86-31.65 159.22-31.27 159.22-30.37L159.22-30.37 159.22-18.21Q160.8-20.58 162.89-21.84 164.98-23.1 167.39-23.1L167.39-23.1Q169.62-23.1 171.25-22.13 172.89-21.17 173.77-19.36 174.65-17.55 174.65-15.14L174.65-15.14 174.65-3.32 176.65-3.32Q177.48-3.32 177.83-2.94 178.19-2.56 178.19-1.66L178.19-1.66Q178.19-0.76 177.83-0.38 177.48 0 176.65 0L176.65 0 168.74 0Q167.91 0 167.55-0.38 167.2-0.76 167.2-1.66L167.2-1.66Q167.2-2.56 167.55-2.94 167.91-3.32 168.74-3.32L168.74-3.32 170.98-3.32 170.98-14.77Q170.98-16.94 169.98-18.21 168.98-19.48 167.03-19.48L167.03-19.48Q164.95-19.48 163.16-18.29 161.36-17.09 160.29-14.99 159.22-12.89 159.22-10.3L159.22-10.3 159.22-3.32 161.46-3.32Q162.29-3.32 162.65-2.94 163-2.56 163-1.66L163-1.66Q163-0.76 162.65-0.38 162.29 0 161.46 0L161.46 0 153.55 0Q152.72 0 152.37-0.38 152.01-0.76 152.01-1.66L152.01-1.66Q152.01-2.56 152.37-2.94 152.72-3.32 153.55-3.32L153.55-3.32 155.55-3.32 155.55-28.71 153.31-28.71Q152.48-28.71 152.12-29.09 151.77-29.47 151.77-30.37L151.77-30.37Q151.77-31.27 152.12-31.65 152.48-32.03 153.31-32.03L153.31-32.03 157.68-32.03ZM194.96-23.1Q199.55-23.1 201.84-21.04 204.14-18.99 204.14-14.97L204.14-14.97 204.14-5.25Q204.14-3.32 205.75-3.32L205.75-3.32 206.6-3.32Q207.43-3.32 207.79-2.94 208.14-2.56 208.14-1.66L208.14-1.66Q208.14-0.76 207.79-0.38 207.43 0 206.6 0L206.6 0 205.04 0Q203.45 0 202.32-0.79 201.18-1.59 200.84-3.13L200.84-3.13Q198.84-1.37 196.51-0.42 194.17 0.54 191.56 0.54L191.56 0.54Q189.1 0.54 187.2-0.31 185.31-1.15 184.24-2.76 183.16-4.37 183.16-6.59L183.16-6.59Q183.16-10.45 185.92-12.29 188.68-14.14 193.05-14.14L193.05-14.14Q196.93-14.14 200.47-12.89L200.47-12.89 200.47-14.97Q200.47-17.33 199.14-18.44 197.81-19.56 194.86-19.56L194.86-19.56Q193.03-19.56 191.05-19.04 189.07-18.53 187.29-17.63L187.29-17.63Q186.87-17.41 186.53-17.41L186.53-17.41Q185.73-17.41 185.19-18.58L185.19-18.58Q184.92-19.17 184.92-19.56L184.92-19.56Q184.92-20.41 185.82-20.87L185.82-20.87Q187.88-21.95 190.23-22.52 192.59-23.1 194.96-23.1L194.96-23.1ZM193.08-10.69Q190.27-10.69 188.64-9.73 187.02-8.76 187.02-6.67L187.02-6.67Q187.02-4.88 188.25-3.89 189.49-2.91 191.71-2.91L191.71-2.91Q196.57-2.91 200.47-6.93L200.47-6.93 200.47-9.59Q198.81-10.13 196.91-10.41 195-10.69 193.08-10.69L193.08-10.69ZM232.31-23.1Q234.21-23.1 235.87-22.12L235.87-22.12Q236.85-21.53 236.85-20.61L236.85-20.61Q236.85-20.17 236.63-19.58L236.63-19.58Q236.12-18.19 235.21-18.19L235.21-18.19Q234.85-18.19 234.53-18.38L234.53-18.38Q233.33-19.04 231.96-19.04L231.96-19.04Q229.77-19.04 227.55-17.52 225.32-15.99 223.9-13.45 222.47-10.91 222.47-8.06L222.47-8.06 222.47-3.32 230.7-3.32Q231.53-3.32 231.88-2.94 232.23-2.56 232.23-1.66L232.23-1.66Q232.23-0.76 231.88-0.38 231.53 0 230.7 0L230.7 0 214.97 0Q214.14 0 213.79-0.38 213.43-0.76 213.43-1.66L213.43-1.66Q213.43-2.56 213.79-2.94 214.14-3.32 214.97-3.32L214.97-3.32 218.81-3.32 218.81-19.24 215.71-19.24Q214.88-19.24 214.52-19.62 214.17-20 214.17-20.9L214.17-20.9Q214.17-21.8 214.52-22.18 214.88-22.56 215.71-22.56L215.71-22.56 220.69-22.56Q221.52-22.56 221.87-22.18 222.22-21.8 222.22-20.9L222.22-20.9 222.22-15.97Q223.4-18.12 225.06-19.73 226.72-21.34 228.6-22.22 230.48-23.1 232.31-23.1L232.31-23.1ZM255.03-23.1Q258.57-23.1 261.08-21.67 263.58-20.24 264.92-17.71 266.26-15.19 266.46-11.89L266.46-11.89Q266.46-11.06 266.11-10.72 265.75-10.38 264.92-10.38L264.92-10.38 247.25-10.38Q247.42-6.74 249.41-4.87 251.4-3 255.03-3L255.03-3Q257.28-3 259.48-3.58 261.67-4.15 263.33-5.1L263.33-5.1Q263.75-5.32 264.09-5.32L264.09-5.32Q264.95-5.32 265.48-4.03L265.48-4.03Q265.7-3.52 265.7-3.1L265.7-3.1Q265.7-2.12 264.63-1.59L264.63-1.59Q262.75-0.63 260.19-0.05 257.62 0.54 255.03 0.54L255.03 0.54Q251.35 0.54 248.73-0.88 246.12-2.29 244.76-4.96 243.39-7.62 243.39-11.28L243.39-11.28Q243.39-14.77 244.88-17.46 246.37-20.14 249-21.62 251.64-23.1 255.03-23.1L255.03-23.1ZM255.03-19.56Q252.03-19.56 250.07-18.03 248.1-16.5 247.49-13.79L247.49-13.79 262.41-13.79Q261.89-16.6 260.05-18.08 258.21-19.56 255.03-19.56L255.03-19.56Z" opacity="1" transform="matrix(1,0,0,1,0,0)" fill="#ffffff" class="wordmark-text-0" data-fill-palette-color="primary" id="text-0"></path></svg></g></svg></g><g transform="matrix(1,0,0,1,0,60.454483489032256)"><svg viewBox="0 0 232.209792 19.94607943076167" height="19.94607943076167" width="232.209792"><g transform="matrix(1,0,0,1,0,0)"><svg width="232.209792" viewBox="2.75 -35.95 508.69 43.7" height="19.94607943076167" data-palette-color="#ffffff"><path d="M16.55 0.6L16.55 0.6Q13.5 0.6 10.95-0.6 8.4-1.8 6.58-4.03 4.75-6.25 3.75-9.43 2.75-12.6 2.75-16.55L2.75-16.55Q2.75-20.45 3.78-23.6 4.8-26.75 6.65-28.98 8.5-31.2 11.08-32.38 13.65-33.55 16.8-33.55L16.8-33.55Q19.7-33.55 21.9-32.35 24.1-31.15 25.4-29.6L25.4-29.6 24.05-28.05Q22.7-29.6 20.9-30.53 19.1-31.45 16.85-31.45L16.85-31.45Q14.15-31.45 11.98-30.4 9.8-29.35 8.28-27.43 6.75-25.5 5.95-22.75 5.15-20 5.15-16.55L5.15-16.55Q5.15-13.1 5.95-10.33 6.75-7.55 8.25-5.6 9.75-3.65 11.88-2.58 14-1.5 16.65-1.5L16.65-1.5Q19.2-1.5 21.2-2.53 23.2-3.55 25-5.55L25-5.55 26.35-4.1Q24.45-1.9 22.1-0.65 19.75 0.6 16.55 0.6ZM41.55 0.6L41.55 0.6Q39.4 0.6 37.45-0.25 35.5-1.1 34.02-2.7 32.55-4.3 31.67-6.63 30.8-8.95 30.8-11.95L30.8-11.95Q30.8-14.95 31.67-17.32 32.55-19.7 34.02-21.3 35.5-22.9 37.45-23.75 39.4-24.6 41.55-24.6L41.55-24.6Q43.7-24.6 45.67-23.75 47.65-22.9 49.12-21.3 50.6-19.7 51.47-17.32 52.35-14.95 52.35-11.95L52.35-11.95Q52.35-8.95 51.47-6.63 50.6-4.3 49.12-2.7 47.65-1.1 45.67-0.25 43.7 0.6 41.55 0.6ZM41.55-1.35L41.55-1.35Q43.35-1.35 44.92-2.13 46.5-2.9 47.62-4.3 48.75-5.7 49.4-7.65 50.05-9.6 50.05-11.95L50.05-11.95Q50.05-14.35 49.4-16.3 48.75-18.25 47.62-19.68 46.5-21.1 44.92-21.88 43.35-22.65 41.55-22.65L41.55-22.65Q39.75-22.65 38.2-21.88 36.65-21.1 35.52-19.68 34.4-18.25 33.75-16.3 33.1-14.35 33.1-11.95L33.1-11.95Q33.1-9.6 33.75-7.65 34.4-5.7 35.52-4.3 36.65-2.9 38.2-2.13 39.75-1.35 41.55-1.35ZM62.5 0.6L62.5 0.6Q59.55 0.6 59.55-3.2L59.55-3.2 59.55-35.95 61.75-35.95 61.75-2.9Q61.75-2.1 62.05-1.73 62.35-1.35 62.8-1.35L62.8-1.35Q62.95-1.35 63.12-1.35 63.3-1.35 63.7-1.45L63.7-1.45 64.1 0.35Q63.75 0.45 63.4 0.53 63.05 0.6 62.5 0.6ZM74.34 0.6L74.34 0.6Q71.39 0.6 71.39-3.2L71.39-3.2 71.39-35.95 73.59-35.95 73.59-2.9Q73.59-2.1 73.89-1.73 74.19-1.35 74.64-1.35L74.64-1.35Q74.79-1.35 74.97-1.35 75.14-1.35 75.54-1.45L75.54-1.45 75.94 0.35Q75.59 0.45 75.24 0.53 74.89 0.6 74.34 0.6ZM88.49 0.6L88.49 0.6Q87.04 0.6 85.79 0.2 84.54-0.2 83.59-1 82.64-1.8 82.09-3.05 81.54-4.3 81.54-6L81.54-6Q81.54-10 85.27-12.08 88.99-14.15 97.04-15.05L97.04-15.05Q97.04-16.4 96.84-17.78 96.64-19.15 95.99-20.23 95.34-21.3 94.24-21.98 93.14-22.65 91.34-22.65L91.34-22.65Q88.94-22.65 86.94-21.7 84.94-20.75 83.69-19.85L83.69-19.85 82.69-21.5Q83.34-21.95 84.27-22.5 85.19-23.05 86.34-23.5 87.49-23.95 88.84-24.28 90.19-24.6 91.64-24.6L91.64-24.6Q93.74-24.6 95.19-23.88 96.64-23.15 97.54-21.9 98.44-20.65 98.84-18.98 99.24-17.3 99.24-15.35L99.24-15.35 99.24 0 97.34 0 97.14-3.1 96.99-3.1Q95.14-1.65 93.02-0.53 90.89 0.6 88.49 0.6ZM88.89-1.3L88.89-1.3Q90.99-1.3 92.89-2.3 94.79-3.3 97.04-5.2L97.04-5.2 97.04-13.35Q93.34-12.9 90.79-12.25 88.24-11.6 86.69-10.7 85.14-9.8 84.47-8.65 83.79-7.5 83.79-6.1L83.79-6.1Q83.79-4.8 84.19-3.9 84.59-3 85.29-2.43 85.99-1.85 86.92-1.58 87.84-1.3 88.89-1.3ZM117.19 0.6L117.19 0.6Q115.44 0.6 113.56-0.23 111.69-1.05 109.99-2.45L109.99-2.45 109.89-2.45 109.64 0 107.79 0 107.79-35.95 109.99-35.95 109.99-25.55 109.89-20.85Q111.74-22.4 113.84-23.5 115.94-24.6 118.19-24.6L118.19-24.6Q122.99-24.6 125.39-21.28 127.79-17.95 127.79-12.35L127.79-12.35Q127.79-9.3 126.94-6.9 126.09-4.5 124.61-2.83 123.14-1.15 121.21-0.28 119.29 0.6 117.19 0.6ZM117.09-1.35L117.09-1.35Q118.89-1.35 120.44-2.15 121.99-2.95 123.09-4.4 124.19-5.85 124.81-7.88 125.44-9.9 125.44-12.35L125.44-12.35Q125.44-14.55 125.01-16.45 124.59-18.35 123.69-19.73 122.79-21.1 121.34-21.88 119.89-22.65 117.84-22.65L117.84-22.65Q116.04-22.65 114.09-21.63 112.14-20.6 109.99-18.7L109.99-18.7 109.99-4.45Q111.99-2.75 113.84-2.05 115.69-1.35 117.09-1.35ZM143.64 0.6L143.64 0.6Q141.49 0.6 139.54-0.25 137.59-1.1 136.11-2.7 134.64-4.3 133.76-6.63 132.89-8.95 132.89-11.95L132.89-11.95Q132.89-14.95 133.76-17.32 134.64-19.7 136.11-21.3 137.59-22.9 139.54-23.75 141.49-24.6 143.64-24.6L143.64-24.6Q145.79-24.6 147.76-23.75 149.74-22.9 151.21-21.3 152.69-19.7 153.56-17.32 154.44-14.95 154.44-11.95L154.44-11.95Q154.44-8.95 153.56-6.63 152.69-4.3 151.21-2.7 149.74-1.1 147.76-0.25 145.79 0.6 143.64 0.6ZM143.64-1.35L143.64-1.35Q145.44-1.35 147.01-2.13 148.59-2.9 149.71-4.3 150.84-5.7 151.49-7.65 152.14-9.6 152.14-11.95L152.14-11.95Q152.14-14.35 151.49-16.3 150.84-18.25 149.71-19.68 148.59-21.1 147.01-21.88 145.44-22.65 143.64-22.65L143.64-22.65Q141.84-22.65 140.29-21.88 138.74-21.1 137.61-19.68 136.49-18.25 135.84-16.3 135.19-14.35 135.19-11.95L135.19-11.95Q135.19-9.6 135.84-7.65 136.49-5.7 137.61-4.3 138.74-2.9 140.29-2.13 141.84-1.35 143.64-1.35ZM163.83 0L161.63 0 161.63-24 163.53-24 163.73-19.55 163.88-19.55Q165.08-21.8 166.81-23.2 168.53-24.6 170.68-24.6L170.68-24.6Q171.38-24.6 171.93-24.5 172.48-24.4 173.08-24.1L173.08-24.1 172.58-22.1Q171.98-22.35 171.53-22.43 171.08-22.5 170.38-22.5L170.38-22.5Q168.78-22.5 167.01-21.13 165.23-19.75 163.83-16.35L163.83-16.35 163.83 0ZM181.68 0.6L181.68 0.6Q180.23 0.6 178.98 0.2 177.73-0.2 176.78-1 175.83-1.8 175.28-3.05 174.73-4.3 174.73-6L174.73-6Q174.73-10 178.46-12.08 182.18-14.15 190.23-15.05L190.23-15.05Q190.23-16.4 190.03-17.78 189.83-19.15 189.18-20.23 188.53-21.3 187.43-21.98 186.33-22.65 184.53-22.65L184.53-22.65Q182.13-22.65 180.13-21.7 178.13-20.75 176.88-19.85L176.88-19.85 175.88-21.5Q176.53-21.95 177.46-22.5 178.38-23.05 179.53-23.5 180.68-23.95 182.03-24.28 183.38-24.6 184.83-24.6L184.83-24.6Q186.93-24.6 188.38-23.88 189.83-23.15 190.73-21.9 191.63-20.65 192.03-18.98 192.43-17.3 192.43-15.35L192.43-15.35 192.43 0 190.53 0 190.33-3.1 190.18-3.1Q188.33-1.65 186.21-0.53 184.08 0.6 181.68 0.6ZM182.08-1.3L182.08-1.3Q184.18-1.3 186.08-2.3 187.98-3.3 190.23-5.2L190.23-5.2 190.23-13.35Q186.53-12.9 183.98-12.25 181.43-11.6 179.88-10.7 178.33-9.8 177.66-8.65 176.98-7.5 176.98-6.1L176.98-6.1Q176.98-4.8 177.38-3.9 177.78-3 178.48-2.43 179.18-1.85 180.11-1.58 181.03-1.3 182.08-1.3ZM206.98 0.6L206.98 0.6Q205.23 0.6 204.08 0.08 202.93-0.45 202.23-1.4 201.53-2.35 201.25-3.7 200.98-5.05 200.98-6.65L200.98-6.65 200.98-22.1 197.23-22.1 197.23-23.8 201.03-24 201.33-30.95 203.23-30.95 203.23-24 210.18-24 210.18-22.1 203.23-22.1 203.23-6.45Q203.23-5.3 203.4-4.38 203.58-3.45 204.03-2.78 204.48-2.1 205.25-1.73 206.03-1.35 207.28-1.35L207.28-1.35Q207.98-1.35 208.8-1.58 209.63-1.8 210.28-2.1L210.28-2.1 210.88-0.3Q209.83 0.1 208.78 0.35 207.73 0.6 206.98 0.6ZM224.57 0.6L224.57 0.6Q222.28 0.6 220.25-0.25 218.22-1.1 216.72-2.73 215.22-4.35 214.35-6.68 213.47-9 213.47-11.95L213.47-11.95Q213.47-14.9 214.35-17.25 215.22-19.6 216.7-21.23 218.18-22.85 220.05-23.73 221.93-24.6 223.93-24.6L223.93-24.6Q228.22-24.6 230.68-21.7 233.13-18.8 233.13-13.5L233.13-13.5Q233.13-13.05 233.13-12.6 233.13-12.15 233.03-11.7L233.03-11.7 215.72-11.7Q215.78-9.45 216.43-7.53 217.07-5.6 218.25-4.23 219.43-2.85 221.07-2.08 222.72-1.3 224.78-1.3L224.78-1.3Q226.72-1.3 228.3-1.88 229.88-2.45 231.22-3.45L231.22-3.45 232.13-1.75Q230.68-0.9 228.95-0.15 227.22 0.6 224.57 0.6ZM215.72-13.5L215.72-13.5 231.03-13.5Q231.03-18.15 229.13-20.43 227.22-22.7 223.97-22.7L223.97-22.7Q222.43-22.7 221.03-22.08 219.63-21.45 218.5-20.25 217.38-19.05 216.65-17.35 215.93-15.65 215.72-13.5ZM238.12 7.75L238.12 7.75 237.42 6.25Q239.17 5.35 240.22 3.8 241.27 2.25 241.27 0.2L241.27 0.2Q241.07 0.25 240.67 0.25L240.67 0.25Q239.82 0.25 239.2-0.3 238.57-0.85 238.57-1.85L238.57-1.85Q238.57-2.85 239.22-3.4 239.87-3.95 240.72-3.95L240.72-3.95Q241.87-3.95 242.57-3 243.27-2.05 243.27-0.4L243.27-0.4Q243.27 2.35 241.82 4.45 240.37 6.55 238.12 7.75ZM272.52 0.6L272.52 0.6Q269.47 0.6 266.92-0.6 264.37-1.8 262.54-4.03 260.72-6.25 259.72-9.43 258.72-12.6 258.72-16.55L258.72-16.55Q258.72-20.45 259.74-23.6 260.77-26.75 262.62-28.98 264.47-31.2 267.04-32.38 269.62-33.55 272.77-33.55L272.77-33.55Q275.67-33.55 277.87-32.35 280.07-31.15 281.37-29.6L281.37-29.6 280.02-28.05Q278.67-29.6 276.87-30.53 275.07-31.45 272.82-31.45L272.82-31.45Q270.12-31.45 267.94-30.4 265.77-29.35 264.24-27.43 262.72-25.5 261.92-22.75 261.12-20 261.12-16.55L261.12-16.55Q261.12-13.1 261.92-10.33 262.72-7.55 264.22-5.6 265.72-3.65 267.84-2.58 269.97-1.5 272.62-1.5L272.62-1.5Q275.17-1.5 277.17-2.53 279.17-3.55 280.97-5.55L280.97-5.55 282.32-4.1Q280.42-1.9 278.07-0.65 275.72 0.6 272.52 0.6ZM297.52 0.6L297.52 0.6Q295.37 0.6 293.42-0.25 291.47-1.1 289.99-2.7 288.52-4.3 287.64-6.63 286.77-8.95 286.77-11.95L286.77-11.95Q286.77-14.95 287.64-17.32 288.52-19.7 289.99-21.3 291.47-22.9 293.42-23.75 295.37-24.6 297.52-24.6L297.52-24.6Q299.67-24.6 301.64-23.75 303.62-22.9 305.09-21.3 306.56-19.7 307.44-17.32 308.31-14.95 308.31-11.95L308.31-11.95Q308.31-8.95 307.44-6.63 306.56-4.3 305.09-2.7 303.62-1.1 301.64-0.25 299.67 0.6 297.52 0.6ZM297.52-1.35L297.52-1.35Q299.31-1.35 300.89-2.13 302.47-2.9 303.59-4.3 304.72-5.7 305.37-7.65 306.02-9.6 306.02-11.95L306.02-11.95Q306.02-14.35 305.37-16.3 304.72-18.25 303.59-19.68 302.47-21.1 300.89-21.88 299.31-22.65 297.52-22.65L297.52-22.65Q295.72-22.65 294.17-21.88 292.62-21.1 291.49-19.68 290.37-18.25 289.72-16.3 289.06-14.35 289.06-11.95L289.06-11.95Q289.06-9.6 289.72-7.65 290.37-5.7 291.49-4.3 292.62-2.9 294.17-2.13 295.72-1.35 297.52-1.35ZM323.46 0.6L323.46 0.6Q318.91 0.6 316.21-2.63 313.51-5.85 313.51-11.95L313.51-11.95Q313.51-14.85 314.36-17.2 315.21-19.55 316.69-21.2 318.16-22.85 320.09-23.73 322.01-24.6 324.16-24.6L324.16-24.6Q326.36-24.6 327.99-23.83 329.61-23.05 331.41-21.65L331.41-21.65 331.31-26.05 331.31-35.95 333.51-35.95 333.51 0 331.61 0 331.41-3.1 331.26-3.1Q329.81-1.65 327.84-0.53 325.86 0.6 323.46 0.6ZM323.76-1.35L323.76-1.35Q325.76-1.35 327.59-2.38 329.41-3.4 331.31-5.3L331.31-5.3 331.31-19.55Q329.41-21.25 327.74-21.95 326.06-22.65 324.31-22.65L324.31-22.65Q322.51-22.65 320.96-21.83 319.41-21 318.29-19.58 317.16-18.15 316.51-16.18 315.86-14.2 315.86-11.95L315.86-11.95Q315.86-9.55 316.39-7.6 316.91-5.65 317.91-4.28 318.91-2.9 320.39-2.13 321.86-1.35 323.76-1.35ZM351.81 0.6L351.81 0.6Q349.51 0.6 347.49-0.25 345.46-1.1 343.96-2.73 342.46-4.35 341.59-6.68 340.71-9 340.71-11.95L340.71-11.95Q340.71-14.9 341.59-17.25 342.46-19.6 343.94-21.23 345.41-22.85 347.29-23.73 349.16-24.6 351.16-24.6L351.16-24.6Q355.46-24.6 357.91-21.7 360.36-18.8 360.36-13.5L360.36-13.5Q360.36-13.05 360.36-12.6 360.36-12.15 360.26-11.7L360.26-11.7 342.96-11.7Q343.01-9.45 343.66-7.53 344.31-5.6 345.49-4.23 346.66-2.85 348.31-2.08 349.96-1.3 352.01-1.3L352.01-1.3Q353.96-1.3 355.54-1.88 357.11-2.45 358.46-3.45L358.46-3.45 359.36-1.75Q357.91-0.9 356.19-0.15 354.46 0.6 351.81 0.6ZM342.96-13.5L342.96-13.5 358.26-13.5Q358.26-18.15 356.36-20.43 354.46-22.7 351.21-22.7L351.21-22.7Q349.66-22.7 348.26-22.08 346.86-21.45 345.74-20.25 344.61-19.05 343.88-17.35 343.16-15.65 342.96-13.5ZM365.36 7.75L365.36 7.75 364.66 6.25Q366.41 5.35 367.46 3.8 368.51 2.25 368.51 0.2L368.51 0.2Q368.31 0.25 367.91 0.25L367.91 0.25Q367.06 0.25 366.43-0.3 365.81-0.85 365.81-1.85L365.81-1.85Q365.81-2.85 366.46-3.4 367.11-3.95 367.96-3.95L367.96-3.95Q369.11-3.95 369.81-3 370.51-2.05 370.51-0.4L370.51-0.4Q370.51 2.35 369.06 4.45 367.61 6.55 365.36 7.75ZM399.75 0.6L399.75 0.6Q396.7 0.6 394.15-0.6 391.6-1.8 389.78-4.03 387.95-6.25 386.95-9.43 385.95-12.6 385.95-16.55L385.95-16.55Q385.95-20.45 386.98-23.6 388-26.75 389.85-28.98 391.7-31.2 394.28-32.38 396.85-33.55 400-33.55L400-33.55Q402.9-33.55 405.1-32.35 407.3-31.15 408.6-29.6L408.6-29.6 407.25-28.05Q405.9-29.6 404.1-30.53 402.3-31.45 400.05-31.45L400.05-31.45Q397.35-31.45 395.18-30.4 393-29.35 391.48-27.43 389.95-25.5 389.15-22.75 388.35-20 388.35-16.55L388.35-16.55Q388.35-13.1 389.15-10.33 389.95-7.55 391.45-5.6 392.95-3.65 395.08-2.58 397.2-1.5 399.85-1.5L399.85-1.5Q402.4-1.5 404.4-2.53 406.4-3.55 408.2-5.55L408.2-5.55 409.55-4.1Q407.65-1.9 405.3-0.65 402.95 0.6 399.75 0.6ZM418.2 0L416 0 416-24 417.9-24 418.1-19.55 418.25-19.55Q419.45-21.8 421.17-23.2 422.9-24.6 425.05-24.6L425.05-24.6Q425.75-24.6 426.3-24.5 426.85-24.4 427.45-24.1L427.45-24.1 426.95-22.1Q426.35-22.35 425.9-22.43 425.45-22.5 424.75-22.5L424.75-22.5Q423.15-22.5 421.38-21.13 419.6-19.75 418.2-16.35L418.2-16.35 418.2 0ZM440.45 0.6L440.45 0.6Q438.15 0.6 436.12-0.25 434.1-1.1 432.6-2.73 431.1-4.35 430.22-6.68 429.35-9 429.35-11.95L429.35-11.95Q429.35-14.9 430.22-17.25 431.1-19.6 432.57-21.23 434.05-22.85 435.92-23.73 437.8-24.6 439.8-24.6L439.8-24.6Q444.1-24.6 446.55-21.7 449-18.8 449-13.5L449-13.5Q449-13.05 449-12.6 449-12.15 448.9-11.7L448.9-11.7 431.6-11.7Q431.65-9.45 432.3-7.53 432.95-5.6 434.12-4.23 435.3-2.85 436.95-2.08 438.6-1.3 440.65-1.3L440.65-1.3Q442.6-1.3 444.17-1.88 445.75-2.45 447.1-3.45L447.1-3.45 448-1.75Q446.55-0.9 444.82-0.15 443.1 0.6 440.45 0.6ZM431.6-13.5L431.6-13.5 446.9-13.5Q446.9-18.15 445-20.43 443.1-22.7 439.85-22.7L439.85-22.7Q438.3-22.7 436.9-22.08 435.5-21.45 434.37-20.25 433.25-19.05 432.52-17.35 431.8-15.65 431.6-13.5ZM460 0.6L460 0.6Q458.54 0.6 457.29 0.2 456.04-0.2 455.09-1 454.14-1.8 453.59-3.05 453.04-4.3 453.04-6L453.04-6Q453.04-10 456.77-12.08 460.5-14.15 468.54-15.05L468.54-15.05Q468.54-16.4 468.34-17.78 468.14-19.15 467.5-20.23 466.84-21.3 465.75-21.98 464.64-22.65 462.84-22.65L462.84-22.65Q460.44-22.65 458.44-21.7 456.44-20.75 455.19-19.85L455.19-19.85 454.19-21.5Q454.84-21.95 455.77-22.5 456.69-23.05 457.84-23.5 459-23.95 460.34-24.28 461.69-24.6 463.14-24.6L463.14-24.6Q465.25-24.6 466.69-23.88 468.14-23.15 469.04-21.9 469.94-20.65 470.34-18.98 470.75-17.3 470.75-15.35L470.75-15.35 470.75 0 468.84 0 468.64-3.1 468.5-3.1Q466.64-1.65 464.52-0.53 462.39 0.6 460 0.6ZM460.39-1.3L460.39-1.3Q462.5-1.3 464.39-2.3 466.29-3.3 468.54-5.2L468.54-5.2 468.54-13.35Q464.84-12.9 462.29-12.25 459.75-11.6 458.19-10.7 456.64-9.8 455.97-8.65 455.29-7.5 455.29-6.1L455.29-6.1Q455.29-4.8 455.69-3.9 456.09-3 456.79-2.43 457.5-1.85 458.42-1.58 459.34-1.3 460.39-1.3ZM485.29 0.6L485.29 0.6Q483.54 0.6 482.39 0.08 481.24-0.45 480.54-1.4 479.84-2.35 479.57-3.7 479.29-5.05 479.29-6.65L479.29-6.65 479.29-22.1 475.54-22.1 475.54-23.8 479.34-24 479.64-30.95 481.54-30.95 481.54-24 488.49-24 488.49-22.1 481.54-22.1 481.54-6.45Q481.54-5.3 481.72-4.38 481.89-3.45 482.34-2.78 482.79-2.1 483.57-1.73 484.34-1.35 485.59-1.35L485.59-1.35Q486.29-1.35 487.12-1.58 487.94-1.8 488.59-2.1L488.59-2.1 489.19-0.3Q488.14 0.1 487.09 0.35 486.04 0.6 485.29 0.6ZM502.89 0.6L502.89 0.6Q500.59 0.6 498.56-0.25 496.54-1.1 495.04-2.73 493.54-4.35 492.67-6.68 491.79-9 491.79-11.95L491.79-11.95Q491.79-14.9 492.67-17.25 493.54-19.6 495.01-21.23 496.49-22.85 498.37-23.73 500.24-24.6 502.24-24.6L502.24-24.6Q506.54-24.6 508.99-21.7 511.44-18.8 511.44-13.5L511.44-13.5Q511.44-13.05 511.44-12.6 511.44-12.15 511.34-11.7L511.34-11.7 494.04-11.7Q494.09-9.45 494.74-7.53 495.39-5.6 496.56-4.23 497.74-2.85 499.39-2.08 501.04-1.3 503.09-1.3L503.09-1.3Q505.04-1.3 506.62-1.88 508.19-2.45 509.54-3.45L509.54-3.45 510.44-1.75Q508.99-0.9 507.26-0.15 505.54 0.6 502.89 0.6ZM494.04-13.5L494.04-13.5 509.34-13.5Q509.34-18.15 507.44-20.43 505.54-22.7 502.29-22.7L502.29-22.7Q500.74-22.7 499.34-22.08 497.94-21.45 496.81-20.25 495.69-19.05 494.96-17.35 494.24-15.65 494.04-13.5Z" opacity="1" transform="matrix(1,0,0,1,0,0)" fill="#ffffff" class="slogan-text-1" data-fill-palette-color="secondary" id="text-1"></path></svg></g></svg></g></svg></g></svg></g><g transform="matrix(1,0,0,1,0,0.20100140729947924)"><svg viewBox="0 0 76.75922142515647 80.40056291979393" height="80.40056291979393" width="76.75922142515647"><g><svg version="1.0" xmlns="http://www.w3.org/2000/svg" xmlns:xlink="http://www.w3.org/1999/xlink" x="0" y="0" viewBox="0 0 95.471 100" enable-background="new 0 0 95.471 100" xml:space="preserve" id="icon-0" width="76.75922142515647" height="80.40056291979393" class="icon-icon-0" data-fill-palette-color="accent"><path d="M47.735 0C47.652 2.825 45.997 13.412 27.936 30.934 10.554 47.797 2.439 49.824 0 50 2.439 50.178 10.554 52.204 27.936 69.066 45.997 86.589 47.652 97.177 47.735 100 47.818 97.177 49.474 86.589 67.533 69.066 84.917 52.204 93.031 50.178 95.471 50 93.032 49.824 84.917 47.797 67.533 30.934 49.475 13.412 47.819 2.825 47.735 0" fill="#ffffff" data-fill-palette-color="accent"></path></svg></g></svg></g></svg></g><defs></defs></svg><rect width="395.52" height="63.94593908243036" fill="none" stroke="none" visibility="hidden"></rect></g></svg></g></svg>